<?xml version="1.0" encoding="utf-8"?>
<!-- Generator: Adobe Illustrator 16.0.3, SVG Export Plug-In . SVG Version: 6.00 Build 0)  -->
<!DOCTYPE svg PUBLIC "-//W3C//DTD SVG 1.1//EN" "http://www.w3.org/Graphics/SVG/1.1/DTD/svg11.dtd">
<svg version="1.1" id="Layer_1" xmlns="http://www.w3.org/2000/svg" xmlns:xlink="http://www.w3.org/1999/xlink" x="0px" y="0px"
	 width="22.688px" height="18px" viewBox="0 0 22.688 18" enable-background="new 0 0 22.688 18" xml:space="preserve">
<path fill="#333" d="M11.625,10.5h-0.592l-0.211-0.203C11.558,9.442,12,8.333,12,7.125C12,4.433,9.817,2.25,7.125,2.25
	S2.25,4.433,2.25,7.125S4.433,12,7.125,12c1.208,0,2.317-0.442,3.172-1.178l0.203,0.21v0.593l3.75,3.742l1.117-1.117L11.625,10.5z
	 M7.125,10.5c-1.868,0-3.375-1.507-3.375-3.375S5.257,3.75,7.125,3.75S10.5,5.257,10.5,7.125S8.993,10.5,7.125,10.5z"/>
<path fill="none" d="M0,0h18v18H0V0z"/>
</svg>
