<svg id="Layer_1" data-name="Layer 1" xmlns="http://www.w3.org/2000/svg" viewBox="0 0 800 303.67"><defs><style>.cls-1{fill:#2d2d2d;}.cls-2{fill:#707171;}.cls-3{fill:#c02026;}.cls-4{fill:#e0e0e0;}.cls-5{fill:#a09f9f;}</style></defs><title>2</title><path class="cls-1" d="M95.91,131.3c-.92,0-1,0-1.27.77l-1.5,4.45a4.48,4.48,0,0,0-.27,1.38c0,.23.5.46,1.57.65l1.15.19c.23.27.31,1.15-.08,1.34-1.34-.08-2.73-.08-4.34-.12-1.31,0-2.19.12-4,.12-.42-.23-.38-1-.12-1.34l1-.12a2.64,2.64,0,0,0,2.34-1.92c.65-1.54,1.38-3.38,2.42-6.14l3.49-9.37c.88-2.42,1.54-3.76,1.42-4.87a7.7,7.7,0,0,0,3.34-2.3c.5,0,.73.19.88.77.31,1.11.77,2.53,1.73,5.26l5.22,15c.81,2.3,1.15,3.19,2.57,3.42l1.46.23c.23.19.31,1.11,0,1.34-1.84-.08-3.92-.12-5.91-.12s-3.42,0-5.18.12a.87.87,0,0,1-.08-1.34l1.23-.19c.88-.15,1-.42,1-.65a16.16,16.16,0,0,0-.73-2.61l-1-3.3c-.19-.62-.5-.69-1.84-.69Zm4.38-2c.88,0,1.07-.12.77-1.11l-1-3.11c-.54-1.65-1.23-3.72-1.57-4.53-.31.88-1.07,3-1.65,4.72l-1,2.88c-.35,1-.15,1.15.81,1.15Z"/><path class="cls-1" d="M138.06,133.45c0,2.49,0,4.91.08,6.18a3,3,0,0,1-2.26.88s-1.31-2-3.11-4.18l-8.87-11a56.3,56.3,0,0,0-4.18-4.91,6.79,6.79,0,0,0-.19,2.46v7.45c0,3.11.15,6,.58,7,.35.8,1.23,1.07,2.23,1.23l1.07.15a1.22,1.22,0,0,1,0,1.34c-2.07-.08-3.61-.12-5.14-.12s-2.84,0-4.3.12a1.22,1.22,0,0,1,0-1.34l.65-.12c1-.19,1.8-.46,2.11-1.27.42-1,.54-3.92.54-7v-9.75c0-2.11,0-2.73-.27-3.26s-.84-1.11-2.19-1.3l-1.07-.15c-.27-.31-.23-1.23.15-1.34,1.8.08,3.72.12,5.3.12,1.31,0,2.42,0,3.22-.12.38,1.73,2.88,4.65,6.33,8.75l3.22,3.8c1.69,2,2.8,3.34,3.69,4.22a5.52,5.52,0,0,0,.15-1.73v-5.3c0-3.11-.15-6-.58-7-.35-.81-1.19-1.08-2.23-1.23l-1-.15a1.22,1.22,0,0,1,0-1.34c2.07.08,3.57.12,5.14.12,1.42,0,2.8,0,4.3-.12a1.22,1.22,0,0,1,0,1.34l-.69.12a2.35,2.35,0,0,0-2.07,1.27c-.42,1-.58,3.92-.58,7Z"/><path class="cls-1" d="M152.57,117.52c0-.92,0-1.11-.92-1.11h-2.38c-2.8,0-3.61,1.54-4.76,4.34a1.08,1.08,0,0,1-1.42-.34,47,47,0,0,0,1.27-6.53.92.92,0,0,1,.54-.19.88.88,0,0,1,.54.15c.19.65.31.81,3.22.81h14.28c2.53,0,3.11,0,3.46-.84a1,1,0,0,1,.5-.12.82.82,0,0,1,.58.27,27.21,27.21,0,0,0-.58,6.6c-.19.35-1.23.42-1.42.12-.65-2.46-1.19-4.26-4.07-4.26h-2.3c-.92,0-1,.12-1,1.11v16.93c0,3.57.23,3.88,2,4.11l1.54.19a1.22,1.22,0,0,1,0,1.34c-2.5-.08-4.42-.12-6.14-.12s-3.84,0-6.53.12a1.1,1.1,0,0,1,0-1.34l1.73-.19c1.73-.19,2-.54,2-4.11Z"/><path class="cls-1" d="M178.45,134.37c0,3.61.23,3.88,2,4.19l1.07.19a1.1,1.1,0,0,1,0,1.34c-2.07-.08-4-.12-5.76-.12s-3.76,0-5.84.12a1.1,1.1,0,0,1,0-1.34l1.07-.19c1.77-.31,2-.58,2-4.19V120.24c0-3.61-.23-3.88-2-4.19l-1.07-.19a1.1,1.1,0,0,1,0-1.34c2.07.08,4,.12,5.84.12s3.72,0,5.8-.12a1.1,1.1,0,0,1,0,1.34l-1.07.19c-1.77.31-2,.58-2,4.19Z"/><path class="cls-1" d="M194.76,130a2.41,2.41,0,0,1,.54,1.61,2.59,2.59,0,0,1-.5,1.5l-9.21.85a2.18,2.18,0,0,1-.58-1.54,2.35,2.35,0,0,1,.58-1.57Z"/><path class="cls-1" d="M201.86,120.86c0-3.65-.08-4.37-1.84-4.57l-.73-.08c-.38-.19-.38-1.3.08-1.34,3.22-.19,6.22-.35,10.29-.35a26.81,26.81,0,0,1,8.95,1.27,11.64,11.64,0,0,1,7.79,11.13,12.24,12.24,0,0,1-6.87,11.48c-2.61,1.31-5.76,1.8-9.71,1.8-1.8,0-3.72-.23-5.11-.23-1.84,0-3.8,0-6,.12a1.09,1.09,0,0,1,0-1.34l1.19-.19c1.73-.27,2-.58,2-4.11ZM207.35,133c0,2.11.08,3.49.77,4.3a4.14,4.14,0,0,0,3.19,1.11c6.64,0,8.91-5.91,8.91-11.13,0-6.91-3.65-11-10.6-11a2.78,2.78,0,0,0-2,.5,4.68,4.68,0,0,0-.27,2.23Z"/><path class="cls-1" d="M238.83,134.37c0,3.61.23,3.88,2,4.19l1.08.19a1.1,1.1,0,0,1,0,1.34c-2.07-.08-4-.12-5.76-.12s-3.76,0-5.84.12a1.1,1.1,0,0,1,0-1.34l1.08-.19c1.77-.31,2-.58,2-4.19V120.24c0-3.61-.23-3.88-2-4.19l-1.08-.19a1.1,1.1,0,0,1,0-1.34c2.07.08,4,.12,5.84.12s3.72,0,5.8-.12a1.1,1.1,0,0,1,0,1.34l-1.08.19c-1.77.31-2,.58-2,4.19Z"/><path class="cls-1" d="M252.88,140.59a13.33,13.33,0,0,1-6.53-1.46c-.73-.85-1.23-3.61-1.23-6.22a1,1,0,0,1,1.46-.11c.77,2.49,3.34,6,6.6,6a3.82,3.82,0,0,0,4.15-3.88c0-3.11-2.92-5-5.22-6.1-2.76-1.38-5.8-3.69-5.8-7.49,0-4.34,3.34-7.33,8.91-7.33a15.56,15.56,0,0,1,4.38.61,8.92,8.92,0,0,0,1.31.31,18.71,18.71,0,0,1,.69,5.49c-.19.46-1.15.5-1.5.12-.65-2-2.3-4.76-5.07-4.76a3.57,3.57,0,0,0-3.92,3.57c0,1.77,1.57,3.38,3.49,4.38l2.53,1.34c2.38,1.27,5.41,3.49,5.41,7.72C262.56,137.52,258.68,140.59,252.88,140.59Z"/><path class="cls-1" d="M289.43,115a51,51,0,0,0,.46,6,1.05,1.05,0,0,1-1.46.27,7,7,0,0,0-7.22-5.49c-4.26,0-8.83,3.65-8.83,11.29s4.42,11.75,9,11.75,6.8-3.34,7.83-6a1.1,1.1,0,0,1,1.46.27,17,17,0,0,1-1.46,6,28.54,28.54,0,0,1-7.79,1.42c-3.76,0-7.6-.88-10.33-2.92a12.05,12.05,0,0,1-4.88-10.06,12.68,12.68,0,0,1,4.65-10.17A16.8,16.8,0,0,1,281.52,114,46.8,46.8,0,0,1,289.43,115Z"/><path class="cls-1" d="M296.57,120.86c0-3.84-.08-4.26-1.69-4.49l-1-.15a.87.87,0,0,1,.08-1.34c2.88-.19,5.87-.35,9.52-.35,3.26,0,6.07.5,7.52,1.38a6.29,6.29,0,0,1,3.38,5.68c0,3.42-2.3,4.88-4.07,5.76-.38.19-.38.42-.19.85,2.53,5.14,4.11,8,6,9.6a4.68,4.68,0,0,0,2.57,1.07.73.73,0,0,1,.15,1,9.23,9.23,0,0,1-3,.35c-3.53,0-5.76-1.27-7.45-4a48.07,48.07,0,0,1-3-5.95,2,2,0,0,0-2-1.34c-1.34,0-1.42.08-1.42.84v4.72c0,3.53.23,3.8,2,4.11l1,.19a1.22,1.22,0,0,1,0,1.34c-2-.08-3.8-.12-5.64-.12s-3.61,0-5.6.12a1.09,1.09,0,0,1,0-1.34l1-.19c1.73-.31,2-.58,2-4.11Zm5.26,4.88c0,1.34.12,1.46,2.38,1.46a3.68,3.68,0,0,0,2.92-1.08,5.58,5.58,0,0,0,1.38-4.15c0-3.46-2-5.68-5-5.68-1.57,0-1.65.12-1.65,2Z"/><path class="cls-1" d="M328.58,134.37c0,3.61.23,3.88,2,4.19l1.08.19a1.1,1.1,0,0,1,0,1.34c-2.07-.08-4-.12-5.76-.12s-3.76,0-5.84.12a1.1,1.1,0,0,1,0-1.34l1.08-.19c1.77-.31,2-.58,2-4.19V120.24c0-3.61-.23-3.88-2-4.19l-1.08-.19a1.1,1.1,0,0,1,0-1.34c2.07.08,4,.12,5.84.12s3.72,0,5.8-.12a1.1,1.1,0,0,1,0,1.34l-1.08.19c-1.77.31-2,.58-2,4.19Z"/><path class="cls-1" d="M335.3,115.87c-.31-.31-.31-1.23.12-1.34,1.31.08,3,.12,4.84.12,1.27,0,2.38,0,3.76-.12,0,2.38,1.34,4.72,3,8.33l2.53,5.41c.35.77,1.73,3.19,2.27,4.15.5-.92,1.11-2.11,2.15-4.38l2-4.22a48,48,0,0,0,3.65-9.29,35,35,0,0,0,3.8.12c1.27,0,3,0,4.42-.12a1,1,0,0,1,.12,1.34l-1.11.19c-1.57.27-2.34.73-2.34,2.77,0,7.91.08,12.05.31,16.89.08,1.77.23,2.69,1.73,2.88l1.23.15c.31.31.31,1.19-.08,1.34-1.77-.08-3.42-.12-5.3-.12-1.73,0-3.84,0-5.68.12a.87.87,0,0,1-.12-1.34l1.15-.15c1.77-.23,1.77-.69,1.77-3l-.08-10V121.2h-.08c-2.84,6.14-5.91,12.55-8.45,19a1.24,1.24,0,0,1-.77.27,2,2,0,0,1-1-.23c-1.5-4.76-6.22-14.28-8.37-19.27h-.08c-.15,2.5-.19,4.19-.23,6.18,0,2.49-.08,6.33-.08,8.64,0,1.92.23,2.46,1.77,2.69l1.5.23a1.09,1.09,0,0,1-.08,1.34c-1.42-.08-3.07-.12-4.53-.12-1.23,0-2.69,0-4.22.12-.5-.15-.5-1.15-.15-1.34l.69-.12c2-.35,2.19-.58,2.42-3,.19-1.88.31-5.22.54-8.87.15-2.57.23-5.68.23-7.75s-.84-2.77-2.38-3Z"/><path class="cls-1" d="M379.76,134.37c0,3.61.23,3.88,2,4.19l1.08.19a1.1,1.1,0,0,1,0,1.34c-2.07-.08-4-.12-5.76-.12s-3.76,0-5.84.12a1.1,1.1,0,0,1,0-1.34l1.08-.19c1.77-.31,2-.58,2-4.19V120.24c0-3.61-.23-3.88-2-4.19l-1.08-.19a1.1,1.1,0,0,1,0-1.34c2.07.08,4,.12,5.84.12s3.72,0,5.8-.12a1.1,1.1,0,0,1,0,1.34l-1.08.19c-1.77.31-2,.58-2,4.19Z"/><path class="cls-1" d="M410.2,133.45c0,2.49,0,4.91.08,6.18a3,3,0,0,1-2.27.88s-1.31-2-3.11-4.18l-8.87-11a56.31,56.31,0,0,0-4.18-4.91,6.79,6.79,0,0,0-.19,2.46v7.45c0,3.11.15,6,.58,7,.35.8,1.23,1.07,2.23,1.23l1.08.15a1.22,1.22,0,0,1,0,1.34c-2.07-.08-3.61-.12-5.14-.12s-2.84,0-4.3.12a1.22,1.22,0,0,1,0-1.34l.65-.12c1-.19,1.8-.46,2.11-1.27.42-1,.54-3.92.54-7v-9.75c0-2.11,0-2.73-.27-3.26s-.84-1.11-2.19-1.3l-1.08-.15c-.27-.31-.23-1.23.15-1.34,1.8.08,3.72.12,5.3.12,1.31,0,2.42,0,3.23-.12.38,1.73,2.88,4.65,6.33,8.75l3.22,3.8c1.69,2,2.8,3.34,3.69,4.22a5.51,5.51,0,0,0,.15-1.73v-5.3c0-3.11-.15-6-.58-7-.35-.81-1.19-1.08-2.23-1.23l-1-.15a1.22,1.22,0,0,1,0-1.34c2.07.08,3.57.12,5.14.12,1.42,0,2.8,0,4.3-.12a1.22,1.22,0,0,1,0,1.34l-.69.12a2.35,2.35,0,0,0-2.07,1.27c-.42,1-.58,3.92-.58,7Z"/><path class="cls-1" d="M422.79,131.3c-.92,0-1,0-1.27.77l-1.5,4.45a4.48,4.48,0,0,0-.27,1.38c0,.23.5.46,1.57.65l1.15.19c.23.27.31,1.15-.08,1.34-1.34-.08-2.73-.08-4.34-.12-1.31,0-2.19.12-4,.12-.42-.23-.38-1-.12-1.34l1-.12a2.64,2.64,0,0,0,2.34-1.92c.65-1.54,1.38-3.38,2.42-6.14l3.49-9.37c.88-2.42,1.54-3.76,1.42-4.87A7.7,7.7,0,0,0,428,114c.5,0,.73.19.88.77.31,1.11.77,2.53,1.73,5.26l5.22,15c.81,2.3,1.15,3.19,2.57,3.42l1.46.23c.23.19.31,1.11,0,1.34C438,140,436,140,434,140s-3.42,0-5.18.12a.87.87,0,0,1-.08-1.34l1.23-.19c.88-.15,1-.42,1-.65a16.14,16.14,0,0,0-.73-2.61l-1-3.3c-.19-.62-.5-.69-1.84-.69Zm4.38-2c.88,0,1.08-.12.77-1.11l-1-3.11c-.54-1.65-1.23-3.72-1.57-4.53-.31.88-1.07,3-1.65,4.72l-1,2.88c-.35,1-.15,1.15.81,1.15Z"/><path class="cls-1" d="M447,117.52c0-.92,0-1.11-.92-1.11h-2.38c-2.8,0-3.61,1.54-4.76,4.34a1.08,1.08,0,0,1-1.42-.34,47,47,0,0,0,1.27-6.53.91.91,0,0,1,.54-.19.88.88,0,0,1,.54.15c.19.65.31.81,3.23.81h14.28c2.53,0,3.11,0,3.46-.84a1,1,0,0,1,.5-.12.82.82,0,0,1,.58.27,27.2,27.2,0,0,0-.58,6.6c-.19.35-1.23.42-1.42.12-.65-2.46-1.19-4.26-4.07-4.26h-2.3c-.92,0-1,.12-1,1.11v16.93c0,3.57.23,3.88,2,4.11l1.54.19a1.22,1.22,0,0,1,0,1.34c-2.5-.08-4.42-.12-6.14-.12s-3.84,0-6.53.12a1.1,1.1,0,0,1,0-1.34l1.73-.19c1.73-.19,2-.54,2-4.11Z"/><path class="cls-1" d="M472.89,134.37c0,3.61.23,3.88,2,4.19l1.08.19a1.1,1.1,0,0,1,0,1.34c-2.07-.08-4-.12-5.76-.12s-3.76,0-5.84.12a1.1,1.1,0,0,1,0-1.34l1.08-.19c1.77-.31,2-.58,2-4.19V120.24c0-3.61-.23-3.88-2-4.19l-1.08-.19a1.1,1.1,0,0,1,0-1.34c2.07.08,4,.12,5.84.12s3.72,0,5.8-.12a1.1,1.1,0,0,1,0,1.34l-1.08.19c-1.77.31-2,.58-2,4.19Z"/><path class="cls-1" d="M507,127.19c0,8.37-5.61,13.4-13.86,13.4-7.72,0-13.32-5.07-13.32-13.09,0-7.6,5.68-13.47,13.71-13.47S507,119.4,507,127.19Zm-13.78-11.4c-4.72,0-7.26,4.41-7.26,10.83,0,4.68,1.65,12.21,7.91,12.21,5,0,7-4.91,7-11.13C500.87,121.13,498,115.79,493.23,115.79Z"/><path class="cls-1" d="M534.61,133.45c0,2.49,0,4.91.08,6.18a3,3,0,0,1-2.27.88s-1.31-2-3.11-4.18l-8.87-11a56.31,56.31,0,0,0-4.18-4.91,6.79,6.79,0,0,0-.19,2.46v7.45c0,3.11.15,6,.58,7,.35.8,1.23,1.07,2.23,1.23l1.08.15a1.22,1.22,0,0,1,0,1.34c-2.07-.08-3.61-.12-5.14-.12s-2.84,0-4.3.12a1.22,1.22,0,0,1,0-1.34l.65-.12c1-.19,1.8-.46,2.11-1.27.42-1,.54-3.92.54-7v-9.75c0-2.11,0-2.73-.27-3.26s-.84-1.11-2.19-1.3l-1.08-.15c-.27-.31-.23-1.23.15-1.34,1.8.08,3.72.12,5.3.12,1.31,0,2.42,0,3.23-.12.38,1.73,2.88,4.65,6.33,8.75l3.22,3.8c1.69,2,2.8,3.34,3.69,4.22a5.51,5.51,0,0,0,.15-1.73v-5.3c0-3.11-.15-6-.58-7-.35-.81-1.19-1.08-2.23-1.23l-1-.15a1.22,1.22,0,0,1,0-1.34c2.07.08,3.57.12,5.14.12,1.42,0,2.8,0,4.3-.12a1.22,1.22,0,0,1,0,1.34l-.69.12a2.35,2.35,0,0,0-2.07,1.27c-.42,1-.58,3.92-.58,7Z"/><path class="cls-2" d="M574.31,115a51.07,51.07,0,0,0,.46,6,1.05,1.05,0,0,1-1.46.27,7,7,0,0,0-7.22-5.49c-4.26,0-8.83,3.65-8.83,11.29s4.42,11.75,9,11.75,6.79-3.34,7.83-6a1.1,1.1,0,0,1,1.46.27,17,17,0,0,1-1.46,6,28.54,28.54,0,0,1-7.79,1.42c-3.76,0-7.6-.88-10.33-2.92a12.05,12.05,0,0,1-4.88-10.06,12.68,12.68,0,0,1,4.65-10.17A16.8,16.8,0,0,1,566.4,114,46.77,46.77,0,0,1,574.31,115Z"/><path class="cls-2" d="M586.94,124.62c0,1.07,0,1.15,1.07,1.15h2.65c2,0,2.46-.27,2.84-2.11l.19-1c.27-.31,1.23-.31,1.42,0-.08,1.23-.12,2.61-.12,4.07s0,2.84.12,4.07a1.1,1.1,0,0,1-1.42,0l-.19-1c-.38-1.84-.84-2.15-2.84-2.15H588c-1,0-1.07,0-1.07,1.19v4.57c0,1.77.15,3,.61,3.65s1.23,1,4,1c3.34,0,4.65-.12,6.76-4.45a.93.93,0,0,1,1.42.19,21.76,21.76,0,0,1-1.61,6.14c-2-.08-5.72-.12-8.87-.12h-5c-1.84,0-3.72,0-6.6.12a1.09,1.09,0,0,1,0-1.34l1.8-.27c1.73-.27,2-.5,2-4V120.13c0-3.49-.23-3.72-2-4.07l-1-.19a1,1,0,0,1,.08-1.34c1.8.08,3.69.12,5.53.12h8.14c2.46,0,4.65,0,5.14-.12,0,.62.31,3.38.5,6-.15.42-1,.5-1.42.15a8.88,8.88,0,0,0-1.46-3,5,5,0,0,0-3.76-1.19H588.2c-1.27,0-1.27.08-1.27,1.5Z"/><path class="cls-2" d="M625.9,133.45c0,2.49,0,4.91.08,6.18a3,3,0,0,1-2.27.88s-1.31-2-3.11-4.18l-8.87-11a56.31,56.31,0,0,0-4.18-4.91,6.79,6.79,0,0,0-.19,2.46v7.45c0,3.11.15,6,.58,7,.35.8,1.23,1.07,2.23,1.23l1.08.15a1.22,1.22,0,0,1,0,1.34c-2.07-.08-3.61-.12-5.14-.12s-2.84,0-4.3.12a1.22,1.22,0,0,1,0-1.34l.65-.12c1-.19,1.8-.46,2.11-1.27.42-1,.54-3.92.54-7v-9.75c0-2.11,0-2.73-.27-3.26s-.84-1.11-2.19-1.3l-1.08-.15c-.27-.31-.23-1.23.15-1.34,1.8.08,3.72.12,5.3.12,1.31,0,2.42,0,3.22-.12.38,1.73,2.88,4.65,6.33,8.75l3.22,3.8c1.69,2,2.8,3.34,3.69,4.22a5.51,5.51,0,0,0,.15-1.73v-5.3c0-3.11-.15-6-.58-7-.35-.81-1.19-1.08-2.23-1.23l-1-.15a1.22,1.22,0,0,1,0-1.34c2.07.08,3.57.12,5.14.12,1.42,0,2.8,0,4.3-.12a1.22,1.22,0,0,1,0,1.34l-.69.12a2.35,2.35,0,0,0-2.07,1.27c-.42,1-.58,3.92-.58,7Z"/><path class="cls-2" d="M640.41,117.52c0-.92,0-1.11-.92-1.11h-2.38c-2.8,0-3.61,1.54-4.76,4.34a1.08,1.08,0,0,1-1.42-.34,47,47,0,0,0,1.27-6.53.91.91,0,0,1,.54-.19.88.88,0,0,1,.54.15c.19.65.31.81,3.23.81h14.28c2.53,0,3.11,0,3.46-.84a1,1,0,0,1,.5-.12.82.82,0,0,1,.58.27,27.2,27.2,0,0,0-.58,6.6c-.19.35-1.23.42-1.42.12-.65-2.46-1.19-4.26-4.07-4.26h-2.3c-.92,0-1,.12-1,1.11v16.93c0,3.57.23,3.88,2,4.11l1.54.19a1.22,1.22,0,0,1,0,1.34c-2.5-.08-4.42-.12-6.14-.12s-3.84,0-6.53.12a1.1,1.1,0,0,1,0-1.34l1.73-.19c1.73-.19,2-.54,2-4.11Z"/><path class="cls-2" d="M666.29,124.62c0,1.07,0,1.15,1.07,1.15H670c2,0,2.46-.27,2.84-2.11l.19-1c.27-.31,1.23-.31,1.42,0-.08,1.23-.12,2.61-.12,4.07s0,2.84.12,4.07a1.1,1.1,0,0,1-1.42,0l-.19-1c-.38-1.84-.84-2.15-2.84-2.15h-2.65c-1,0-1.07,0-1.07,1.19v4.57c0,1.77.15,3,.61,3.65s1.23,1,4,1c3.34,0,4.65-.12,6.76-4.45a.93.93,0,0,1,1.42.19,21.76,21.76,0,0,1-1.61,6.14c-2-.08-5.72-.12-8.87-.12h-5c-1.84,0-3.72,0-6.6.12a1.09,1.09,0,0,1,0-1.34l1.8-.27c1.73-.27,2-.5,2-4V120.13c0-3.49-.23-3.72-2-4.07l-1-.19a1,1,0,0,1,.08-1.34c1.8.08,3.69.12,5.53.12h8.14c2.46,0,4.65,0,5.14-.12,0,.62.31,3.38.5,6-.15.42-1,.5-1.42.15a8.88,8.88,0,0,0-1.46-3,5,5,0,0,0-3.76-1.19h-3.07c-1.27,0-1.27.08-1.27,1.5Z"/><path class="cls-2" d="M684.6,120.86c0-3.84-.08-4.26-1.69-4.49l-1-.15a.87.87,0,0,1,.08-1.34c2.88-.19,5.87-.35,9.52-.35,3.26,0,6.07.5,7.52,1.38a6.29,6.29,0,0,1,3.38,5.68c0,3.42-2.3,4.88-4.07,5.76-.38.19-.38.42-.19.85,2.53,5.14,4.11,8,6,9.6a4.68,4.68,0,0,0,2.57,1.07.73.73,0,0,1,.15,1,9.23,9.23,0,0,1-3,.35c-3.53,0-5.76-1.27-7.45-4a48.13,48.13,0,0,1-3-5.95,2,2,0,0,0-2-1.34c-1.34,0-1.42.08-1.42.84v4.72c0,3.53.23,3.8,2,4.11l1,.19a1.22,1.22,0,0,1,0,1.34c-2-.08-3.8-.12-5.64-.12s-3.61,0-5.61.12a1.1,1.1,0,0,1,0-1.34l1-.19c1.73-.31,2-.58,2-4.11Zm5.26,4.88c0,1.34.12,1.46,2.38,1.46a3.68,3.68,0,0,0,2.92-1.08,5.58,5.58,0,0,0,1.38-4.15c0-3.46-2-5.68-5-5.68-1.57,0-1.65.12-1.65,2Z"/><path class="cls-3" d="M454.93,155.79a6.71,6.71,0,0,1,6.92-6.86,6.39,6.39,0,0,1,6.74,6.66,6.63,6.63,0,0,1-6.74,6.78A6.54,6.54,0,0,1,454.93,155.79Zm11.71.41c0-3.21-1.42-6.66-5.13-6.66-2,0-4.64,1.38-4.64,5.63,0,2.88,1.4,6.6,5.23,6.6C464.43,161.77,466.65,160,466.65,156.2Z"/><path class="cls-3" d="M471.79,156.49c0-.76,0-.85-.52-1.2l-.17-.12a.27.27,0,0,1,0-.35,10.53,10.53,0,0,0,1.94-1,.23.23,0,0,1,.21.14c0,.45,0,.74,0,.91a.2.2,0,0,0,.21.21,5.33,5.33,0,0,1,2.72-1,2.16,2.16,0,0,1,2.27,2.41v3.34c0,1.4,0,1.59.74,1.69l.43.06a.34.34,0,0,1,0,.49c-.58,0-1.15-.06-1.83-.06s-1.28,0-1.81.06a.34.34,0,0,1,0-.49l.37-.06c.72-.12.74-.29.74-1.69V157a1.68,1.68,0,0,0-1.83-1.92,2.12,2.12,0,0,0-1.65.68,1.64,1.64,0,0,0-.29,1.17v3c0,1.4,0,1.57.74,1.69l.35.06a.34.34,0,0,1,0,.49c-.52,0-1.09-.06-1.77-.06s-1.28,0-1.83.06a.34.34,0,0,1,0-.49l.41-.06c.72-.1.74-.29.74-1.69Z"/><path class="cls-3" d="M483.13,157.09c-.51,0-.52,0-.52.52,0,2,1.15,3.63,3.22,3.63a2.09,2.09,0,0,0,1.79-1,.26.26,0,0,1,.35.23,3.4,3.4,0,0,1-3,1.81,3.48,3.48,0,0,1-2.82-1.28,4.13,4.13,0,0,1-.82-2.53c0-2.39,1.57-4.39,3.9-4.39a2.54,2.54,0,0,1,2.76,2.31,1.2,1.2,0,0,1-.08.5c-.06.12-.33.14-1.15.14Zm1.2-.58c1.44,0,1.86-.08,2-.19s.12-.12.12-.37c0-.54-.37-1.22-1.5-1.22a2.28,2.28,0,0,0-2.16,1.69s0,.1.14.1Z"/><path class="cls-3" d="M497.5,150.58a8.37,8.37,0,0,1,5.24-1.65,15,15,0,0,1,3.44.47,1.46,1.46,0,0,0,.54.08c0,.45.12,1.67.27,2.86a.41.41,0,0,1-.52,0c-.29-1.32-1.17-2.84-4-2.84-3,0-5.5,1.88-5.5,5.9s2.58,6.33,5.77,6.33a4.14,4.14,0,0,0,4.06-2.78.41.41,0,0,1,.5.08,7.31,7.31,0,0,1-.93,2.66,3.89,3.89,0,0,0-.68.19,11.45,11.45,0,0,1-3.07.45,8.51,8.51,0,0,1-4.84-1.3,6.26,6.26,0,0,1-2.76-5.34A6.45,6.45,0,0,1,497.5,150.58Z"/><path class="cls-3" d="M517,158.16a4,4,0,0,1-4.1,4.18,3.84,3.84,0,0,1-4-4,4.08,4.08,0,0,1,4.14-4.2A3.88,3.88,0,0,1,517,158.16Zm-4.18-3.44c-1.28,0-2.23,1.22-2.23,3.36,0,1.77.8,3.67,2.51,3.67s2.23-1.79,2.23-3.28C515.33,156.82,514.67,154.72,512.82,154.72Z"/><path class="cls-3" d="M530.4,157.07c0-1.32-.58-2-1.81-2a2.09,2.09,0,0,0-1.61.68c-.23.29-.29.49-.29,1.17v3c0,1.4,0,1.59.74,1.69l.41.06a.34.34,0,0,1,0,.49c-.58,0-1.15-.06-1.83-.06s-1.22,0-1.77.06a.34.34,0,0,1,0-.49l.35-.06c.72-.12.74-.29.74-1.69v-2.82c0-1.3-.58-2-1.79-2a2.08,2.08,0,0,0-1.63.7,1.51,1.51,0,0,0-.29,1.11v3c0,1.4,0,1.57.74,1.69l.35.06a.34.34,0,0,1,0,.49c-.52,0-1.09-.06-1.77-.06s-1.28,0-1.88.06a.34.34,0,0,1,0-.49l.47-.06c.72-.1.74-.29.74-1.69v-3.4c0-.76,0-.85-.52-1.2l-.17-.12a.27.27,0,0,1,0-.35,10.53,10.53,0,0,0,1.94-1,.23.23,0,0,1,.21.14c0,.45,0,.74,0,.91a.2.2,0,0,0,.21.21,4.67,4.67,0,0,1,2.58-1,2.22,2.22,0,0,1,2.06,1.15.61.61,0,0,0,.49-.16,4.87,4.87,0,0,1,2.64-1,2.2,2.2,0,0,1,2.31,2.41v3.34c0,1.4,0,1.59.74,1.69l.47.06a.34.34,0,0,1,0,.49c-.64,0-1.2-.06-1.88-.06s-1.22,0-1.77.06a.34.34,0,0,1,0-.49l.35-.06c.72-.12.74-.29.74-1.69Z"/><path class="cls-3" d="M546.21,157.07c0-1.32-.58-2-1.81-2a2.09,2.09,0,0,0-1.61.68c-.23.29-.29.49-.29,1.17v3c0,1.4,0,1.59.74,1.69l.41.06a.34.34,0,0,1,0,.49c-.58,0-1.15-.06-1.83-.06s-1.22,0-1.77.06a.34.34,0,0,1,0-.49l.35-.06c.72-.12.74-.29.74-1.69v-2.82c0-1.3-.58-2-1.79-2a2.08,2.08,0,0,0-1.63.7,1.51,1.51,0,0,0-.29,1.11v3c0,1.4,0,1.57.74,1.69l.35.06a.34.34,0,0,1,0,.49c-.52,0-1.09-.06-1.77-.06s-1.28,0-1.88.06a.34.34,0,0,1,0-.49l.47-.06c.72-.1.74-.29.74-1.69v-3.4c0-.76,0-.85-.52-1.2l-.17-.12a.27.27,0,0,1,0-.35,10.53,10.53,0,0,0,1.94-1,.23.23,0,0,1,.21.14c0,.45,0,.74,0,.91a.2.2,0,0,0,.21.21,4.67,4.67,0,0,1,2.58-1,2.22,2.22,0,0,1,2.06,1.15.61.61,0,0,0,.49-.16,4.87,4.87,0,0,1,2.64-1,2.2,2.2,0,0,1,2.31,2.41v3.34c0,1.4,0,1.59.74,1.69l.47.06a.34.34,0,0,1,0,.49c-.64,0-1.2-.06-1.88-.06s-1.22,0-1.77.06a.34.34,0,0,1,0-.49l.35-.06c.72-.12.74-.29.74-1.69Z"/><path class="cls-3" d="M552.9,159.21c0,1.34.33,2.23,1.81,2.23a2.54,2.54,0,0,0,1.57-.58,1.35,1.35,0,0,0,.39-1.13v-3.19c0-1.26-.14-1.3-.72-1.53l-.25-.1a.26.26,0,0,1,0-.43,7.76,7.76,0,0,0,2.27-.35c.1,0,.16.06.17.14,0,.37-.06,1-.06,1.69v3.26c0,1.53.06,2.12.6,2.12a3.72,3.72,0,0,0,.76-.1c.12.1.14.49,0,.56a10.12,10.12,0,0,0-2.54.72.27.27,0,0,1-.23-.14v-.8c0-.17-.06-.27-.17-.27a5.08,5.08,0,0,1-2.68,1c-1.71,0-2.35-.85-2.35-2.43v-3.24c0-1.22,0-1.4-.58-1.65l-.23-.1a.29.29,0,0,1,0-.43,6.88,6.88,0,0,0,2.08-.35c.12,0,.17.06.19.14a14.55,14.55,0,0,0-.06,1.69Z"/><path class="cls-3" d="M562.18,156.49c0-.76,0-.85-.52-1.2l-.17-.12a.27.27,0,0,1,0-.35,10.53,10.53,0,0,0,1.94-1,.23.23,0,0,1,.21.14c0,.45,0,.74,0,.91a.2.2,0,0,0,.21.21,5.33,5.33,0,0,1,2.72-1,2.16,2.16,0,0,1,2.27,2.41v3.34c0,1.4,0,1.59.74,1.69l.43.06a.34.34,0,0,1,0,.49c-.58,0-1.15-.06-1.83-.06s-1.28,0-1.81.06a.34.34,0,0,1,0-.49l.37-.06c.72-.12.74-.29.74-1.69V157a1.68,1.68,0,0,0-1.83-1.92,2.12,2.12,0,0,0-1.65.68,1.64,1.64,0,0,0-.29,1.17v3c0,1.4,0,1.57.74,1.69l.35.06a.34.34,0,0,1,0,.49c-.52,0-1.09-.06-1.77-.06s-1.28,0-1.83.06a.34.34,0,0,1,0-.49l.41-.06c.72-.1.74-.29.74-1.69Z"/><path class="cls-3" d="M572.9,156.49c0-.76,0-.85-.52-1.2l-.17-.12a.27.27,0,0,1,0-.35,13.28,13.28,0,0,0,2-1c.1,0,.17,0,.19.12,0,.68-.08,1.61-.08,2.41v3.5c0,1.4,0,1.59.74,1.69l.41.06a.34.34,0,0,1,0,.49c-.58,0-1.15-.06-1.83-.06s-1.28,0-1.83.06a.34.34,0,0,1,0-.49l.41-.06c.72-.1.74-.29.74-1.69Zm1.61-5.54a1,1,0,0,1-2,0,1,1,0,0,1,1-1A1,1,0,0,1,574.51,151Z"/><path class="cls-3" d="M580,155.23c-.33,0-.35.06-.35.47v3.63c0,1.13.14,2.16,1.42,2.16a1.48,1.48,0,0,0,.52-.1c.17-.06.43-.27.49-.27s.23.21.19.33a2.69,2.69,0,0,1-2,.89c-1.67,0-2-.93-2-2.1v-4.45c0-.52,0-.56-.41-.56h-.54a.32.32,0,0,1-.06-.41,3.86,3.86,0,0,0,1.24-.6,4.81,4.81,0,0,0,.82-1.15c.1,0,.33,0,.41.1V154c0,.35,0,.37.35.37h2.16a.62.62,0,0,1,0,.82Z"/><path class="cls-3" d="M583.47,166.06a.72.72,0,0,1,.78-.78h.37a.7.7,0,0,0,.64-.35,12.4,12.4,0,0,0,1.13-2.16,3,3,0,0,0,.19-.83,3.69,3.69,0,0,0-.33-1.34l-1.51-4.16c-.33-.91-.47-1.38-1.15-1.52l-.49-.1c-.12-.1-.1-.43.06-.49.62,0,1.2.06,1.85.06s1.07,0,1.69-.06c.16.06.17.39,0,.49l-.49.1c-.27.06-.43.12-.43.25a14.69,14.69,0,0,0,.56,1.83l.62,1.79a10.82,10.82,0,0,0,.56,1.38,9.58,9.58,0,0,0,.72-1.44l.66-1.54a9,9,0,0,0,.68-1.94c0-.14-.12-.27-.47-.33l-.6-.1c-.14-.1-.12-.43,0-.49.62,0,1.2.06,1.71.06s.93,0,1.48-.06a.33.33,0,0,1,0,.49l-.33.06c-.64.12-1,.68-1.65,2.06l-1.09,2.23c-.64,1.3-2.23,4.68-3.19,6.8a1.29,1.29,0,0,1-1.24.91A.78.78,0,0,1,583.47,166.06Z"/><path class="cls-3" d="M594.11,161.6c0,1.53-1.17,2.41-2.53,2.82a.32.32,0,0,1-.12-.47c.6-.19,1.59-.68,1.59-1.69,0-.82-.93-1-1.11-1.13a.58.58,0,0,1-.33-.56.88.88,0,0,1,1-.87A1.71,1.71,0,0,1,594.11,161.6Z"/><path class="cls-3" d="M614.07,158.76c0,.58,0,2.89.06,3.4a.35.35,0,0,1-.37.21c-.23-.33-.8-1-2.49-2.93l-4.51-5.13c-.52-.6-1.85-2.2-2.25-2.62h0a4.94,4.94,0,0,0-.1,1.26v4.23a15.19,15.19,0,0,0,.35,4c.12.21.5.33,1,.37l.6.06a.36.36,0,0,1,0,.49c-.87,0-1.55-.06-2.27-.06s-1.34,0-2,.06a.36.36,0,0,1,0-.49l.52-.06c.45-.06.76-.17.85-.39a18.76,18.76,0,0,0,.25-4v-5.61a1.78,1.78,0,0,0-.43-1.4,2.1,2.1,0,0,0-1.2-.47l-.33,0c-.12-.12-.12-.41,0-.49.82.06,1.85.06,2.19.06a6.39,6.39,0,0,0,.89-.06,26.75,26.75,0,0,0,3.32,4.27l1.88,2.12c1.34,1.5,2.29,2.58,3.21,3.52h0a2,2,0,0,0,.08-.82v-4.16c0-.91,0-3.44-.39-4-.12-.17-.43-.29-1.2-.39l-.33,0c-.14-.12-.12-.43,0-.49.89,0,1.55.06,2.29.06s1.34,0,2-.06a.34.34,0,0,1,0,.49l-.27,0c-.62.1-1,.25-1.09.41a15.68,15.68,0,0,0-.29,4Z"/><path class="cls-3" d="M625,158.16a4,4,0,0,1-4.1,4.18,3.84,3.84,0,0,1-4-4,4.08,4.08,0,0,1,4.14-4.2A3.88,3.88,0,0,1,625,158.16Zm-4.18-3.44c-1.28,0-2.23,1.22-2.23,3.36,0,1.77.8,3.67,2.51,3.67s2.23-1.79,2.23-3.28C623.37,156.82,622.71,154.72,620.87,154.72Z"/><path class="cls-3" d="M634.11,152.16c0-2,0-2.31-1.19-2.45l-.31,0c-.12-.08-.08-.43,0-.49.84,0,1.5.06,2.29.06h3.65c1.24,0,2.39,0,2.62-.06a21.78,21.78,0,0,1,.31,2.58.38.38,0,0,1-.49,0c-.29-.91-.47-1.59-1.48-1.85a9.32,9.32,0,0,0-1.88-.12h-1.4c-.58,0-.58,0-.58.78v3.89c0,.54.06.54.64.54h1.13a7.19,7.19,0,0,0,1.65-.12c.23-.08.37-.19.47-.68l.16-.8a.38.38,0,0,1,.5,0c0,.47-.08,1.22-.08,2s.08,1.44.08,1.87a.38.38,0,0,1-.5,0l-.17-.76a.83.83,0,0,0-.6-.74,6.54,6.54,0,0,0-1.5-.1h-1.13c-.58,0-.64,0-.64.52V159c0,1,.06,1.69.37,2s.64.45,2.35.45a5.68,5.68,0,0,0,2.49-.29,4.88,4.88,0,0,0,1.38-1.88.36.36,0,0,1,.49.14,16.92,16.92,0,0,1-.87,2.7c-1.75,0-3.48-.06-5.21-.06h-1.75c-.84,0-1.5,0-2.64.06a.38.38,0,0,1,0-.49l.64-.06c1.11-.1,1.2-.39,1.2-2.43Z"/><path class="cls-3" d="M645.06,155.73a1.73,1.73,0,0,0-1.17-.84l-.31-.06c-.12-.1-.1-.43,0-.49.76,0,1.2.06,1.69.06s.89,0,1.65-.06a.36.36,0,0,1,0,.49l-.29.06c-.52.1-.51.21-.17.68l.93,1.36a2.93,2.93,0,0,0,.25.33c.08-.06.72-1,1.13-1.65s.27-.6-.16-.72l-.23-.06a.34.34,0,0,1,.08-.49c.45,0,1,.06,1.42.06s1,0,1.42-.06a.34.34,0,0,1,0,.49l-.29.06a2.25,2.25,0,0,0-1,.33,17.51,17.51,0,0,0-1.83,2.21c-.23.31-.23.37,0,.72l1.81,2.54c.45.62.76.87,1.28.91l.31,0c.12.12.1.43,0,.49q-1.08-.06-1.92-.06c-.72,0-1.22,0-1.85.06a.33.33,0,0,1-.06-.49l.56-.06c.56-.06.58-.23.33-.58l-1-1.46a2.85,2.85,0,0,0-.43-.56,3.45,3.45,0,0,0-.35.47l-.82,1.28c-.39.62-.43.78.06.85l.33.06c.12.1.1.43,0,.49-.49,0-1-.06-1.44-.06s-.91,0-1.42.06a.33.33,0,0,1,0-.49l.45-.08a1.64,1.64,0,0,0,1-.58c.41-.43,1.28-1.73,1.73-2.27.17-.21.21-.29.06-.5Z"/><path class="cls-3" d="M659.18,154.47a1.1,1.1,0,0,1,.29.78c0,.35-.19.72-.43.72a.34.34,0,0,1-.27-.14,2.65,2.65,0,0,0-1.94-1c-1.36,0-2.68,1.07-2.68,3.13a3.19,3.19,0,0,0,3.13,3.32,2.37,2.37,0,0,0,2.16-1.17.31.31,0,0,1,.35.27,3.54,3.54,0,0,1-3.24,2,3.77,3.77,0,0,1-2.66-1,3.87,3.87,0,0,1-1.13-2.87,4.32,4.32,0,0,1,4.7-4.33A4.84,4.84,0,0,1,659.18,154.47Z"/><path class="cls-3" d="M663.49,159.89c0,1.4,0,1.59.74,1.69l.47.06a.34.34,0,0,1,0,.49c-.64,0-1.2-.06-1.88-.06s-1.28,0-1.86.06a.34.34,0,0,1,0-.49l.45-.06c.72-.1.74-.29.74-1.69v-8.78c0-1.15,0-1.26-.6-1.61l-.19-.12a.29.29,0,0,1,0-.39,13.88,13.88,0,0,0,2.1-.82.21.21,0,0,1,.19.12c0,.58-.06,1.55-.06,2.41Z"/><path class="cls-3" d="M668.75,159.21c0,1.34.33,2.23,1.81,2.23a2.54,2.54,0,0,0,1.57-.58,1.35,1.35,0,0,0,.39-1.13v-3.19c0-1.26-.14-1.3-.72-1.53l-.25-.1a.26.26,0,0,1,0-.43,7.76,7.76,0,0,0,2.27-.35c.1,0,.16.06.17.14,0,.37-.06,1-.06,1.69v3.26c0,1.53.06,2.12.6,2.12a3.72,3.72,0,0,0,.76-.1c.12.1.14.49,0,.56a10.12,10.12,0,0,0-2.54.72.27.27,0,0,1-.23-.14v-.8c0-.17-.06-.27-.17-.27a5.08,5.08,0,0,1-2.68,1c-1.71,0-2.35-.85-2.35-2.43v-3.24c0-1.22,0-1.4-.58-1.65l-.23-.1a.29.29,0,0,1,0-.43,6.88,6.88,0,0,0,2.08-.35c.12,0,.17.06.19.14a14.55,14.55,0,0,0-.06,1.69Z"/><path class="cls-3" d="M681.45,154.49a4.53,4.53,0,0,1,.31,1.57.34.34,0,0,1-.47.06,1.89,1.89,0,0,0-1.71-1.42,1.15,1.15,0,0,0-1.24,1.19c0,.8.82,1.22,1.5,1.61,1,.58,2,1.24,2,2.62s-1.36,2.21-2.8,2.21a3.23,3.23,0,0,1-2.08-.58,5.79,5.79,0,0,1-.23-2,.33.33,0,0,1,.45,0c.33,1.07,1,2,2.06,2a1.2,1.2,0,0,0,1.3-1.24c0-.89-.78-1.38-1.5-1.79-1.13-.64-1.92-1.32-1.92-2.39,0-1.42,1.17-2.21,2.64-2.21A3.44,3.44,0,0,1,681.45,154.49Z"/><path class="cls-3" d="M684.83,156.49c0-.76,0-.85-.52-1.2l-.17-.12a.27.27,0,0,1,0-.35,13.28,13.28,0,0,0,2-1,.18.18,0,0,1,.19.12c0,.68-.08,1.61-.08,2.41v3.5c0,1.4,0,1.59.74,1.69l.41.06a.34.34,0,0,1,0,.49c-.58,0-1.15-.06-1.83-.06s-1.28,0-1.83.06a.34.34,0,0,1,0-.49l.41-.06c.72-.1.74-.29.74-1.69Zm1.61-5.54a1,1,0,0,1-2,0,1,1,0,0,1,1-1A1,1,0,0,1,686.44,151Z"/><path class="cls-3" d="M697.2,158.16a4,4,0,0,1-4.1,4.18,3.84,3.84,0,0,1-4-4,4.08,4.08,0,0,1,4.14-4.2A3.88,3.88,0,0,1,697.2,158.16ZM693,154.72c-1.28,0-2.23,1.22-2.23,3.36,0,1.77.8,3.67,2.51,3.67s2.23-1.79,2.23-3.28C695.53,156.82,694.87,154.72,693,154.72Z"/><path class="cls-3" d="M700.31,156.49c0-.76,0-.85-.52-1.2l-.17-.12a.27.27,0,0,1,0-.35,10.53,10.53,0,0,0,1.94-1,.23.23,0,0,1,.21.14c0,.45,0,.74,0,.91a.2.2,0,0,0,.21.21,5.33,5.33,0,0,1,2.72-1,2.16,2.16,0,0,1,2.27,2.41v3.34c0,1.4,0,1.59.74,1.69l.43.06a.34.34,0,0,1,0,.49c-.58,0-1.15-.06-1.83-.06s-1.28,0-1.81.06a.34.34,0,0,1,0-.49l.37-.06c.72-.12.74-.29.74-1.69V157a1.68,1.68,0,0,0-1.83-1.92,2.12,2.12,0,0,0-1.65.68,1.64,1.64,0,0,0-.29,1.17v3c0,1.4,0,1.57.74,1.69l.35.06a.34.34,0,0,1,0,.49c-.52,0-1.09-.06-1.77-.06s-1.28,0-1.83.06a.34.34,0,0,1,0-.49l.41-.06c.72-.1.74-.29.74-1.69Z"/><rect class="cls-4" x="85.5" y="157.98" width="362.5" height="1"/><path class="cls-1" d="M280,203.64c0-.6,0-.68-.42-1l-.14-.09a.21.21,0,0,1,0-.28,9.33,9.33,0,0,0,1.53-.83.17.17,0,0,1,.19.11,6.92,6.92,0,0,0-.06.71c0,.11,0,.2.14.2a4.9,4.9,0,0,1,2.16-.72,2.61,2.61,0,0,1,2.56,2.82,3.59,3.59,0,0,1-3.76,3.68,5.81,5.81,0,0,1-.85-.06c-.14,0-.22.11-.22.43v1.62c0,1.1,0,1.23.59,1.31l.6.08a.27.27,0,0,1,0,.39c-.74,0-1.19,0-1.73,0s-1,0-1.45,0a.27.27,0,0,1,0-.39l.32,0c.57-.08.59-.23.59-1.34Zm1.14,2.87a1,1,0,0,0,.46.92,2,2,0,0,0,1.11.34c1.26,0,2-1.17,2-2.78a2.23,2.23,0,0,0-2.08-2.48,1.9,1.9,0,0,0-1.31.43c-.14.17-.19.4-.19.91Z"/><path class="cls-1" d="M293.86,205a3.15,3.15,0,0,1-3.25,3.31,3,3,0,0,1-3.16-3.18,3.24,3.24,0,0,1,3.28-3.33A3.08,3.08,0,0,1,293.86,205Zm-3.32-2.73c-1,0-1.77,1-1.77,2.67,0,1.4.63,2.91,2,2.91s1.77-1.42,1.77-2.61S292,202.24,290.54,202.24Z"/><path class="cls-1" d="M295.78,203.49c-.35-.86-.54-1-.93-1.11l-.25-.06c-.08-.08-.09-.31,0-.37.48,0,.91,0,1.37,0s.93,0,1.34,0a.24.24,0,0,1,0,.37l-.35.06c-.22,0-.34.12-.34.22a3.16,3.16,0,0,0,.25.8l1,2.36c.14.36.28.63.28.66a3.45,3.45,0,0,0,.35-.74l.76-1.87c.2-.49.22-.69.14-.89a.87.87,0,0,0-.71-.54l-.25-.06a.24.24,0,0,1,0-.37c.39,0,.88,0,1.28,0s.94,0,1.47,0c.14,0,.14.29,0,.37l-.32.06c-.62.12-.59.17-.4.71s1,2.47,1.17,2.88a1.61,1.61,0,0,0,.2.43,2.52,2.52,0,0,0,.22-.43c.2-.45.82-2.08,1-2.73a2.21,2.21,0,0,0,.15-.66c0-.09-.09-.17-.28-.2l-.39-.06a.24.24,0,0,1,0-.37c.45,0,.83,0,1.22,0s.66,0,1,0a.26.26,0,0,1,0,.37l-.31.06c-.37.08-.51.29-.83,1-.42.86-1.16,2.71-1.45,3.5-.22.56-.4,1-.52,1.4a.31.31,0,0,1-.2.06.23.23,0,0,1-.17-.06c-.09-.28-.37-1.08-.63-1.7l-.74-1.77a7.91,7.91,0,0,0-.35-.79,7.16,7.16,0,0,0-.34.76l-.8,1.93c-.28.66-.49,1.22-.62,1.57a.25.25,0,0,1-.19.06.27.27,0,0,1-.18-.06c-.09-.32-.34-1-.46-1.28Z"/><path class="cls-1" d="M307.13,204.12c-.4,0-.42,0-.42.42a2.61,2.61,0,0,0,2.56,2.88,1.66,1.66,0,0,0,1.42-.76.2.2,0,0,1,.28.19,2.7,2.7,0,0,1-2.42,1.43,2.76,2.76,0,0,1-2.24-1,3.28,3.28,0,0,1-.65-2,3.24,3.24,0,0,1,3.1-3.48,2,2,0,0,1,2.19,1.83,1,1,0,0,1-.06.4c0,.09-.26.11-.91.11Zm1-.46c1.14,0,1.48-.06,1.6-.15s.09-.09.09-.29c0-.43-.29-1-1.19-1a1.81,1.81,0,0,0-1.71,1.34s0,.08.11.08Z"/><path class="cls-1" d="M313.15,203.64c0-.6,0-.68-.42-1l-.14-.09a.21.21,0,0,1,0-.28,11.86,11.86,0,0,0,1.56-.76c.08,0,.12,0,.12.11v.89c0,.08,0,.12,0,.14a3.11,3.11,0,0,1,1.7-.92.64.64,0,0,1,.69.62.68.68,0,0,1-.66.71.59.59,0,0,1-.34-.11,1.26,1.26,0,0,0-.68-.25.68.68,0,0,0-.56.31,2.34,2.34,0,0,0-.2,1.19v2.1c0,1.11,0,1.3.62,1.34l.56,0a.27.27,0,0,1,0,.39c-.72,0-1.17,0-1.71,0s-1,0-1.42,0a.27.27,0,0,1,0-.39l.29,0c.57-.09.59-.23.59-1.34Z"/><path class="cls-1" d="M319,204.12c-.4,0-.42,0-.42.42a2.61,2.61,0,0,0,2.56,2.88,1.66,1.66,0,0,0,1.42-.76.2.2,0,0,1,.28.19,2.7,2.7,0,0,1-2.42,1.43,2.76,2.76,0,0,1-2.24-1,3.28,3.28,0,0,1-.65-2,3.24,3.24,0,0,1,3.1-3.48,2,2,0,0,1,2.19,1.83,1,1,0,0,1-.06.4c0,.09-.26.11-.91.11Zm1-.46c1.14,0,1.48-.06,1.6-.15s.09-.09.09-.29c0-.43-.29-1-1.19-1a1.81,1.81,0,0,0-1.71,1.34s0,.08.11.08Z"/><path class="cls-1" d="M330.08,205.82c0,1.22,0,1.79.45,1.79a2.5,2.5,0,0,0,.66-.15c.11,0,.12.42,0,.49a11.62,11.62,0,0,0-2,.49c-.09,0-.17,0-.17-.12v-.26a1.7,1.7,0,0,0,0-.48h-.06a3.21,3.21,0,0,1-1.94.71,2.83,2.83,0,0,1-2.85-3,3.5,3.5,0,0,1,3.73-3.55,3.15,3.15,0,0,1,1,.14c.08,0,.09-.09.09-.22v-2.33c0-.91,0-1-.48-1.28l-.15-.09a.23.23,0,0,1,0-.31A11,11,0,0,0,330,197a.17.17,0,0,1,.15.09c0,.46,0,1.23,0,1.91Zm-1.14-2.31a.9.9,0,0,0-.17-.6,1.61,1.61,0,0,0-1.3-.65c-1.4,0-2.13,1.22-2.13,2.56s.79,2.73,2.3,2.73a1.89,1.89,0,0,0,1.19-.43.94.94,0,0,0,.11-.57Z"/><path class="cls-1" d="M337.23,199.37c0-.91,0-1-.48-1.28l-.15-.09a.23.23,0,0,1,0-.31,14.22,14.22,0,0,0,1.68-.65.17.17,0,0,1,.15.09c0,.54-.06,1.23-.06,1.91V202c0,.26.06.32.15.32a3.56,3.56,0,0,1,1.77-.51,2.89,2.89,0,0,1,2.95,3,3.38,3.38,0,0,1-3.55,3.48,4.42,4.42,0,0,1-1.31-.2,3.3,3.3,0,0,0-.65-.2c-.12,0-.25.12-.32.23s0,0-.06,0a.17.17,0,0,1-.15-.09c0-.22,0-.51,0-1.31Zm1.14,6.6a2.13,2.13,0,0,0,.39,1.34,1.47,1.47,0,0,0,1.17.51c1.45,0,2-1.23,2-2.56,0-1.59-.82-2.82-2.34-2.82a2,2,0,0,0-1,.25c-.15.11-.19.28-.19.88Z"/><path class="cls-1" d="M344.48,211.25a.57.57,0,0,1,.62-.62h.29a.56.56,0,0,0,.51-.28,9.84,9.84,0,0,0,.89-1.71,2.34,2.34,0,0,0,.15-.66,2.93,2.93,0,0,0-.26-1.06l-1.2-3.3c-.26-.72-.37-1.1-.91-1.2l-.39-.08c-.09-.08-.08-.34,0-.39.49,0,1,0,1.46,0s.85,0,1.34,0c.12,0,.14.31,0,.39l-.39.08c-.22,0-.34.09-.34.2a11.66,11.66,0,0,0,.45,1.45l.49,1.42a8.59,8.59,0,0,0,.45,1.1,7.6,7.6,0,0,0,.57-1.14l.52-1.22a7.16,7.16,0,0,0,.54-1.54c0-.11-.09-.22-.37-.26l-.48-.08c-.11-.08-.09-.34,0-.39.49,0,1,0,1.36,0s.74,0,1.17,0a.26.26,0,0,1,0,.39l-.26,0c-.51.09-.79.54-1.31,1.63l-.86,1.77c-.51,1-1.77,3.72-2.53,5.4a1,1,0,0,1-1,.72A.62.62,0,0,1,344.48,211.25Z"/><circle class="cls-5" cx="367.42" cy="194.18" r="2.04"/><circle class="cls-5" cx="373.62" cy="194.18" r="2.04"/><circle class="cls-5" cx="367.42" cy="200.39" r="2.04"/><circle class="cls-5" cx="373.62" cy="200.39" r="2.04"/><circle class="cls-5" cx="379.82" cy="200.39" r="2.04"/><path class="cls-5" d="M375.66,206.59a2,2,0,1,1-2-2A2.08,2.08,0,0,1,375.66,206.59Z"/><path class="cls-5" d="M381.87,206.59a2,2,0,1,1-2-2A2.08,2.08,0,0,1,381.87,206.59Z"/><path class="cls-5" d="M387.91,206.27a7,7,0,0,0,1.49.55,3.9,3.9,0,0,0,1.26.24,2.8,2.8,0,0,0,1.81-.63,2,2,0,0,0,.63-1.65,3.07,3.07,0,0,0-.79-1.49,11.32,11.32,0,0,0-2.12-1.57c-.47-.31-.86-.55-1.26-.86s-.71-.55-.86-.71a3.26,3.26,0,0,1-.94-1.57c0-.16-.08-.47-.08-.79a3.1,3.1,0,0,1,1.33-2.67,6.41,6.41,0,0,1,3.53-.94,10.88,10.88,0,0,1,3.14.47v1.88a4.55,4.55,0,0,0-2.36-.55,3.08,3.08,0,0,0-1.81.47,1.72,1.72,0,0,0-.71,1.49,1.76,1.76,0,0,0,.63,1.18,4.94,4.94,0,0,0,.86.63c.31.24.79.55,1.33.94a13.87,13.87,0,0,1,2.36,2,3.94,3.94,0,0,1,.63.94,2.42,2.42,0,0,1,.24,1,3.9,3.9,0,0,1-.71,2.43,4.29,4.29,0,0,1-1.88,1.41,6.8,6.8,0,0,1-2.51.47,6.25,6.25,0,0,1-3-.63Z"/><path class="cls-5" d="M397.65,202.9a4,4,0,0,1,1.33-3A4.75,4.75,0,0,1,402,199a5.1,5.1,0,0,1,3.38,1q1.18,1.06,1.18,3.77v.71a3.87,3.87,0,0,1-4.4,4.32,5.74,5.74,0,0,1-2.51-.47,3.23,3.23,0,0,1-1.49-1.57,5.39,5.39,0,0,1-.55-2.67A5.67,5.67,0,0,1,397.65,202.9Zm2.67.94a6.41,6.41,0,0,0,.39,2.51,1.36,1.36,0,0,0,1.41.79h.24a1.46,1.46,0,0,0,1.26-.94,6.5,6.5,0,0,0,.31-2.43v-.86c0-.16-.08-.39-.08-.55s-.08-.39-.08-.55a1.88,1.88,0,0,0-.55-.94,1.55,1.55,0,0,0-1.1-.39,1.41,1.41,0,0,0-1.41.86,3.89,3.89,0,0,0-.31,1,6.35,6.35,0,0,0-.08,1.26C400.24,203.68,400.31,203.76,400.31,203.84Z"/><path class="cls-5" d="M414.6,206.75v1.73a6.77,6.77,0,0,1-2.2.31,3.73,3.73,0,0,1-3.38-1.41,5.67,5.67,0,0,1-.71-1.57,8,8,0,0,1-.16-3.06l.24-1.18a3.65,3.65,0,0,1,1.26-1.88,4.19,4.19,0,0,1,2.83-.79,5.32,5.32,0,0,1,2,.31V201a1.92,1.92,0,0,0-1.41-.47,1.75,1.75,0,0,0-1.49.55,2,2,0,0,0-.55,1.18,3.46,3.46,0,0,0-.16.79v.86a6.06,6.06,0,0,0,.16,1.18c.08.39.24.71.31,1a1.85,1.85,0,0,0,.63.71,2.51,2.51,0,0,0,1.1.24,2,2,0,0,0,.71-.08A1.33,1.33,0,0,0,414.6,206.75Z"/><path class="cls-5" d="M416,196.23a1,1,0,0,1,.55-.86,2.37,2.37,0,0,1,1.26-.39,2.17,2.17,0,0,1,1.26.39,1.08,1.08,0,0,1,.47.86,1,1,0,0,1-.47.79,1.93,1.93,0,0,1-1.18.39,2.25,2.25,0,0,1-1.33-.31C416.17,196.78,416,196.54,416,196.23Zm3.14,2.83v9.58h-2.67v-9.58Z"/><path class="cls-5" d="M426.14,208.47a3.31,3.31,0,0,1-1.57.31,3.05,3.05,0,0,1-1.81-.55,2.77,2.77,0,0,1-1.18-1.33c-.16-.39-.24-.86-.39-1.33a10.82,10.82,0,0,1-.16-1.73,13,13,0,0,1,.16-1.88,3.75,3.75,0,0,1,.47-1.41,3.05,3.05,0,0,1,1.18-1.26,3.57,3.57,0,0,1,1.57-.39,4.22,4.22,0,0,1,1.73.31,1.48,1.48,0,0,1,.94.86l.08-1.1h2.67v9.66h-2.75v-1.18A2.35,2.35,0,0,1,426.14,208.47Zm-2-7.07a10.24,10.24,0,0,0-.24,1,9.52,9.52,0,0,0-.08,1.57,7.63,7.63,0,0,0,.08,1.41,2.65,2.65,0,0,0,.31.94,1.71,1.71,0,0,0,.55.71,1.58,1.58,0,0,0,.86.24,1.85,1.85,0,0,0,1-.39,1.5,1.5,0,0,0,.55-1.1v-1.18c0-.31.08-.63.08-.79v-1a5.4,5.4,0,0,0-.16-1,1.13,1.13,0,0,0-.55-.86,2.23,2.23,0,0,0-.94-.31A1.42,1.42,0,0,0,424.18,201.41Z"/><path class="cls-5" d="M435.09,192.93v15.7h-2.67v-15.7Z"/><path class="cls-5" d="M443.89,194.42h7.62v1.65h-4.79v4.47H451v1.65h-4.32v4.87h4.79v1.57h-7.62Z"/><path class="cls-5" d="M456.52,206.59a3.41,3.41,0,0,0-.31.55,4.35,4.35,0,0,0-.47.63l-.63.94h-2.75l3.61-5.1-3.61-4.47h3.14l2,3.3c.24-.47.47-1,.79-1.57s.63-1.1,1-1.73h2.75l-3.22,4.47,3.93,5.1h-3.14l-1-1.41-.63-1c-.24-.39-.47-.79-.71-1.1a1.62,1.62,0,0,1-.39.71C456.84,206,456.68,206.27,456.52,206.59Z"/><path class="cls-5" d="M469.71,198.89a3.65,3.65,0,0,1,1.81.47,2.28,2.28,0,0,1,1.1,1.33,10.12,10.12,0,0,1,.47,3.14,8.82,8.82,0,0,1-.47,3.14,1.94,1.94,0,0,1-1.1,1.26,3.44,3.44,0,0,1-1.81.47,6.23,6.23,0,0,1-1.33-.16,2.08,2.08,0,0,1-1.33-1.1v5.1h-2.67V199.13H467v1a2.3,2.3,0,0,1,1.26-1,2.68,2.68,0,0,1,1.18-.16l.24-.08Zm-.94,1.65a1.48,1.48,0,0,0-1.18.47,2.65,2.65,0,0,0-.47.94c0,.31-.08.55-.08.94s-.08.63-.08.86a7.75,7.75,0,0,0,.31,2.59,1.28,1.28,0,0,0,1.33.86,1.36,1.36,0,0,0,1.41-.79,6.3,6.3,0,0,0,.31-2.36v-.31a9.8,9.8,0,0,0-.16-1.65,2.66,2.66,0,0,0-.47-1.18A1.18,1.18,0,0,0,468.77,200.54Z"/><path class="cls-5" d="M477.88,192.93v15.7h-2.67v-15.7Z"/><path class="cls-5" d="M480,202.9a4,4,0,0,1,1.33-3,4.75,4.75,0,0,1,3.06-.94,5.1,5.1,0,0,1,3.38,1q1.18,1.06,1.18,3.77v.71a3.87,3.87,0,0,1-4.4,4.32,5.74,5.74,0,0,1-2.51-.47,3.23,3.23,0,0,1-1.49-1.57,5.39,5.39,0,0,1-.55-2.67Zm2.67.94a6.41,6.41,0,0,0,.39,2.51,1.36,1.36,0,0,0,1.41.79h.24a1.46,1.46,0,0,0,1.26-.94,6.5,6.5,0,0,0,.31-2.43v-.86c0-.16-.08-.39-.08-.55s-.08-.39-.08-.55a1.88,1.88,0,0,0-.55-.94,1.55,1.55,0,0,0-1.1-.39,1.41,1.41,0,0,0-1.41.86,3.89,3.89,0,0,0-.31,1,6.35,6.35,0,0,0-.08,1.26Z"/><path class="cls-5" d="M491.07,208.63v-9.58h2.67l-.08,1.18h.08a3.46,3.46,0,0,1,3.06-1.33v1.81a4.55,4.55,0,0,0-2.43.47,1.53,1.53,0,0,0-.63,1.41v6Z"/><path class="cls-5" d="M501,204.23c0,2,.55,3,1.73,3a1.6,1.6,0,0,0,1.18-.47,1.85,1.85,0,0,0,.47-1.33h2.51a3.09,3.09,0,0,1-.63,2,3.37,3.37,0,0,1-1.49,1.1c-.31.08-.63.16-1,.24a4.83,4.83,0,0,1-1.1.08,6.11,6.11,0,0,1-2.2-.39,2.82,2.82,0,0,1-.79-.55,3.07,3.07,0,0,1-.63-.79,2.65,2.65,0,0,1-.47-.94,4.63,4.63,0,0,1-.16-1.1v-.31a2.42,2.42,0,0,0-.08-.79,5.45,5.45,0,0,1,1.1-3.69,3.87,3.87,0,0,1,3.14-1.26,4.19,4.19,0,0,1,2.83.79,3.71,3.71,0,0,1,1.26,2,11.68,11.68,0,0,1,.31,2.59l-6-.08Zm0-1.26h3.14c0-1.57-.55-2.43-1.57-2.43a1.32,1.32,0,0,0-1.1.47A3.13,3.13,0,0,0,501,203Z"/><path class="cls-5" d="M509,208.63v-9.58h2.67l-.08,1.18h.08a3.46,3.46,0,0,1,3.06-1.33v1.81a4.55,4.55,0,0,0-2.43.47,1.53,1.53,0,0,0-.63,1.41v6Z"/></svg>