<svg id="Layer_1" data-name="Layer 1" xmlns="http://www.w3.org/2000/svg" viewBox="0 0 800 360.33"><defs><style>.cls-1{fill:#2d2d2d;}.cls-2{fill:#707171;}.cls-3{fill:#c02026;}.cls-4{fill:#e0e0e0;}</style></defs><title>Untitled-1</title><path class="cls-1" d="M102.28,164.11c-.92,0-1,0-1.27.77l-1.5,4.45a4.48,4.48,0,0,0-.27,1.38c0,.23.5.46,1.57.65l1.15.19c.23.27.31,1.15-.08,1.34-1.34-.08-2.73-.08-4.34-.12-1.31,0-2.19.12-4,.12-.42-.23-.38-1-.12-1.34l1-.12a2.64,2.64,0,0,0,2.34-1.92c.65-1.54,1.38-3.38,2.42-6.14l3.49-9.37c.88-2.42,1.54-3.76,1.42-4.87a7.7,7.7,0,0,0,3.34-2.3c.5,0,.73.19.88.77.31,1.11.77,2.53,1.73,5.26l5.22,15c.81,2.3,1.15,3.19,2.57,3.42l1.46.23c.23.19.31,1.11,0,1.34-1.84-.08-3.92-.12-5.91-.12s-3.42,0-5.18.12a.87.87,0,0,1-.08-1.34l1.23-.19c.88-.15,1-.42,1-.65a16.16,16.16,0,0,0-.73-2.61l-1-3.3c-.19-.62-.5-.69-1.84-.69Zm4.38-2c.88,0,1.07-.12.77-1.11l-1-3.11c-.54-1.65-1.23-3.72-1.57-4.53-.31.88-1.07,3-1.65,4.72l-1,2.88c-.35,1-.15,1.15.81,1.15Z"/><path class="cls-1" d="M144.43,166.26c0,2.49,0,4.91.08,6.18a3,3,0,0,1-2.26.88s-1.31-2-3.11-4.18l-8.87-11a56.3,56.3,0,0,0-4.18-4.91,6.79,6.79,0,0,0-.19,2.46v7.45c0,3.11.15,6,.58,7,.35.8,1.23,1.07,2.23,1.23l1.07.15a1.22,1.22,0,0,1,0,1.34c-2.07-.08-3.61-.12-5.14-.12s-2.84,0-4.3.12a1.22,1.22,0,0,1,0-1.34l.65-.12c1-.19,1.8-.46,2.11-1.27.42-1,.54-3.92.54-7v-9.75c0-2.11,0-2.73-.27-3.26s-.84-1.11-2.19-1.3l-1.07-.15c-.27-.31-.23-1.23.15-1.34,1.8.08,3.72.12,5.3.12,1.31,0,2.42,0,3.22-.12.38,1.73,2.88,4.65,6.33,8.75l3.22,3.8c1.69,2,2.8,3.34,3.69,4.22a5.52,5.52,0,0,0,.15-1.73v-5.3c0-3.11-.15-6-.58-7-.35-.81-1.19-1.08-2.23-1.23l-1-.15a1.22,1.22,0,0,1,0-1.34c2.07.08,3.57.12,5.14.12,1.42,0,2.8,0,4.3-.12a1.22,1.22,0,0,1,0,1.34l-.69.12a2.35,2.35,0,0,0-2.07,1.27c-.42,1-.58,3.92-.58,7Z"/><path class="cls-1" d="M158.94,150.32c0-.92,0-1.11-.92-1.11h-2.38c-2.8,0-3.61,1.54-4.76,4.34a1.08,1.08,0,0,1-1.42-.34,47,47,0,0,0,1.27-6.53.92.92,0,0,1,.54-.19.88.88,0,0,1,.54.15c.19.65.31.81,3.22.81h14.28c2.53,0,3.11,0,3.46-.84a1,1,0,0,1,.5-.12.82.82,0,0,1,.58.27,27.21,27.21,0,0,0-.58,6.6c-.19.35-1.23.42-1.42.12-.65-2.46-1.19-4.26-4.07-4.26h-2.3c-.92,0-1,.12-1,1.11v16.93c0,3.57.23,3.88,2,4.11l1.54.19a1.22,1.22,0,0,1,0,1.34c-2.5-.08-4.42-.12-6.14-.12s-3.84,0-6.53.12a1.1,1.1,0,0,1,0-1.34l1.73-.19c1.73-.19,2-.54,2-4.11Z"/><path class="cls-1" d="M184.82,167.18c0,3.61.23,3.88,2,4.19l1.07.19a1.1,1.1,0,0,1,0,1.34c-2.07-.08-4-.12-5.76-.12s-3.76,0-5.84.12a1.1,1.1,0,0,1,0-1.34l1.07-.19c1.77-.31,2-.58,2-4.19V153c0-3.61-.23-3.88-2-4.19l-1.07-.19a1.1,1.1,0,0,1,0-1.34c2.07.08,4,.12,5.84.12s3.72,0,5.8-.12a1.1,1.1,0,0,1,0,1.34l-1.07.19c-1.77.31-2,.58-2,4.19Z"/><path class="cls-1" d="M201.13,162.84a2.41,2.41,0,0,1,.54,1.61,2.59,2.59,0,0,1-.5,1.5l-9.21.85a2.18,2.18,0,0,1-.58-1.54,2.35,2.35,0,0,1,.58-1.57Z"/><path class="cls-1" d="M208.23,153.66c0-3.65-.08-4.37-1.84-4.57l-.73-.08c-.38-.19-.38-1.3.08-1.34,3.22-.19,6.22-.35,10.29-.35A26.81,26.81,0,0,1,225,148.6a11.64,11.64,0,0,1,7.79,11.13,12.24,12.24,0,0,1-6.87,11.48c-2.61,1.31-5.76,1.8-9.71,1.8-1.8,0-3.72-.23-5.11-.23-1.84,0-3.8,0-6,.12a1.09,1.09,0,0,1,0-1.34l1.19-.19c1.73-.27,2-.58,2-4.11Zm5.49,12.17c0,2.11.08,3.49.77,4.3a4.14,4.14,0,0,0,3.19,1.11c6.64,0,8.91-5.91,8.91-11.13,0-6.91-3.65-11-10.6-11a2.78,2.78,0,0,0-2,.5,4.68,4.68,0,0,0-.27,2.23Z"/><path class="cls-1" d="M245.2,167.18c0,3.61.23,3.88,2,4.19l1.08.19a1.1,1.1,0,0,1,0,1.34c-2.07-.08-4-.12-5.76-.12s-3.76,0-5.84.12a1.1,1.1,0,0,1,0-1.34l1.08-.19c1.77-.31,2-.58,2-4.19V153c0-3.61-.23-3.88-2-4.19l-1.08-.19a1.1,1.1,0,0,1,0-1.34c2.07.08,4,.12,5.84.12s3.72,0,5.8-.12a1.1,1.1,0,0,1,0,1.34l-1.08.19c-1.77.31-2,.58-2,4.19Z"/><path class="cls-1" d="M259.25,173.4a13.33,13.33,0,0,1-6.53-1.46c-.73-.85-1.23-3.61-1.23-6.22a1,1,0,0,1,1.46-.11c.77,2.49,3.34,6,6.6,6a3.82,3.82,0,0,0,4.15-3.88c0-3.11-2.92-5-5.22-6.1-2.76-1.38-5.8-3.69-5.8-7.49,0-4.34,3.34-7.33,8.91-7.33a15.56,15.56,0,0,1,4.38.61,8.92,8.92,0,0,0,1.31.31,18.71,18.71,0,0,1,.69,5.49c-.19.46-1.15.5-1.5.12-.65-2-2.3-4.76-5.07-4.76a3.57,3.57,0,0,0-3.92,3.57c0,1.77,1.57,3.38,3.49,4.38l2.53,1.34c2.38,1.27,5.41,3.49,5.41,7.72C268.93,170.32,265,173.4,259.25,173.4Z"/><path class="cls-1" d="M295.8,147.83a51,51,0,0,0,.46,6,1.05,1.05,0,0,1-1.46.27,7,7,0,0,0-7.22-5.49c-4.26,0-8.83,3.65-8.83,11.29s4.42,11.75,9,11.75,6.8-3.34,7.83-6a1.1,1.1,0,0,1,1.46.27,17,17,0,0,1-1.46,6,28.54,28.54,0,0,1-7.79,1.42c-3.76,0-7.6-.88-10.33-2.92a12.05,12.05,0,0,1-4.88-10.06,12.68,12.68,0,0,1,4.65-10.17,16.8,16.8,0,0,1,10.63-3.42A46.8,46.8,0,0,1,295.8,147.83Z"/><path class="cls-1" d="M302.94,153.66c0-3.84-.08-4.26-1.69-4.49l-1-.15a.87.87,0,0,1,.08-1.34c2.88-.19,5.87-.35,9.52-.35,3.26,0,6.07.5,7.52,1.38a6.29,6.29,0,0,1,3.38,5.68c0,3.42-2.3,4.88-4.07,5.76-.38.19-.38.42-.19.85,2.53,5.14,4.11,8,6,9.6a4.68,4.68,0,0,0,2.57,1.07.73.73,0,0,1,.15,1,9.23,9.23,0,0,1-3,.35c-3.53,0-5.76-1.27-7.45-4a48.07,48.07,0,0,1-3-5.95,2,2,0,0,0-2-1.34c-1.34,0-1.42.08-1.42.84v4.72c0,3.53.23,3.8,2,4.11l1,.19a1.22,1.22,0,0,1,0,1.34c-2-.08-3.8-.12-5.64-.12s-3.61,0-5.6.12a1.09,1.09,0,0,1,0-1.34l1-.19c1.73-.31,2-.58,2-4.11Zm5.26,4.88c0,1.34.12,1.46,2.38,1.46a3.68,3.68,0,0,0,2.92-1.08,5.58,5.58,0,0,0,1.38-4.15c0-3.46-2-5.68-5-5.68-1.57,0-1.65.12-1.65,2Z"/><path class="cls-1" d="M335,167.18c0,3.61.23,3.88,2,4.19l1.08.19a1.1,1.1,0,0,1,0,1.34c-2.07-.08-4-.12-5.76-.12s-3.76,0-5.84.12a1.1,1.1,0,0,1,0-1.34l1.08-.19c1.77-.31,2-.58,2-4.19V153c0-3.61-.23-3.88-2-4.19l-1.08-.19a1.1,1.1,0,0,1,0-1.34c2.07.08,4,.12,5.84.12s3.72,0,5.8-.12a1.1,1.1,0,0,1,0,1.34l-1.08.19c-1.77.31-2,.58-2,4.19Z"/><path class="cls-1" d="M341.67,148.67c-.31-.31-.31-1.23.12-1.34,1.31.08,3,.12,4.84.12,1.27,0,2.38,0,3.76-.12,0,2.38,1.34,4.72,3,8.33l2.53,5.41c.35.77,1.73,3.19,2.27,4.15.5-.92,1.11-2.11,2.15-4.38l2-4.22a48,48,0,0,0,3.65-9.29,35,35,0,0,0,3.8.12c1.27,0,3,0,4.42-.12a1,1,0,0,1,.12,1.34l-1.11.19c-1.57.27-2.34.73-2.34,2.77,0,7.91.08,12.05.31,16.89.08,1.77.23,2.69,1.73,2.88l1.23.15c.31.31.31,1.19-.08,1.34-1.77-.08-3.42-.12-5.3-.12-1.73,0-3.84,0-5.68.12a.87.87,0,0,1-.12-1.34l1.15-.15c1.77-.23,1.77-.69,1.77-3l-.08-10V154h-.08c-2.84,6.14-5.91,12.55-8.45,19a1.24,1.24,0,0,1-.77.27,2,2,0,0,1-1-.23c-1.5-4.76-6.22-14.28-8.37-19.27H347c-.15,2.5-.19,4.19-.23,6.18,0,2.49-.08,6.33-.08,8.64,0,1.92.23,2.46,1.77,2.69l1.5.23a1.09,1.09,0,0,1-.08,1.34c-1.42-.08-3.07-.12-4.53-.12-1.23,0-2.69,0-4.22.12-.5-.15-.5-1.15-.15-1.34l.69-.12c2-.35,2.19-.58,2.42-3,.19-1.88.31-5.22.54-8.87.15-2.57.23-5.68.23-7.75s-.84-2.77-2.38-3Z"/><path class="cls-1" d="M386.13,167.18c0,3.61.23,3.88,2,4.19l1.08.19a1.1,1.1,0,0,1,0,1.34c-2.07-.08-4-.12-5.76-.12s-3.76,0-5.84.12a1.1,1.1,0,0,1,0-1.34l1.08-.19c1.77-.31,2-.58,2-4.19V153c0-3.61-.23-3.88-2-4.19l-1.08-.19a1.1,1.1,0,0,1,0-1.34c2.07.08,4,.12,5.84.12s3.72,0,5.8-.12a1.1,1.1,0,0,1,0,1.34l-1.08.19c-1.77.31-2,.58-2,4.19Z"/><path class="cls-1" d="M416.57,166.26c0,2.49,0,4.91.08,6.18a3,3,0,0,1-2.27.88s-1.31-2-3.11-4.18l-8.87-11a56.31,56.31,0,0,0-4.18-4.91,6.79,6.79,0,0,0-.19,2.46v7.45c0,3.11.15,6,.58,7,.35.8,1.23,1.07,2.23,1.23l1.08.15a1.22,1.22,0,0,1,0,1.34c-2.07-.08-3.61-.12-5.14-.12s-2.84,0-4.3.12a1.22,1.22,0,0,1,0-1.34l.65-.12c1-.19,1.8-.46,2.11-1.27.42-1,.54-3.92.54-7v-9.75c0-2.11,0-2.73-.27-3.26s-.84-1.11-2.19-1.3l-1.08-.15c-.27-.31-.23-1.23.15-1.34,1.8.08,3.72.12,5.3.12,1.31,0,2.42,0,3.23-.12.38,1.73,2.88,4.65,6.33,8.75l3.22,3.8c1.69,2,2.8,3.34,3.69,4.22a5.51,5.51,0,0,0,.15-1.73v-5.3c0-3.11-.15-6-.58-7-.35-.81-1.19-1.08-2.23-1.23l-1-.15a1.22,1.22,0,0,1,0-1.34c2.07.08,3.57.12,5.14.12,1.42,0,2.8,0,4.3-.12a1.22,1.22,0,0,1,0,1.34l-.69.12a2.35,2.35,0,0,0-2.07,1.27c-.42,1-.58,3.92-.58,7Z"/><path class="cls-1" d="M429.16,164.11c-.92,0-1,0-1.27.77l-1.5,4.45a4.48,4.48,0,0,0-.27,1.38c0,.23.5.46,1.57.65l1.15.19c.23.27.31,1.15-.08,1.34-1.34-.08-2.73-.08-4.34-.12-1.31,0-2.19.12-4,.12-.42-.23-.38-1-.12-1.34l1-.12a2.64,2.64,0,0,0,2.34-1.92c.65-1.54,1.38-3.38,2.42-6.14l3.49-9.37c.88-2.42,1.54-3.76,1.42-4.87a7.7,7.7,0,0,0,3.34-2.3c.5,0,.73.19.88.77.31,1.11.77,2.53,1.73,5.26l5.22,15c.81,2.3,1.15,3.19,2.57,3.42l1.46.23c.23.19.31,1.11,0,1.34-1.84-.08-3.92-.12-5.91-.12s-3.42,0-5.18.12a.87.87,0,0,1-.08-1.34l1.23-.19c.88-.15,1-.42,1-.65a16.14,16.14,0,0,0-.73-2.61l-1-3.3c-.19-.62-.5-.69-1.84-.69Zm4.38-2c.88,0,1.08-.12.77-1.11l-1-3.11c-.54-1.65-1.23-3.72-1.57-4.53-.31.88-1.07,3-1.65,4.72l-1,2.88c-.35,1-.15,1.15.81,1.15Z"/><path class="cls-1" d="M453.38,150.32c0-.92,0-1.11-.92-1.11h-2.38c-2.8,0-3.61,1.54-4.76,4.34a1.08,1.08,0,0,1-1.42-.34,47,47,0,0,0,1.27-6.53.91.91,0,0,1,.54-.19.88.88,0,0,1,.54.15c.19.65.31.81,3.23.81h14.28c2.53,0,3.11,0,3.46-.84a1,1,0,0,1,.5-.12.82.82,0,0,1,.58.27,27.2,27.2,0,0,0-.58,6.6c-.19.35-1.23.42-1.42.12-.65-2.46-1.19-4.26-4.07-4.26h-2.3c-.92,0-1,.12-1,1.11v16.93c0,3.57.23,3.88,2,4.11l1.54.19a1.22,1.22,0,0,1,0,1.34c-2.5-.08-4.42-.12-6.14-.12s-3.84,0-6.53.12a1.1,1.1,0,0,1,0-1.34l1.73-.19c1.73-.19,2-.54,2-4.11Z"/><path class="cls-1" d="M479.26,167.18c0,3.61.23,3.88,2,4.19l1.08.19a1.1,1.1,0,0,1,0,1.34c-2.07-.08-4-.12-5.76-.12s-3.76,0-5.84.12a1.1,1.1,0,0,1,0-1.34l1.08-.19c1.77-.31,2-.58,2-4.19V153c0-3.61-.23-3.88-2-4.19l-1.08-.19a1.1,1.1,0,0,1,0-1.34c2.07.08,4,.12,5.84.12s3.72,0,5.8-.12a1.1,1.1,0,0,1,0,1.34l-1.08.19c-1.77.31-2,.58-2,4.19Z"/><path class="cls-1" d="M513.39,160c0,8.37-5.61,13.4-13.86,13.4-7.72,0-13.32-5.07-13.32-13.09,0-7.6,5.68-13.47,13.71-13.47S513.39,152.2,513.39,160ZM499.6,148.6c-4.72,0-7.26,4.41-7.26,10.83,0,4.68,1.65,12.21,7.91,12.21,5,0,7-4.91,7-11.13C507.24,153.93,504.36,148.6,499.6,148.6Z"/><path class="cls-1" d="M541,166.26c0,2.49,0,4.91.08,6.18a3,3,0,0,1-2.27.88s-1.31-2-3.11-4.18l-8.87-11a56.31,56.31,0,0,0-4.18-4.91,6.79,6.79,0,0,0-.19,2.46v7.45c0,3.11.15,6,.58,7,.35.8,1.23,1.07,2.23,1.23l1.08.15a1.22,1.22,0,0,1,0,1.34c-2.07-.08-3.61-.12-5.14-.12s-2.84,0-4.3.12a1.22,1.22,0,0,1,0-1.34l.65-.12c1-.19,1.8-.46,2.11-1.27.42-1,.54-3.92.54-7v-9.75c0-2.11,0-2.73-.27-3.26s-.84-1.11-2.19-1.3l-1.08-.15c-.27-.31-.23-1.23.15-1.34,1.8.08,3.72.12,5.3.12,1.31,0,2.42,0,3.23-.12.38,1.73,2.88,4.65,6.33,8.75l3.22,3.8c1.69,2,2.8,3.34,3.69,4.22a5.51,5.51,0,0,0,.15-1.73v-5.3c0-3.11-.15-6-.58-7-.35-.81-1.19-1.08-2.23-1.23l-1-.15a1.22,1.22,0,0,1,0-1.34c2.07.08,3.57.12,5.14.12,1.42,0,2.8,0,4.3-.12a1.22,1.22,0,0,1,0,1.34l-.69.12a2.35,2.35,0,0,0-2.07,1.27c-.42,1-.58,3.92-.58,7Z"/><path class="cls-2" d="M580.68,147.83a51.07,51.07,0,0,0,.46,6,1.05,1.05,0,0,1-1.46.27,7,7,0,0,0-7.22-5.49c-4.26,0-8.83,3.65-8.83,11.29s4.42,11.75,9,11.75,6.79-3.34,7.83-6a1.1,1.1,0,0,1,1.46.27,17,17,0,0,1-1.46,6,28.54,28.54,0,0,1-7.79,1.42c-3.76,0-7.6-.88-10.33-2.92a12.05,12.05,0,0,1-4.88-10.06,12.68,12.68,0,0,1,4.65-10.17,16.8,16.8,0,0,1,10.63-3.42A46.77,46.77,0,0,1,580.68,147.83Z"/><path class="cls-2" d="M593.31,157.43c0,1.07,0,1.15,1.07,1.15H597c2,0,2.46-.27,2.84-2.11l.19-1c.27-.31,1.23-.31,1.42,0-.08,1.23-.12,2.61-.12,4.07s0,2.84.12,4.07a1.1,1.1,0,0,1-1.42,0l-.19-1c-.38-1.84-.84-2.15-2.84-2.15h-2.65c-1,0-1.07,0-1.07,1.19v4.57c0,1.77.15,3,.61,3.65s1.23,1,4,1c3.34,0,4.65-.12,6.76-4.45a.93.93,0,0,1,1.42.19,21.76,21.76,0,0,1-1.61,6.14c-2-.08-5.72-.12-8.87-.12h-5c-1.84,0-3.72,0-6.6.12a1.09,1.09,0,0,1,0-1.34l1.8-.27c1.73-.27,2-.5,2-4V152.93c0-3.49-.23-3.72-2-4.07l-1-.19a1,1,0,0,1,.08-1.34c1.8.08,3.69.12,5.53.12h8.14c2.46,0,4.65,0,5.14-.12,0,.62.31,3.38.5,6-.15.42-1,.5-1.42.15a8.88,8.88,0,0,0-1.46-3,5,5,0,0,0-3.76-1.19h-3.07c-1.27,0-1.27.08-1.27,1.5Z"/><path class="cls-2" d="M632.27,166.26c0,2.49,0,4.91.08,6.18a3,3,0,0,1-2.27.88s-1.31-2-3.11-4.18l-8.87-11a56.31,56.31,0,0,0-4.18-4.91,6.79,6.79,0,0,0-.19,2.46v7.45c0,3.11.15,6,.58,7,.35.8,1.23,1.07,2.23,1.23l1.08.15a1.22,1.22,0,0,1,0,1.34c-2.07-.08-3.61-.12-5.14-.12s-2.84,0-4.3.12a1.22,1.22,0,0,1,0-1.34l.65-.12c1-.19,1.8-.46,2.11-1.27.42-1,.54-3.92.54-7v-9.75c0-2.11,0-2.73-.27-3.26s-.84-1.11-2.19-1.3l-1.08-.15c-.27-.31-.23-1.23.15-1.34,1.8.08,3.72.12,5.3.12,1.31,0,2.42,0,3.22-.12.38,1.73,2.88,4.65,6.33,8.75l3.22,3.8c1.69,2,2.8,3.34,3.69,4.22a5.51,5.51,0,0,0,.15-1.73v-5.3c0-3.11-.15-6-.58-7-.35-.81-1.19-1.08-2.23-1.23l-1-.15a1.22,1.22,0,0,1,0-1.34c2.07.08,3.57.12,5.14.12,1.42,0,2.8,0,4.3-.12a1.22,1.22,0,0,1,0,1.34l-.69.12a2.35,2.35,0,0,0-2.07,1.27c-.42,1-.58,3.92-.58,7Z"/><path class="cls-2" d="M646.78,150.32c0-.92,0-1.11-.92-1.11h-2.38c-2.8,0-3.61,1.54-4.76,4.34a1.08,1.08,0,0,1-1.42-.34,47,47,0,0,0,1.27-6.53.91.91,0,0,1,.54-.19.88.88,0,0,1,.54.15c.19.65.31.81,3.23.81h14.28c2.53,0,3.11,0,3.46-.84a1,1,0,0,1,.5-.12.82.82,0,0,1,.58.27,27.2,27.2,0,0,0-.58,6.6c-.19.35-1.23.42-1.42.12-.65-2.46-1.19-4.26-4.07-4.26h-2.3c-.92,0-1,.12-1,1.11v16.93c0,3.57.23,3.88,2,4.11l1.54.19a1.22,1.22,0,0,1,0,1.34c-2.5-.08-4.42-.12-6.14-.12s-3.84,0-6.53.12a1.1,1.1,0,0,1,0-1.34l1.73-.19c1.73-.19,2-.54,2-4.11Z"/><path class="cls-2" d="M672.66,157.43c0,1.07,0,1.15,1.07,1.15h2.65c2,0,2.46-.27,2.84-2.11l.19-1c.27-.31,1.23-.31,1.42,0-.08,1.23-.12,2.61-.12,4.07s0,2.84.12,4.07a1.1,1.1,0,0,1-1.42,0l-.19-1c-.38-1.84-.84-2.15-2.84-2.15h-2.65c-1,0-1.07,0-1.07,1.19v4.57c0,1.77.15,3,.61,3.65s1.23,1,4,1c3.34,0,4.65-.12,6.76-4.45a.93.93,0,0,1,1.42.19,21.76,21.76,0,0,1-1.61,6.14c-2-.08-5.72-.12-8.87-.12h-5c-1.84,0-3.72,0-6.6.12a1.09,1.09,0,0,1,0-1.34l1.8-.27c1.73-.27,2-.5,2-4V152.93c0-3.49-.23-3.72-2-4.07l-1-.19a1,1,0,0,1,.08-1.34c1.8.08,3.69.12,5.53.12H678c2.46,0,4.65,0,5.14-.12,0,.62.31,3.38.5,6-.15.42-1,.5-1.42.15a8.88,8.88,0,0,0-1.46-3,5,5,0,0,0-3.76-1.19h-3.07c-1.27,0-1.27.08-1.27,1.5Z"/><path class="cls-2" d="M691,153.66c0-3.84-.08-4.26-1.69-4.49l-1-.15a.87.87,0,0,1,.08-1.34c2.88-.19,5.87-.35,9.52-.35,3.26,0,6.07.5,7.52,1.38a6.29,6.29,0,0,1,3.38,5.68c0,3.42-2.3,4.88-4.07,5.76-.38.19-.38.42-.19.85,2.53,5.14,4.11,8,6,9.6a4.68,4.68,0,0,0,2.57,1.07.73.73,0,0,1,.15,1,9.23,9.23,0,0,1-3,.35c-3.53,0-5.76-1.27-7.45-4a48.13,48.13,0,0,1-3-5.95,2,2,0,0,0-2-1.34c-1.34,0-1.42.08-1.42.84v4.72c0,3.53.23,3.8,2,4.11l1,.19a1.22,1.22,0,0,1,0,1.34c-2-.08-3.8-.12-5.64-.12s-3.61,0-5.61.12a1.1,1.1,0,0,1,0-1.34l1-.19c1.73-.31,2-.58,2-4.11Zm5.26,4.88c0,1.34.12,1.46,2.38,1.46a3.68,3.68,0,0,0,2.92-1.08,5.58,5.58,0,0,0,1.38-4.15c0-3.46-2-5.68-5-5.68-1.57,0-1.65.12-1.65,2Z"/><path class="cls-3" d="M461.31,188.59a6.71,6.71,0,0,1,6.92-6.86A6.39,6.39,0,0,1,475,188.4a6.63,6.63,0,0,1-6.74,6.78A6.54,6.54,0,0,1,461.31,188.59ZM473,189c0-3.21-1.42-6.66-5.13-6.66-2,0-4.64,1.38-4.64,5.63,0,2.88,1.4,6.6,5.23,6.6C470.8,194.58,473,192.83,473,189Z"/><path class="cls-3" d="M478.16,189.29c0-.76,0-.85-.52-1.2l-.17-.12a.27.27,0,0,1,0-.35,10.53,10.53,0,0,0,1.94-1,.23.23,0,0,1,.21.14c0,.45,0,.74,0,.91a.2.2,0,0,0,.21.21,5.33,5.33,0,0,1,2.72-1,2.16,2.16,0,0,1,2.27,2.41v3.34c0,1.4,0,1.59.74,1.69l.43.06a.34.34,0,0,1,0,.49c-.58,0-1.15-.06-1.83-.06s-1.28,0-1.81.06a.34.34,0,0,1,0-.49l.37-.06c.72-.12.74-.29.74-1.69V189.8a1.68,1.68,0,0,0-1.83-1.92,2.12,2.12,0,0,0-1.65.68,1.64,1.64,0,0,0-.29,1.17v3c0,1.4,0,1.57.74,1.69l.35.06a.34.34,0,0,1,0,.49c-.52,0-1.09-.06-1.77-.06s-1.28,0-1.83.06a.34.34,0,0,1,0-.49l.41-.06c.72-.1.74-.29.74-1.69Z"/><path class="cls-3" d="M489.5,189.9c-.51,0-.52,0-.52.52,0,2,1.15,3.63,3.22,3.63a2.09,2.09,0,0,0,1.79-1,.26.26,0,0,1,.35.23,3.4,3.4,0,0,1-3,1.81,3.48,3.48,0,0,1-2.82-1.28,4.13,4.13,0,0,1-.82-2.53c0-2.39,1.57-4.39,3.9-4.39a2.54,2.54,0,0,1,2.76,2.31,1.2,1.2,0,0,1-.08.5c-.06.12-.33.14-1.15.14Zm1.2-.58c1.44,0,1.86-.08,2-.19s.12-.12.12-.37c0-.54-.37-1.22-1.5-1.22a2.28,2.28,0,0,0-2.16,1.69s0,.1.14.1Z"/><path class="cls-3" d="M503.87,183.39a8.37,8.37,0,0,1,5.24-1.65,15,15,0,0,1,3.44.47,1.46,1.46,0,0,0,.54.08c0,.45.12,1.67.27,2.86a.41.41,0,0,1-.52,0c-.29-1.32-1.17-2.84-4-2.84-3,0-5.5,1.88-5.5,5.9s2.58,6.33,5.77,6.33a4.14,4.14,0,0,0,4.06-2.78.41.41,0,0,1,.5.08,7.31,7.31,0,0,1-.93,2.66,3.89,3.89,0,0,0-.68.19,11.45,11.45,0,0,1-3.07.45,8.51,8.51,0,0,1-4.84-1.3,6.26,6.26,0,0,1-2.76-5.34A6.45,6.45,0,0,1,503.87,183.39Z"/><path class="cls-3" d="M523.37,191a4,4,0,0,1-4.1,4.18,3.84,3.84,0,0,1-4-4,4.08,4.08,0,0,1,4.14-4.2A3.88,3.88,0,0,1,523.37,191Zm-4.18-3.44c-1.28,0-2.23,1.22-2.23,3.36,0,1.77.8,3.67,2.51,3.67s2.23-1.79,2.23-3.28C521.7,189.63,521,187.53,519.19,187.53Z"/><path class="cls-3" d="M536.77,189.88c0-1.32-.58-2-1.81-2a2.09,2.09,0,0,0-1.61.68c-.23.29-.29.49-.29,1.17v3c0,1.4,0,1.59.74,1.69l.41.06a.34.34,0,0,1,0,.49c-.58,0-1.15-.06-1.83-.06s-1.22,0-1.77.06a.34.34,0,0,1,0-.49l.35-.06c.72-.12.74-.29.74-1.69v-2.82c0-1.3-.58-2-1.79-2a2.08,2.08,0,0,0-1.63.7,1.51,1.51,0,0,0-.29,1.11v3c0,1.4,0,1.57.74,1.69l.35.06a.34.34,0,0,1,0,.49c-.52,0-1.09-.06-1.77-.06s-1.28,0-1.88.06a.34.34,0,0,1,0-.49l.47-.06c.72-.1.74-.29.74-1.69v-3.4c0-.76,0-.85-.52-1.2l-.17-.12a.27.27,0,0,1,0-.35,10.53,10.53,0,0,0,1.94-1,.23.23,0,0,1,.21.14c0,.45,0,.74,0,.91a.2.2,0,0,0,.21.21,4.67,4.67,0,0,1,2.58-1,2.22,2.22,0,0,1,2.06,1.15.61.61,0,0,0,.49-.16,4.87,4.87,0,0,1,2.64-1,2.2,2.2,0,0,1,2.31,2.41v3.34c0,1.4,0,1.59.74,1.69l.47.06a.34.34,0,0,1,0,.49c-.64,0-1.2-.06-1.88-.06s-1.22,0-1.77.06a.34.34,0,0,1,0-.49l.35-.06c.72-.12.74-.29.74-1.69Z"/><path class="cls-3" d="M552.58,189.88c0-1.32-.58-2-1.81-2a2.09,2.09,0,0,0-1.61.68c-.23.29-.29.49-.29,1.17v3c0,1.4,0,1.59.74,1.69l.41.06a.34.34,0,0,1,0,.49c-.58,0-1.15-.06-1.83-.06s-1.22,0-1.77.06a.34.34,0,0,1,0-.49l.35-.06c.72-.12.74-.29.74-1.69v-2.82c0-1.3-.58-2-1.79-2a2.08,2.08,0,0,0-1.63.7,1.51,1.51,0,0,0-.29,1.11v3c0,1.4,0,1.57.74,1.69l.35.06a.34.34,0,0,1,0,.49c-.52,0-1.09-.06-1.77-.06s-1.28,0-1.88.06a.34.34,0,0,1,0-.49l.47-.06c.72-.1.74-.29.74-1.69v-3.4c0-.76,0-.85-.52-1.2l-.17-.12a.27.27,0,0,1,0-.35,10.53,10.53,0,0,0,1.94-1,.23.23,0,0,1,.21.14c0,.45,0,.74,0,.91a.2.2,0,0,0,.21.21,4.67,4.67,0,0,1,2.58-1,2.22,2.22,0,0,1,2.06,1.15.61.61,0,0,0,.49-.16,4.87,4.87,0,0,1,2.64-1,2.2,2.2,0,0,1,2.31,2.41v3.34c0,1.4,0,1.59.74,1.69l.47.06a.34.34,0,0,1,0,.49c-.64,0-1.2-.06-1.88-.06s-1.22,0-1.77.06a.34.34,0,0,1,0-.49l.35-.06c.72-.12.74-.29.74-1.69Z"/><path class="cls-3" d="M559.27,192c0,1.34.33,2.23,1.81,2.23a2.54,2.54,0,0,0,1.57-.58,1.35,1.35,0,0,0,.39-1.13v-3.19c0-1.26-.14-1.3-.72-1.53l-.25-.1a.26.26,0,0,1,0-.43,7.76,7.76,0,0,0,2.27-.35c.1,0,.16.06.17.14,0,.37-.06,1-.06,1.69V192c0,1.53.06,2.12.6,2.12a3.72,3.72,0,0,0,.76-.1c.12.1.14.49,0,.56a10.12,10.12,0,0,0-2.54.72.27.27,0,0,1-.23-.14v-.8c0-.17-.06-.27-.17-.27a5.08,5.08,0,0,1-2.68,1c-1.71,0-2.35-.85-2.35-2.43v-3.24c0-1.22,0-1.4-.58-1.65l-.23-.1a.29.29,0,0,1,0-.43,6.88,6.88,0,0,0,2.08-.35c.12,0,.17.06.19.14a14.55,14.55,0,0,0-.06,1.69Z"/><path class="cls-3" d="M568.55,189.29c0-.76,0-.85-.52-1.2l-.17-.12a.27.27,0,0,1,0-.35,10.53,10.53,0,0,0,1.94-1,.23.23,0,0,1,.21.14c0,.45,0,.74,0,.91a.2.2,0,0,0,.21.21,5.33,5.33,0,0,1,2.72-1,2.16,2.16,0,0,1,2.27,2.41v3.34c0,1.4,0,1.59.74,1.69l.43.06a.34.34,0,0,1,0,.49c-.58,0-1.15-.06-1.83-.06s-1.28,0-1.81.06a.34.34,0,0,1,0-.49l.37-.06c.72-.12.74-.29.74-1.69V189.8a1.68,1.68,0,0,0-1.83-1.92,2.12,2.12,0,0,0-1.65.68,1.64,1.64,0,0,0-.29,1.17v3c0,1.4,0,1.57.74,1.69l.35.06a.34.34,0,0,1,0,.49c-.52,0-1.09-.06-1.77-.06s-1.28,0-1.83.06a.34.34,0,0,1,0-.49l.41-.06c.72-.1.74-.29.74-1.69Z"/><path class="cls-3" d="M579.27,189.29c0-.76,0-.85-.52-1.2l-.17-.12a.27.27,0,0,1,0-.35,13.28,13.28,0,0,0,2-1c.1,0,.17,0,.19.12,0,.68-.08,1.61-.08,2.41v3.5c0,1.4,0,1.59.74,1.69l.41.06a.34.34,0,0,1,0,.49c-.58,0-1.15-.06-1.83-.06s-1.28,0-1.83.06a.34.34,0,0,1,0-.49l.41-.06c.72-.1.74-.29.74-1.69Zm1.61-5.54a1,1,0,0,1-2,0,1,1,0,0,1,1-1A1,1,0,0,1,580.89,183.76Z"/><path class="cls-3" d="M586.38,188c-.33,0-.35.06-.35.47v3.63c0,1.13.14,2.16,1.42,2.16a1.48,1.48,0,0,0,.52-.1c.17-.06.43-.27.49-.27s.23.21.19.33a2.69,2.69,0,0,1-2,.89c-1.67,0-2-.93-2-2.1v-4.45c0-.52,0-.56-.41-.56h-.54a.32.32,0,0,1-.06-.41,3.86,3.86,0,0,0,1.24-.6,4.81,4.81,0,0,0,.82-1.15c.1,0,.33,0,.41.1v.87c0,.35,0,.37.35.37h2.16a.62.62,0,0,1,0,.82Z"/><path class="cls-3" d="M589.84,198.87a.72.72,0,0,1,.78-.78H591a.7.7,0,0,0,.64-.35,12.4,12.4,0,0,0,1.13-2.16,3,3,0,0,0,.19-.83,3.69,3.69,0,0,0-.33-1.34l-1.51-4.16c-.33-.91-.47-1.38-1.15-1.52l-.49-.1c-.12-.1-.1-.43.06-.49.62,0,1.2.06,1.85.06s1.07,0,1.69-.06c.16.06.17.39,0,.49l-.49.1c-.27.06-.43.12-.43.25a14.69,14.69,0,0,0,.56,1.83l.62,1.79a10.82,10.82,0,0,0,.56,1.38,9.58,9.58,0,0,0,.72-1.44l.66-1.54a9,9,0,0,0,.68-1.94c0-.14-.12-.27-.47-.33l-.6-.1c-.14-.1-.12-.43,0-.49.62,0,1.2.06,1.71.06s.93,0,1.48-.06a.33.33,0,0,1,0,.49l-.33.06c-.64.12-1,.68-1.65,2.06L595.12,192c-.64,1.3-2.23,4.68-3.19,6.8a1.29,1.29,0,0,1-1.24.91A.78.78,0,0,1,589.84,198.87Z"/><path class="cls-3" d="M600.48,194.4c0,1.53-1.17,2.41-2.53,2.82a.32.32,0,0,1-.12-.47c.6-.19,1.59-.68,1.59-1.69,0-.82-.93-1-1.11-1.13a.58.58,0,0,1-.33-.56.88.88,0,0,1,1-.87A1.71,1.71,0,0,1,600.48,194.4Z"/><path class="cls-3" d="M620.44,191.57c0,.58,0,2.89.06,3.4a.35.35,0,0,1-.37.21c-.23-.33-.8-1-2.49-2.93l-4.51-5.13c-.52-.6-1.85-2.2-2.25-2.62h0a4.94,4.94,0,0,0-.1,1.26V190a15.19,15.19,0,0,0,.35,4c.12.21.5.33,1,.37l.6.06a.36.36,0,0,1,0,.49c-.87,0-1.55-.06-2.27-.06s-1.34,0-2,.06a.36.36,0,0,1,0-.49l.52-.06c.45-.06.76-.17.85-.39a18.76,18.76,0,0,0,.25-4v-5.61a1.78,1.78,0,0,0-.43-1.4,2.1,2.1,0,0,0-1.2-.47l-.33,0c-.12-.12-.12-.41,0-.49.82.06,1.85.06,2.19.06a6.39,6.39,0,0,0,.89-.06,26.75,26.75,0,0,0,3.32,4.27l1.88,2.12c1.34,1.5,2.29,2.58,3.21,3.52h0a2,2,0,0,0,.08-.82v-4.16c0-.91,0-3.44-.39-4-.12-.17-.43-.29-1.2-.39l-.33,0c-.14-.12-.12-.43,0-.49.89,0,1.55.06,2.29.06s1.34,0,2-.06a.34.34,0,0,1,0,.49l-.27,0c-.62.1-1,.25-1.09.41a15.68,15.68,0,0,0-.29,4Z"/><path class="cls-3" d="M631.41,191a4,4,0,0,1-4.1,4.18,3.84,3.84,0,0,1-4-4,4.08,4.08,0,0,1,4.14-4.2A3.88,3.88,0,0,1,631.41,191Zm-4.18-3.44c-1.28,0-2.23,1.22-2.23,3.36,0,1.77.8,3.67,2.51,3.67s2.23-1.79,2.23-3.28C629.74,189.63,629.08,187.53,627.24,187.53Z"/><path class="cls-3" d="M640.48,185c0-2,0-2.31-1.19-2.45l-.31,0c-.12-.08-.08-.43,0-.49.84,0,1.5.06,2.29.06H645c1.24,0,2.39,0,2.62-.06a21.78,21.78,0,0,1,.31,2.58.38.38,0,0,1-.49,0c-.29-.91-.47-1.59-1.48-1.85a9.32,9.32,0,0,0-1.88-.12h-1.4c-.58,0-.58,0-.58.78v3.89c0,.54.06.54.64.54h1.13a7.19,7.19,0,0,0,1.65-.12c.23-.08.37-.19.47-.68l.16-.8a.38.38,0,0,1,.5,0c0,.47-.08,1.22-.08,2s.08,1.44.08,1.87a.38.38,0,0,1-.5,0l-.17-.76a.83.83,0,0,0-.6-.74,6.54,6.54,0,0,0-1.5-.1h-1.13c-.58,0-.64,0-.64.52v2.74c0,1,.06,1.69.37,2s.64.45,2.35.45a5.68,5.68,0,0,0,2.49-.29,4.88,4.88,0,0,0,1.38-1.88.36.36,0,0,1,.49.14,16.92,16.92,0,0,1-.87,2.7c-1.75,0-3.48-.06-5.21-.06h-1.75c-.84,0-1.5,0-2.64.06a.38.38,0,0,1,0-.49l.64-.06c1.11-.1,1.2-.39,1.2-2.43Z"/><path class="cls-3" d="M651.43,188.54a1.73,1.73,0,0,0-1.17-.84l-.31-.06c-.12-.1-.1-.43,0-.49.76,0,1.2.06,1.69.06s.89,0,1.65-.06a.36.36,0,0,1,0,.49l-.29.06c-.52.1-.51.21-.17.68l.93,1.36a2.93,2.93,0,0,0,.25.33c.08-.06.72-1,1.13-1.65s.27-.6-.16-.72l-.23-.06a.34.34,0,0,1,.08-.49c.45,0,1,.06,1.42.06s1,0,1.42-.06a.34.34,0,0,1,0,.49l-.29.06a2.25,2.25,0,0,0-1,.33,17.51,17.51,0,0,0-1.83,2.21c-.23.31-.23.37,0,.72l1.81,2.54c.45.62.76.87,1.28.91l.31,0c.12.12.1.43,0,.49q-1.08-.06-1.92-.06c-.72,0-1.22,0-1.85.06a.33.33,0,0,1-.06-.49l.56-.06c.56-.06.58-.23.33-.58l-1-1.46a2.85,2.85,0,0,0-.43-.56,3.45,3.45,0,0,0-.35.47l-.82,1.28c-.39.62-.43.78.06.85l.33.06c.12.1.1.43,0,.49-.49,0-1-.06-1.44-.06s-.91,0-1.42.06a.33.33,0,0,1,0-.49l.45-.08a1.64,1.64,0,0,0,1-.58c.41-.43,1.28-1.73,1.73-2.27.17-.21.21-.29.06-.5Z"/><path class="cls-3" d="M665.55,187.27a1.1,1.1,0,0,1,.29.78c0,.35-.19.72-.43.72a.34.34,0,0,1-.27-.14,2.65,2.65,0,0,0-1.94-1c-1.36,0-2.68,1.07-2.68,3.13a3.19,3.19,0,0,0,3.13,3.32,2.37,2.37,0,0,0,2.16-1.17.31.31,0,0,1,.35.27,3.54,3.54,0,0,1-3.24,2,3.77,3.77,0,0,1-2.66-1,3.87,3.87,0,0,1-1.13-2.87,4.32,4.32,0,0,1,4.7-4.33A4.84,4.84,0,0,1,665.55,187.27Z"/><path class="cls-3" d="M669.86,192.69c0,1.4,0,1.59.74,1.69l.47.06a.34.34,0,0,1,0,.49c-.64,0-1.2-.06-1.88-.06s-1.28,0-1.86.06a.34.34,0,0,1,0-.49l.45-.06c.72-.1.74-.29.74-1.69v-8.78c0-1.15,0-1.26-.6-1.61l-.19-.12a.29.29,0,0,1,0-.39,13.88,13.88,0,0,0,2.1-.82.21.21,0,0,1,.19.12c0,.58-.06,1.55-.06,2.41Z"/><path class="cls-3" d="M675.12,192c0,1.34.33,2.23,1.81,2.23a2.54,2.54,0,0,0,1.57-.58,1.35,1.35,0,0,0,.39-1.13v-3.19c0-1.26-.14-1.3-.72-1.53l-.25-.1a.26.26,0,0,1,0-.43,7.76,7.76,0,0,0,2.27-.35c.1,0,.16.06.17.14,0,.37-.06,1-.06,1.69V192c0,1.53.06,2.12.6,2.12a3.72,3.72,0,0,0,.76-.1c.12.1.14.49,0,.56a10.12,10.12,0,0,0-2.54.72.27.27,0,0,1-.23-.14v-.8c0-.17-.06-.27-.17-.27a5.08,5.08,0,0,1-2.68,1c-1.71,0-2.35-.85-2.35-2.43v-3.24c0-1.22,0-1.4-.58-1.65l-.23-.1a.29.29,0,0,1,0-.43,6.88,6.88,0,0,0,2.08-.35c.12,0,.17.06.19.14a14.55,14.55,0,0,0-.06,1.69Z"/><path class="cls-3" d="M687.82,187.29a4.53,4.53,0,0,1,.31,1.57.34.34,0,0,1-.47.06,1.89,1.89,0,0,0-1.71-1.42,1.15,1.15,0,0,0-1.24,1.19c0,.8.82,1.22,1.5,1.61,1,.58,2,1.24,2,2.62s-1.36,2.21-2.8,2.21a3.23,3.23,0,0,1-2.08-.58,5.79,5.79,0,0,1-.23-2,.33.33,0,0,1,.45,0c.33,1.07,1,2,2.06,2a1.2,1.2,0,0,0,1.3-1.24c0-.89-.78-1.38-1.5-1.79-1.13-.64-1.92-1.32-1.92-2.39,0-1.42,1.17-2.21,2.64-2.21A3.44,3.44,0,0,1,687.82,187.29Z"/><path class="cls-3" d="M691.2,189.29c0-.76,0-.85-.52-1.2l-.17-.12a.27.27,0,0,1,0-.35,13.28,13.28,0,0,0,2-1,.18.18,0,0,1,.19.12c0,.68-.08,1.61-.08,2.41v3.5c0,1.4,0,1.59.74,1.69l.41.06a.34.34,0,0,1,0,.49c-.58,0-1.15-.06-1.83-.06s-1.28,0-1.83.06a.34.34,0,0,1,0-.49l.41-.06c.72-.1.74-.29.74-1.69Zm1.61-5.54a1,1,0,0,1-2,0,1,1,0,0,1,1-1A1,1,0,0,1,692.81,183.76Z"/><path class="cls-3" d="M703.57,191a4,4,0,0,1-4.1,4.18,3.84,3.84,0,0,1-4-4,4.08,4.08,0,0,1,4.14-4.2A3.88,3.88,0,0,1,703.57,191Zm-4.18-3.44c-1.28,0-2.23,1.22-2.23,3.36,0,1.77.8,3.67,2.51,3.67s2.23-1.79,2.23-3.28C701.9,189.63,701.24,187.53,699.4,187.53Z"/><path class="cls-3" d="M706.68,189.29c0-.76,0-.85-.52-1.2L706,188a.27.27,0,0,1,0-.35,10.53,10.53,0,0,0,1.94-1,.23.23,0,0,1,.21.14c0,.45,0,.74,0,.91a.2.2,0,0,0,.21.21,5.33,5.33,0,0,1,2.72-1,2.16,2.16,0,0,1,2.27,2.41v3.34c0,1.4,0,1.59.74,1.69l.43.06a.34.34,0,0,1,0,.49c-.58,0-1.15-.06-1.83-.06s-1.28,0-1.81.06a.34.34,0,0,1,0-.49l.37-.06c.72-.12.74-.29.74-1.69V189.8a1.68,1.68,0,0,0-1.83-1.92,2.12,2.12,0,0,0-1.65.68,1.64,1.64,0,0,0-.29,1.17v3c0,1.4,0,1.57.74,1.69l.35.06a.34.34,0,0,1,0,.49c-.52,0-1.09-.06-1.77-.06s-1.28,0-1.83.06a.34.34,0,0,1,0-.49l.41-.06c.72-.1.74-.29.74-1.69Z"/><path class="cls-1" d="M93.36,221.73c0-.76,0-.85-.52-1.2l-.17-.12a.27.27,0,0,1,0-.35,11.75,11.75,0,0,0,1.92-1,.22.22,0,0,1,.23.14,8.72,8.72,0,0,0-.08.89c0,.14,0,.25.17.25a6.18,6.18,0,0,1,2.72-.91,3.29,3.29,0,0,1,3.22,3.55,4.53,4.53,0,0,1-4.74,4.64,7.32,7.32,0,0,1-1.07-.08c-.17,0-.27.14-.27.54v2c0,1.38,0,1.55.74,1.65l.76.1a.34.34,0,0,1,0,.49c-.93,0-1.5-.06-2.18-.06s-1.28,0-1.83.06a.34.34,0,0,1,0-.49l.41-.06c.72-.1.74-.29.74-1.69Zm1.44,3.61a1.25,1.25,0,0,0,.58,1.17,2.55,2.55,0,0,0,1.4.43c1.59,0,2.52-1.48,2.52-3.5,0-1.55-.87-3.13-2.62-3.13a2.39,2.39,0,0,0-1.65.54c-.17.21-.23.5-.23,1.15Z"/><path class="cls-1" d="M110.84,223.4a4,4,0,0,1-4.1,4.18,3.84,3.84,0,0,1-4-4,4.08,4.08,0,0,1,4.14-4.2A3.88,3.88,0,0,1,110.84,223.4ZM106.66,220c-1.28,0-2.23,1.22-2.23,3.36,0,1.77.8,3.67,2.51,3.67s2.23-1.79,2.23-3.28C109.17,222.06,108.5,220,106.66,220Z"/><path class="cls-1" d="M113.26,221.54c-.45-1.09-.68-1.28-1.17-1.4l-.31-.08c-.1-.1-.12-.39.06-.47.6,0,1.15.06,1.73.06s1.17,0,1.69-.06a.31.31,0,0,1,0,.47l-.45.08c-.27,0-.43.16-.43.27a4,4,0,0,0,.31,1l1.2,3c.17.45.35.8.35.84a4.34,4.34,0,0,0,.45-.93l1-2.35c.25-.62.27-.87.17-1.13a1.09,1.09,0,0,0-.89-.68l-.31-.08a.3.3,0,0,1,.06-.47c.49,0,1.11.06,1.61.06s1.19,0,1.85-.06c.17.06.17.37.06.47l-.41.08c-.78.16-.74.21-.51.89s1.26,3.11,1.48,3.63a2,2,0,0,0,.25.54,3.18,3.18,0,0,0,.27-.54c.25-.56,1-2.62,1.32-3.44a2.78,2.78,0,0,0,.19-.83c0-.12-.12-.21-.35-.25l-.49-.08a.3.3,0,0,1,0-.47c.56,0,1,.06,1.53.06s.83,0,1.26-.06a.32.32,0,0,1,.06.47l-.39.08c-.47.1-.64.37-1,1.22-.52,1.09-1.46,3.42-1.83,4.41-.27.7-.51,1.26-.66,1.77a.39.39,0,0,1-.25.08.3.3,0,0,1-.21-.08c-.12-.35-.47-1.36-.8-2.14l-.93-2.23a10,10,0,0,0-.45-1,9,9,0,0,0-.43,1l-1,2.43c-.35.83-.62,1.53-.78,2a.31.31,0,0,1-.23.08.34.34,0,0,1-.23-.08c-.12-.41-.43-1.21-.58-1.61Z"/><path class="cls-1" d="M127.55,222.34c-.51,0-.52,0-.52.52,0,2,1.15,3.63,3.22,3.63a2.09,2.09,0,0,0,1.79-1,.26.26,0,0,1,.35.23,3.4,3.4,0,0,1-3,1.81,3.48,3.48,0,0,1-2.82-1.28,4.13,4.13,0,0,1-.82-2.53c0-2.39,1.57-4.39,3.9-4.39a2.54,2.54,0,0,1,2.76,2.31,1.2,1.2,0,0,1-.08.5c-.06.12-.33.14-1.15.14Zm1.2-.58c1.44,0,1.86-.08,2-.19s.12-.12.12-.37c0-.54-.37-1.22-1.5-1.22a2.28,2.28,0,0,0-2.16,1.69s0,.1.14.1Z"/><path class="cls-1" d="M135.15,221.73c0-.76,0-.85-.52-1.2l-.17-.12a.27.27,0,0,1,0-.35,14.94,14.94,0,0,0,2-1c.1,0,.16.06.16.14v1.13c0,.1,0,.16.06.17a3.92,3.92,0,0,1,2.14-1.17.8.8,0,0,1,.87.78.86.86,0,0,1-.84.89.74.74,0,0,1-.43-.14,1.59,1.59,0,0,0-.85-.31.86.86,0,0,0-.7.39,3,3,0,0,0-.25,1.5v2.64c0,1.4,0,1.63.78,1.69l.7.06a.34.34,0,0,1,0,.49c-.91,0-1.48-.06-2.16-.06s-1.28,0-1.79.06a.34.34,0,0,1,0-.49l.37-.06c.72-.12.74-.29.74-1.69Z"/><path class="cls-1" d="M142.54,222.34c-.51,0-.52,0-.52.52,0,2,1.15,3.63,3.22,3.63a2.09,2.09,0,0,0,1.79-1,.26.26,0,0,1,.35.23,3.4,3.4,0,0,1-3,1.81,3.48,3.48,0,0,1-2.82-1.28,4.13,4.13,0,0,1-.82-2.53c0-2.39,1.57-4.39,3.9-4.39a2.54,2.54,0,0,1,2.76,2.31,1.2,1.2,0,0,1-.08.5c-.06.12-.33.14-1.15.14Zm1.2-.58c1.44,0,1.86-.08,2-.19s.12-.12.12-.37c0-.54-.37-1.22-1.5-1.22a2.28,2.28,0,0,0-2.16,1.69s0,.1.14.1Z"/><path class="cls-1" d="M156.47,224.47c0,1.53,0,2.25.56,2.25a3.15,3.15,0,0,0,.83-.19c.14,0,.16.52,0,.62a14.63,14.63,0,0,0-2.56.62c-.12,0-.21-.06-.21-.16v-.33a2.15,2.15,0,0,0,0-.6H155a4,4,0,0,1-2.45.89,3.57,3.57,0,0,1-3.59-3.73,4.41,4.41,0,0,1,4.7-4.47,4,4,0,0,1,1.3.17c.1,0,.12-.12.12-.27v-2.93c0-1.15,0-1.26-.6-1.61l-.19-.12a.29.29,0,0,1,0-.39,13.87,13.87,0,0,0,2.1-.82.21.21,0,0,1,.19.12c0,.58-.06,1.55-.06,2.41ZM155,221.56a1.14,1.14,0,0,0-.21-.76,2,2,0,0,0-1.63-.82c-1.77,0-2.68,1.54-2.68,3.22s1,3.44,2.89,3.44a2.38,2.38,0,0,0,1.5-.54,1.18,1.18,0,0,0,.14-.72Z"/><path class="cls-1" d="M165.48,216.35c0-1.15,0-1.26-.6-1.61l-.19-.12a.29.29,0,0,1,0-.39,17.91,17.91,0,0,0,2.12-.82.21.21,0,0,1,.19.12c0,.68-.08,1.55-.08,2.41v3.67c0,.33.08.41.19.41a4.49,4.49,0,0,1,2.23-.64,3.64,3.64,0,0,1,3.71,3.81,4.25,4.25,0,0,1-4.47,4.39,5.57,5.57,0,0,1-1.65-.25,4.16,4.16,0,0,0-.82-.25c-.16,0-.31.16-.41.29s0,0-.08,0a.21.21,0,0,1-.19-.12c0-.27,0-.64,0-1.65Zm1.44,8.31a2.68,2.68,0,0,0,.49,1.69,1.85,1.85,0,0,0,1.48.64c1.83,0,2.54-1.55,2.54-3.22,0-2-1-3.55-3-3.55a2.54,2.54,0,0,0-1.32.31c-.19.14-.23.35-.23,1.11Z"/><path class="cls-1" d="M174.6,231.31a.72.72,0,0,1,.78-.78h.37a.7.7,0,0,0,.64-.35,12.4,12.4,0,0,0,1.13-2.16,3,3,0,0,0,.19-.83,3.69,3.69,0,0,0-.33-1.34l-1.51-4.16c-.33-.91-.47-1.38-1.15-1.52l-.49-.1c-.12-.1-.1-.43.06-.49.62,0,1.2.06,1.85.06s1.07,0,1.69-.06c.16.06.17.39,0,.49l-.49.1c-.27.06-.43.12-.43.25a14.69,14.69,0,0,0,.56,1.83l.62,1.79a10.82,10.82,0,0,0,.56,1.38,9.58,9.58,0,0,0,.72-1.44l.66-1.54a9,9,0,0,0,.68-1.94c0-.14-.12-.27-.47-.33l-.6-.1c-.14-.1-.12-.43,0-.49.62,0,1.2.06,1.71.06s.93,0,1.48-.06a.33.33,0,0,1,0,.49l-.33.06c-.64.12-1,.68-1.65,2.06l-1.09,2.23c-.64,1.3-2.23,4.68-3.19,6.8a1.29,1.29,0,0,1-1.24.91A.78.78,0,0,1,174.6,231.31Z"/><path class="cls-1" d="M192.9,227.62a6.06,6.06,0,0,1-3-.72,9,9,0,0,1-.52-2.72c.1-.14.39-.17.47-.06a3.53,3.53,0,0,0,3.34,2.89,2.21,2.21,0,0,0,2.43-2.23,2.92,2.92,0,0,0-1.59-2.72l-1.85-1.21a4.14,4.14,0,0,1-2.1-3.34c0-1.84,1.44-3.34,4-3.34a7.47,7.47,0,0,1,1.81.25,2.63,2.63,0,0,0,.68.12,8.49,8.49,0,0,1,.35,2.37c-.08.12-.39.17-.49.06a2.54,2.54,0,0,0-2.64-2.19,2,2,0,0,0-2.31,2.16,3.06,3.06,0,0,0,1.65,2.39l1.55,1A4.38,4.38,0,0,1,197,224C197,226.16,195.42,227.62,192.9,227.62Z"/><path class="cls-1" d="M207.09,223.4a4,4,0,0,1-4.1,4.18,3.84,3.84,0,0,1-4-4,4.08,4.08,0,0,1,4.14-4.2A3.88,3.88,0,0,1,207.09,223.4ZM202.92,220c-1.28,0-2.23,1.22-2.23,3.36,0,1.77.8,3.67,2.51,3.67s2.23-1.79,2.23-3.28C205.42,222.06,204.76,220,202.92,220Z"/><path class="cls-1" d="M215.42,219.71a1.1,1.1,0,0,1,.29.78c0,.35-.19.72-.43.72a.34.34,0,0,1-.27-.14,2.65,2.65,0,0,0-1.94-1c-1.36,0-2.68,1.07-2.68,3.13a3.19,3.19,0,0,0,3.13,3.32,2.37,2.37,0,0,0,2.16-1.17.31.31,0,0,1,.35.27,3.54,3.54,0,0,1-3.24,2,3.77,3.77,0,0,1-2.66-1,3.87,3.87,0,0,1-1.13-2.87,4.32,4.32,0,0,1,4.7-4.33A4.84,4.84,0,0,1,215.42,219.71Z"/><path class="cls-1" d="M218.49,221.73c0-.76,0-.85-.52-1.2l-.17-.12a.27.27,0,0,1,0-.35,13.28,13.28,0,0,0,2-1,.18.18,0,0,1,.19.12c0,.68-.08,1.61-.08,2.41v3.5c0,1.4,0,1.59.74,1.69l.41.06a.34.34,0,0,1,0,.49c-.58,0-1.15-.06-1.83-.06s-1.28,0-1.83.06a.34.34,0,0,1,0-.49l.41-.06c.72-.1.74-.29.74-1.69Zm1.61-5.54a1,1,0,0,1-2,0,1,1,0,0,1,1-1A1,1,0,0,1,220.1,216.2Z"/><path class="cls-1" d="M226.7,223.29c.29-.1.33-.27.33-.56l0-.89c0-.72-.21-1.69-1.42-1.69-.54,0-1.2.27-1.24.87,0,.31,0,.54-.19.66a2.09,2.09,0,0,1-1.11.37.25.25,0,0,1-.27-.27c0-1,2.19-2.39,3.61-2.39s2.08.82,2,2.27l-.12,3.38c0,.89.14,1.69.89,1.69a1.11,1.11,0,0,0,.49-.12c.1-.06.19-.14.25-.14s.14.12.14.25a2,2,0,0,1-1.63.85,1.55,1.55,0,0,1-1.26-.6c-.08-.12-.19-.27-.31-.27a3,3,0,0,0-.76.39,2.87,2.87,0,0,1-1.4.49,2,2,0,0,1-1.36-.45,1.82,1.82,0,0,1-.6-1.36c0-.76.37-1.21,1.61-1.65Zm-1.2,3.42a2.19,2.19,0,0,0,1.18-.49c.23-.23.23-.5.25-.91l0-1.15c0-.21-.08-.25-.19-.25a3.69,3.69,0,0,0-.8.19c-1.15.39-1.71.68-1.71,1.44A1.17,1.17,0,0,0,225.5,226.71Z"/><path class="cls-1" d="M233.62,225.13c0,1.4,0,1.59.74,1.69l.47.06a.34.34,0,0,1,0,.49c-.64,0-1.2-.06-1.88-.06s-1.28,0-1.86.06a.34.34,0,0,1,0-.49l.45-.06c.72-.1.74-.29.74-1.69v-8.78c0-1.15,0-1.26-.6-1.61l-.19-.12a.29.29,0,0,1,0-.39,13.88,13.88,0,0,0,2.1-.82.21.21,0,0,1,.19.12c0,.58-.06,1.55-.06,2.41Z"/><path class="cls-1" d="M243.66,217.4c0-2,0-2.31-1.19-2.45l-.31,0c-.12-.08-.08-.43,0-.49.84,0,1.5.06,2.29.06h3.65c1.24,0,2.39,0,2.62-.06a21.78,21.78,0,0,1,.31,2.58.38.38,0,0,1-.49,0c-.29-.91-.47-1.59-1.48-1.85a9.32,9.32,0,0,0-1.88-.12h-1.4c-.58,0-.58,0-.58.78v3.89c0,.54.06.54.64.54H247a7.19,7.19,0,0,0,1.65-.12c.23-.08.37-.19.47-.68l.16-.8a.38.38,0,0,1,.5,0c0,.47-.08,1.22-.08,2s.08,1.44.08,1.87a.38.38,0,0,1-.5,0l-.17-.76a.83.83,0,0,0-.6-.74,6.54,6.54,0,0,0-1.5-.1h-1.13c-.58,0-.64,0-.64.52v2.74c0,1,.06,1.69.37,2s.64.45,2.35.45a5.68,5.68,0,0,0,2.49-.29,4.88,4.88,0,0,0,1.38-1.88.36.36,0,0,1,.49.14,16.92,16.92,0,0,1-.87,2.7c-1.75,0-3.48-.06-5.21-.06h-1.75c-.84,0-1.5,0-2.64.06a.38.38,0,0,1,0-.49l.64-.06c1.11-.1,1.2-.39,1.2-2.43Z"/><path class="cls-1" d="M254.61,221a1.73,1.73,0,0,0-1.17-.84l-.31-.06c-.12-.1-.1-.43,0-.49.76,0,1.2.06,1.69.06s.89,0,1.65-.06a.36.36,0,0,1,0,.49l-.29.06c-.52.1-.51.21-.17.68l.93,1.36a2.93,2.93,0,0,0,.25.33c.08-.06.72-1,1.13-1.65s.27-.6-.16-.72l-.23-.06a.34.34,0,0,1,.08-.49c.45,0,1,.06,1.42.06s1,0,1.42-.06a.34.34,0,0,1,0,.49l-.29.06a2.25,2.25,0,0,0-1,.33,17.5,17.5,0,0,0-1.83,2.21c-.23.31-.23.37,0,.72l1.81,2.54c.45.62.76.87,1.28.91l.31,0c.12.12.1.43,0,.49q-1.08-.06-1.92-.06c-.72,0-1.22,0-1.85.06a.33.33,0,0,1-.06-.49l.56-.06c.56-.06.58-.23.33-.58l-1-1.46a2.85,2.85,0,0,0-.43-.56,3.45,3.45,0,0,0-.35.47L255.7,226c-.39.62-.43.78.06.85l.33.06c.12.1.1.43,0,.49-.49,0-1-.06-1.44-.06s-.91,0-1.42.06a.33.33,0,0,1,0-.49l.45-.08a1.64,1.64,0,0,0,1-.58c.41-.43,1.28-1.73,1.73-2.27.17-.21.21-.29.06-.5Z"/><path class="cls-1" d="M263.48,221.73c0-.76,0-.85-.52-1.2l-.17-.12a.27.27,0,0,1,0-.35,11.75,11.75,0,0,0,1.92-1,.22.22,0,0,1,.23.14,8.72,8.72,0,0,0-.08.89c0,.14,0,.25.17.25a6.18,6.18,0,0,1,2.72-.91,3.29,3.29,0,0,1,3.22,3.55,4.53,4.53,0,0,1-4.74,4.64,7.32,7.32,0,0,1-1.07-.08c-.17,0-.27.14-.27.54v2c0,1.38,0,1.55.74,1.65l.76.1a.34.34,0,0,1,0,.49c-.93,0-1.5-.06-2.18-.06s-1.28,0-1.83.06a.34.34,0,0,1,0-.49l.41-.06c.72-.1.74-.29.74-1.69Zm1.44,3.61a1.25,1.25,0,0,0,.58,1.17,2.55,2.55,0,0,0,1.4.43c1.59,0,2.52-1.48,2.52-3.5,0-1.55-.87-3.13-2.62-3.13a2.39,2.39,0,0,0-1.65.54c-.17.21-.23.5-.23,1.15Z"/><path class="cls-1" d="M275.35,225.13c0,1.4,0,1.59.74,1.69l.47.06a.34.34,0,0,1,0,.49c-.64,0-1.2-.06-1.88-.06s-1.28,0-1.86.06a.34.34,0,0,1,0-.49l.45-.06c.72-.1.74-.29.74-1.69v-8.78c0-1.15,0-1.26-.6-1.61l-.19-.12a.29.29,0,0,1,0-.39,13.88,13.88,0,0,0,2.1-.82.21.21,0,0,1,.19.12c0,.58-.06,1.55-.06,2.41Z"/><path class="cls-1" d="M286.28,223.4a4,4,0,0,1-4.1,4.18,3.84,3.84,0,0,1-4-4,4.08,4.08,0,0,1,4.14-4.2A3.88,3.88,0,0,1,286.28,223.4ZM282.11,220c-1.28,0-2.23,1.22-2.23,3.36,0,1.77.8,3.67,2.51,3.67s2.23-1.79,2.23-3.28C284.61,222.06,284,220,282.11,220Z"/><path class="cls-1" d="M289.39,221.73c0-.76,0-.85-.52-1.2l-.17-.12a.27.27,0,0,1,0-.35,14.94,14.94,0,0,0,2-1c.1,0,.16.06.16.14v1.13c0,.1,0,.16.06.17a3.92,3.92,0,0,1,2.14-1.17.8.8,0,0,1,.87.78.86.86,0,0,1-.84.89.74.74,0,0,1-.43-.14,1.59,1.59,0,0,0-.85-.31.86.86,0,0,0-.7.39,3,3,0,0,0-.25,1.5v2.64c0,1.4,0,1.63.78,1.69l.7.06a.34.34,0,0,1,0,.49c-.91,0-1.48-.06-2.16-.06s-1.28,0-1.79.06a.34.34,0,0,1,0-.49l.37-.06c.72-.12.74-.29.74-1.69Z"/><path class="cls-1" d="M296.79,222.34c-.51,0-.52,0-.52.52,0,2,1.15,3.63,3.22,3.63a2.09,2.09,0,0,0,1.79-1,.26.26,0,0,1,.35.23,3.4,3.4,0,0,1-3,1.81,3.48,3.48,0,0,1-2.82-1.28,4.13,4.13,0,0,1-.82-2.53c0-2.39,1.57-4.39,3.9-4.39a2.54,2.54,0,0,1,2.76,2.31,1.2,1.2,0,0,1-.08.5c-.06.12-.33.14-1.15.14Zm1.2-.58c1.44,0,1.86-.08,2-.19s.12-.12.12-.37c0-.54-.37-1.22-1.5-1.22a2.28,2.28,0,0,0-2.16,1.69s0,.1.14.1Z"/><path class="cls-1" d="M304.38,221.73c0-.76,0-.85-.52-1.2l-.17-.12a.27.27,0,0,1,0-.35,14.94,14.94,0,0,0,2-1c.1,0,.16.06.16.14v1.13c0,.1,0,.16.06.17a3.92,3.92,0,0,1,2.14-1.17.8.8,0,0,1,.87.78.86.86,0,0,1-.84.89.74.74,0,0,1-.43-.14,1.59,1.59,0,0,0-.85-.31.86.86,0,0,0-.7.39,3,3,0,0,0-.25,1.5v2.64c0,1.4,0,1.63.78,1.69l.7.06a.34.34,0,0,1,0,.49c-.91,0-1.48-.06-2.16-.06s-1.28,0-1.79.06a.34.34,0,0,1,0-.49l.37-.06c.72-.12.74-.29.74-1.69Z"/><rect class="cls-4" x="91.87" y="190.78" width="362.5" height="1"/></svg>