<svg id="Layer_1" data-name="Layer 1" xmlns="http://www.w3.org/2000/svg" viewBox="0 0 622.7 100.76"><defs><style>.cls-1{fill:#2d2d2d;}.cls-2{fill:#707171;}.cls-3{fill:#c02026;}.cls-4{fill:#e0e0e0;}.cls-5{fill:#a09f9f;}.cls-6{fill:#231f20;}</style></defs><title>3</title><path class="cls-1" d="M94,134.71c-.92,0-1,0-1.27.77l-1.5,4.45a4.48,4.48,0,0,0-.27,1.38c0,.23.5.46,1.57.65l1.15.19c.23.27.31,1.15-.08,1.34-1.34-.08-2.73-.08-4.34-.12-1.31,0-2.19.12-4,.12-.42-.23-.38-1-.12-1.34l1-.12a2.64,2.64,0,0,0,2.34-1.92c.65-1.54,1.38-3.38,2.42-6.14l3.49-9.37c.88-2.42,1.54-3.76,1.42-4.87a7.7,7.7,0,0,0,3.34-2.3c.5,0,.73.19.88.77.31,1.11.77,2.53,1.73,5.26l5.22,15c.81,2.3,1.15,3.19,2.57,3.42l1.46.23c.23.19.31,1.11,0,1.34-1.84-.08-3.92-.12-5.91-.12s-3.42,0-5.18.12a.87.87,0,0,1-.08-1.34l1.23-.19c.88-.15,1-.42,1-.65a16.16,16.16,0,0,0-.73-2.61l-1-3.3c-.19-.62-.5-.69-1.84-.69Zm4.38-2c.88,0,1.07-.12.77-1.11l-1-3.11c-.54-1.65-1.23-3.72-1.57-4.53-.31.88-1.07,3-1.65,4.72l-1,2.88c-.35,1-.15,1.15.81,1.15Z" transform="translate(-83.62 -117.08)"/><path class="cls-1" d="M136.18,136.86c0,2.49,0,4.91.08,6.18a3,3,0,0,1-2.26.88s-1.31-2-3.11-4.18l-8.87-11a56.3,56.3,0,0,0-4.18-4.91,6.79,6.79,0,0,0-.19,2.46v7.45c0,3.11.15,6,.58,7,.35.8,1.23,1.07,2.23,1.23l1.07.15a1.22,1.22,0,0,1,0,1.34c-2.07-.08-3.61-.12-5.14-.12s-2.84,0-4.3.12a1.22,1.22,0,0,1,0-1.34l.65-.12c1-.19,1.8-.46,2.11-1.27.42-1,.54-3.92.54-7V124c0-2.11,0-2.73-.27-3.26s-.84-1.11-2.19-1.3l-1.07-.15c-.27-.31-.23-1.23.15-1.34,1.8.08,3.72.12,5.3.12,1.31,0,2.42,0,3.22-.12.38,1.73,2.88,4.65,6.33,8.75l3.22,3.8c1.69,2,2.8,3.34,3.69,4.22a5.52,5.52,0,0,0,.15-1.73v-5.3c0-3.11-.15-6-.58-7-.35-.81-1.19-1.08-2.23-1.23l-1-.15a1.22,1.22,0,0,1,0-1.34c2.07.08,3.57.12,5.14.12,1.42,0,2.8,0,4.3-.12a1.22,1.22,0,0,1,0,1.34l-.69.12a2.35,2.35,0,0,0-2.07,1.27c-.42,1-.58,3.92-.58,7Z" transform="translate(-83.62 -117.08)"/><path class="cls-1" d="M150.69,120.92c0-.92,0-1.11-.92-1.11h-2.38c-2.8,0-3.61,1.54-4.76,4.34a1.08,1.08,0,0,1-1.42-.34,47,47,0,0,0,1.27-6.53.92.92,0,0,1,.54-.19.88.88,0,0,1,.54.15c.19.65.31.81,3.22.81h14.28c2.53,0,3.11,0,3.46-.84a1,1,0,0,1,.5-.12.82.82,0,0,1,.58.27A27.21,27.21,0,0,0,165,124c-.19.35-1.23.42-1.42.12-.65-2.46-1.19-4.26-4.07-4.26h-2.3c-.92,0-1,.12-1,1.11v16.93c0,3.57.23,3.88,2,4.11l1.54.19a1.22,1.22,0,0,1,0,1.34c-2.5-.08-4.42-.12-6.14-.12s-3.84,0-6.53.12a1.1,1.1,0,0,1,0-1.34l1.73-.19c1.73-.19,2-.54,2-4.11Z" transform="translate(-83.62 -117.08)"/><path class="cls-1" d="M176.57,137.78c0,3.61.23,3.88,2,4.19l1.07.19a1.1,1.1,0,0,1,0,1.34c-2.07-.08-4-.12-5.76-.12s-3.76,0-5.84.12a1.1,1.1,0,0,1,0-1.34l1.07-.19c1.77-.31,2-.58,2-4.19V123.65c0-3.61-.23-3.88-2-4.19l-1.07-.19a1.1,1.1,0,0,1,0-1.34c2.07.08,4,.12,5.84.12s3.72,0,5.8-.12a1.1,1.1,0,0,1,0,1.34l-1.07.19c-1.77.31-2,.58-2,4.19Z" transform="translate(-83.62 -117.08)"/><path class="cls-1" d="M192.88,133.44a2.41,2.41,0,0,1,.54,1.61,2.59,2.59,0,0,1-.5,1.5l-9.21.85a2.18,2.18,0,0,1-.58-1.54,2.35,2.35,0,0,1,.58-1.57Z" transform="translate(-83.62 -117.08)"/><path class="cls-1" d="M200,124.26c0-3.65-.08-4.37-1.84-4.57l-.73-.08c-.38-.19-.38-1.3.08-1.34,3.22-.19,6.22-.35,10.29-.35a26.81,26.81,0,0,1,8.95,1.27,11.64,11.64,0,0,1,7.79,11.13,12.24,12.24,0,0,1-6.87,11.48c-2.61,1.31-5.76,1.8-9.71,1.8-1.8,0-3.72-.23-5.11-.23-1.84,0-3.8,0-6,.12a1.09,1.09,0,0,1,0-1.34L198,142c1.73-.27,2-.58,2-4.11Zm5.49,12.17c0,2.11.08,3.49.77,4.3a4.14,4.14,0,0,0,3.19,1.11c6.64,0,8.91-5.91,8.91-11.13,0-6.91-3.65-11-10.6-11a2.78,2.78,0,0,0-2,.5,4.68,4.68,0,0,0-.27,2.23Z" transform="translate(-83.62 -117.08)"/><path class="cls-1" d="M237,137.78c0,3.61.23,3.88,2,4.19l1.08.19a1.1,1.1,0,0,1,0,1.34c-2.07-.08-4-.12-5.76-.12s-3.76,0-5.84.12a1.1,1.1,0,0,1,0-1.34l1.08-.19c1.77-.31,2-.58,2-4.19V123.65c0-3.61-.23-3.88-2-4.19l-1.08-.19a1.1,1.1,0,0,1,0-1.34c2.07.08,4,.12,5.84.12s3.72,0,5.8-.12a1.1,1.1,0,0,1,0,1.34l-1.08.19c-1.77.31-2,.58-2,4.19Z" transform="translate(-83.62 -117.08)"/><path class="cls-1" d="M251,144a13.33,13.33,0,0,1-6.53-1.46c-.73-.85-1.23-3.61-1.23-6.22a1,1,0,0,1,1.46-.11c.77,2.49,3.34,6,6.6,6a3.82,3.82,0,0,0,4.15-3.88c0-3.11-2.92-5-5.22-6.1-2.76-1.38-5.8-3.69-5.8-7.49,0-4.34,3.34-7.33,8.91-7.33a15.56,15.56,0,0,1,4.38.61,8.92,8.92,0,0,0,1.31.31,18.71,18.71,0,0,1,.69,5.49c-.19.46-1.15.5-1.5.12-.65-2-2.3-4.76-5.07-4.76a3.57,3.57,0,0,0-3.92,3.57c0,1.77,1.57,3.38,3.49,4.38l2.53,1.34c2.38,1.27,5.41,3.49,5.41,7.72C260.68,140.92,256.8,144,251,144Z" transform="translate(-83.62 -117.08)"/><path class="cls-1" d="M287.55,118.43a51,51,0,0,0,.46,6,1.05,1.05,0,0,1-1.46.27,7,7,0,0,0-7.22-5.49c-4.26,0-8.83,3.65-8.83,11.29s4.42,11.75,9,11.75,6.8-3.34,7.83-6a1.1,1.1,0,0,1,1.46.27,17,17,0,0,1-1.46,6,28.54,28.54,0,0,1-7.79,1.42c-3.76,0-7.6-.88-10.33-2.92A12.05,12.05,0,0,1,264.36,131,12.68,12.68,0,0,1,269,120.85a16.8,16.8,0,0,1,10.63-3.42A46.8,46.8,0,0,1,287.55,118.43Z" transform="translate(-83.62 -117.08)"/><path class="cls-1" d="M294.69,124.26c0-3.84-.08-4.26-1.69-4.49l-1-.15a.87.87,0,0,1,.08-1.34c2.88-.19,5.87-.35,9.52-.35,3.26,0,6.07.5,7.52,1.38a6.29,6.29,0,0,1,3.38,5.68c0,3.42-2.3,4.87-4.07,5.76-.38.19-.38.42-.19.85,2.53,5.14,4.11,8,6,9.6a4.68,4.68,0,0,0,2.57,1.07.73.73,0,0,1,.15,1,9.23,9.23,0,0,1-3,.35c-3.53,0-5.76-1.27-7.45-4a48.07,48.07,0,0,1-3-5.95,2,2,0,0,0-2-1.34c-1.34,0-1.42.08-1.42.84v4.72c0,3.53.23,3.8,2,4.11l1,.19a1.22,1.22,0,0,1,0,1.34c-2-.08-3.8-.12-5.64-.12s-3.61,0-5.6.12a1.09,1.09,0,0,1,0-1.34l1-.19c1.73-.31,2-.58,2-4.11Zm5.26,4.88c0,1.34.12,1.46,2.38,1.46a3.68,3.68,0,0,0,2.92-1.08,5.58,5.58,0,0,0,1.38-4.15c0-3.46-2-5.68-5-5.68-1.57,0-1.65.12-1.65,2Z" transform="translate(-83.62 -117.08)"/><path class="cls-1" d="M326.7,137.78c0,3.61.23,3.88,2,4.19l1.08.19a1.1,1.1,0,0,1,0,1.34c-2.07-.08-4-.12-5.76-.12s-3.76,0-5.84.12a1.1,1.1,0,0,1,0-1.34l1.08-.19c1.77-.31,2-.58,2-4.19V123.65c0-3.61-.23-3.88-2-4.19l-1.08-.19a1.1,1.1,0,0,1,0-1.34c2.07.08,4,.12,5.84.12s3.72,0,5.8-.12a1.1,1.1,0,0,1,0,1.34l-1.08.19c-1.77.31-2,.58-2,4.19Z" transform="translate(-83.62 -117.08)"/><path class="cls-1" d="M333.42,119.27c-.31-.31-.31-1.23.12-1.34,1.31.08,3,.12,4.84.12,1.27,0,2.38,0,3.76-.12,0,2.38,1.34,4.72,3,8.33l2.53,5.41c.35.77,1.73,3.19,2.27,4.15.5-.92,1.11-2.11,2.15-4.38l2-4.22a48,48,0,0,0,3.65-9.29,35,35,0,0,0,3.8.12c1.27,0,3,0,4.42-.12a1,1,0,0,1,.12,1.34l-1.11.19c-1.57.27-2.34.73-2.34,2.77,0,7.91.08,12.05.31,16.89.08,1.77.23,2.69,1.73,2.88l1.23.15c.31.31.31,1.19-.08,1.34-1.77-.08-3.42-.12-5.3-.12-1.73,0-3.84,0-5.68.12a.87.87,0,0,1-.12-1.34l1.15-.15c1.77-.23,1.77-.69,1.77-3l-.08-10v-4.38h-.08c-2.84,6.14-5.91,12.55-8.45,19a1.24,1.24,0,0,1-.77.27,2,2,0,0,1-1-.23c-1.5-4.76-6.22-14.28-8.37-19.27h-.08c-.15,2.5-.19,4.19-.23,6.18,0,2.49-.08,6.33-.08,8.64,0,1.92.23,2.46,1.77,2.69l1.5.23a1.09,1.09,0,0,1-.08,1.34c-1.42-.08-3.07-.12-4.53-.12-1.23,0-2.69,0-4.22.12-.5-.15-.5-1.15-.15-1.34l.69-.12c2-.35,2.19-.58,2.42-3,.19-1.88.31-5.22.54-8.87.15-2.57.23-5.68.23-7.75s-.84-2.77-2.38-3Z" transform="translate(-83.62 -117.08)"/><path class="cls-1" d="M377.88,137.78c0,3.61.23,3.88,2,4.19l1.08.19a1.1,1.1,0,0,1,0,1.34c-2.07-.08-4-.12-5.76-.12s-3.76,0-5.84.12a1.1,1.1,0,0,1,0-1.34l1.08-.19c1.77-.31,2-.58,2-4.19V123.65c0-3.61-.23-3.88-2-4.19l-1.08-.19a1.1,1.1,0,0,1,0-1.34c2.07.08,4,.12,5.84.12s3.72,0,5.8-.12a1.1,1.1,0,0,1,0,1.34l-1.08.19c-1.77.31-2,.58-2,4.19Z" transform="translate(-83.62 -117.08)"/><path class="cls-1" d="M408.32,136.86c0,2.49,0,4.91.08,6.18a3,3,0,0,1-2.27.88s-1.31-2-3.11-4.18l-8.87-11a56.31,56.31,0,0,0-4.18-4.91,6.79,6.79,0,0,0-.19,2.46v7.45c0,3.11.15,6,.58,7,.35.8,1.23,1.07,2.23,1.23l1.08.15a1.22,1.22,0,0,1,0,1.34c-2.07-.08-3.61-.12-5.14-.12s-2.84,0-4.3.12a1.22,1.22,0,0,1,0-1.34l.65-.12c1-.19,1.8-.46,2.11-1.27.42-1,.54-3.92.54-7V124c0-2.11,0-2.73-.27-3.26s-.84-1.11-2.19-1.3l-1.08-.15c-.27-.31-.23-1.23.15-1.34,1.8.08,3.72.12,5.3.12,1.31,0,2.42,0,3.23-.12.38,1.73,2.88,4.65,6.33,8.75l3.22,3.8c1.69,2,2.8,3.34,3.69,4.22a5.51,5.51,0,0,0,.15-1.73v-5.3c0-3.11-.15-6-.58-7-.35-.81-1.19-1.08-2.23-1.23l-1-.15a1.22,1.22,0,0,1,0-1.34c2.07.08,3.57.12,5.14.12,1.42,0,2.8,0,4.3-.12a1.22,1.22,0,0,1,0,1.34l-.69.12a2.35,2.35,0,0,0-2.07,1.27c-.42,1-.58,3.92-.58,7Z" transform="translate(-83.62 -117.08)"/><path class="cls-1" d="M420.91,134.71c-.92,0-1,0-1.27.77l-1.5,4.45a4.48,4.48,0,0,0-.27,1.38c0,.23.5.46,1.57.65l1.15.19c.23.27.31,1.15-.08,1.34-1.34-.08-2.73-.08-4.34-.12-1.31,0-2.19.12-4,.12-.42-.23-.38-1-.12-1.34l1-.12a2.64,2.64,0,0,0,2.34-1.92c.65-1.54,1.38-3.38,2.42-6.14l3.49-9.37c.88-2.42,1.54-3.76,1.42-4.87a7.7,7.7,0,0,0,3.34-2.3c.5,0,.73.19.88.77.31,1.11.77,2.53,1.73,5.26l5.22,15c.81,2.3,1.15,3.19,2.57,3.42l1.46.23c.23.19.31,1.11,0,1.34-1.84-.08-3.92-.12-5.91-.12s-3.42,0-5.18.12a.87.87,0,0,1-.08-1.34L428,142c.88-.15,1-.42,1-.65a16.14,16.14,0,0,0-.73-2.61l-1-3.3c-.19-.62-.5-.69-1.84-.69Zm4.38-2c.88,0,1.08-.12.77-1.11l-1-3.11c-.54-1.65-1.23-3.72-1.57-4.53-.31.88-1.07,3-1.65,4.72l-1,2.88c-.35,1-.15,1.15.81,1.15Z" transform="translate(-83.62 -117.08)"/><path class="cls-1" d="M445.13,120.92c0-.92,0-1.11-.92-1.11h-2.38c-2.8,0-3.61,1.54-4.76,4.34a1.08,1.08,0,0,1-1.42-.34,47,47,0,0,0,1.27-6.53.91.91,0,0,1,.54-.19.88.88,0,0,1,.54.15c.19.65.31.81,3.23.81H455.5c2.53,0,3.11,0,3.46-.84a1,1,0,0,1,.5-.12.82.82,0,0,1,.58.27,27.2,27.2,0,0,0-.58,6.6c-.19.35-1.23.42-1.42.12-.65-2.46-1.19-4.26-4.07-4.26h-2.3c-.92,0-1,.12-1,1.11v16.93c0,3.57.23,3.88,2,4.11l1.54.19a1.22,1.22,0,0,1,0,1.34c-2.5-.08-4.42-.12-6.14-.12s-3.84,0-6.53.12a1.1,1.1,0,0,1,0-1.34l1.73-.19c1.73-.19,2-.54,2-4.11Z" transform="translate(-83.62 -117.08)"/><path class="cls-1" d="M471,137.78c0,3.61.23,3.88,2,4.19l1.08.19a1.1,1.1,0,0,1,0,1.34c-2.07-.08-4-.12-5.76-.12s-3.76,0-5.84.12a1.1,1.1,0,0,1,0-1.34l1.08-.19c1.77-.31,2-.58,2-4.19V123.65c0-3.61-.23-3.88-2-4.19l-1.08-.19a1.1,1.1,0,0,1,0-1.34c2.07.08,4,.12,5.84.12s3.72,0,5.8-.12a1.1,1.1,0,0,1,0,1.34l-1.08.19c-1.77.31-2,.58-2,4.19Z" transform="translate(-83.62 -117.08)"/><path class="cls-1" d="M505.13,130.6c0,8.37-5.61,13.4-13.86,13.4-7.72,0-13.32-5.07-13.32-13.09,0-7.6,5.68-13.47,13.71-13.47S505.13,122.8,505.13,130.6Zm-13.78-11.4c-4.72,0-7.26,4.41-7.26,10.83,0,4.68,1.65,12.21,7.91,12.21,5,0,7-4.91,7-11.13C499,124.53,496.11,119.2,491.35,119.2Z" transform="translate(-83.62 -117.08)"/><path class="cls-1" d="M532.74,136.86c0,2.49,0,4.91.08,6.18a3,3,0,0,1-2.27.88s-1.31-2-3.11-4.18l-8.87-11a56.31,56.31,0,0,0-4.18-4.91,6.79,6.79,0,0,0-.19,2.46v7.45c0,3.11.15,6,.58,7,.35.8,1.23,1.07,2.23,1.23l1.08.15a1.22,1.22,0,0,1,0,1.34c-2.07-.08-3.61-.12-5.14-.12s-2.84,0-4.3.12a1.22,1.22,0,0,1,0-1.34l.65-.12c1-.19,1.8-.46,2.11-1.27.42-1,.54-3.92.54-7V124c0-2.11,0-2.73-.27-3.26s-.84-1.11-2.19-1.3l-1.08-.15c-.27-.31-.23-1.23.15-1.34,1.8.08,3.72.12,5.3.12,1.31,0,2.42,0,3.23-.12.38,1.73,2.88,4.65,6.33,8.75l3.22,3.8c1.69,2,2.8,3.34,3.69,4.22a5.51,5.51,0,0,0,.15-1.73v-5.3c0-3.11-.15-6-.58-7-.35-.81-1.19-1.08-2.23-1.23l-1-.15a1.22,1.22,0,0,1,0-1.34c2.07.08,3.57.12,5.14.12,1.42,0,2.8,0,4.3-.12a1.22,1.22,0,0,1,0,1.34l-.69.12a2.35,2.35,0,0,0-2.07,1.27c-.42,1-.58,3.92-.58,7Z" transform="translate(-83.62 -117.08)"/><path class="cls-2" d="M572.43,118.43a51.07,51.07,0,0,0,.46,6,1.05,1.05,0,0,1-1.46.27,7,7,0,0,0-7.22-5.49c-4.26,0-8.83,3.65-8.83,11.29s4.42,11.75,9,11.75,6.79-3.34,7.83-6a1.1,1.1,0,0,1,1.46.27,17,17,0,0,1-1.46,6,28.54,28.54,0,0,1-7.79,1.42c-3.76,0-7.6-.88-10.33-2.92A12.05,12.05,0,0,1,549.24,131a12.68,12.68,0,0,1,4.65-10.17,16.8,16.8,0,0,1,10.63-3.42A46.77,46.77,0,0,1,572.43,118.43Z" transform="translate(-83.62 -117.08)"/><path class="cls-2" d="M585.06,128c0,1.07,0,1.15,1.07,1.15h2.65c2,0,2.46-.27,2.84-2.11l.19-1c.27-.31,1.23-.31,1.42,0-.08,1.23-.12,2.61-.12,4.07s0,2.84.12,4.07a1.1,1.1,0,0,1-1.42,0l-.19-1c-.38-1.84-.84-2.15-2.84-2.15h-2.65c-1,0-1.07,0-1.07,1.19V137c0,1.77.15,3,.61,3.65s1.23,1,4,1c3.34,0,4.65-.12,6.76-4.45a.93.93,0,0,1,1.42.19,21.76,21.76,0,0,1-1.61,6.14c-2-.08-5.72-.12-8.87-.12h-5c-1.84,0-3.72,0-6.6.12a1.09,1.09,0,0,1,0-1.34l1.8-.27c1.73-.27,2-.5,2-4V123.53c0-3.49-.23-3.72-2-4.07l-1-.19a1,1,0,0,1,.08-1.34c1.8.08,3.69.12,5.53.12h8.14c2.46,0,4.65,0,5.14-.12,0,.62.31,3.38.5,6-.15.42-1,.5-1.42.15a8.88,8.88,0,0,0-1.46-3,5,5,0,0,0-3.76-1.19h-3.07c-1.27,0-1.27.08-1.27,1.5Z" transform="translate(-83.62 -117.08)"/><path class="cls-2" d="M624,136.86c0,2.49,0,4.91.08,6.18a3,3,0,0,1-2.27.88s-1.31-2-3.11-4.18l-8.87-11a56.31,56.31,0,0,0-4.18-4.91,6.79,6.79,0,0,0-.19,2.46v7.45c0,3.11.15,6,.58,7,.35.8,1.23,1.07,2.23,1.23l1.08.15a1.22,1.22,0,0,1,0,1.34c-2.07-.08-3.61-.12-5.14-.12s-2.84,0-4.3.12a1.22,1.22,0,0,1,0-1.34l.65-.12c1-.19,1.8-.46,2.11-1.27.42-1,.54-3.92.54-7V124c0-2.11,0-2.73-.27-3.26s-.84-1.11-2.19-1.3l-1.08-.15c-.27-.31-.23-1.23.15-1.34,1.8.08,3.72.12,5.3.12,1.31,0,2.42,0,3.22-.12.38,1.73,2.88,4.65,6.33,8.75l3.22,3.8c1.69,2,2.8,3.34,3.69,4.22a5.51,5.51,0,0,0,.15-1.73v-5.3c0-3.11-.15-6-.58-7-.35-.81-1.19-1.08-2.23-1.23l-1-.15a1.22,1.22,0,0,1,0-1.34c2.07.08,3.57.12,5.14.12,1.42,0,2.8,0,4.3-.12a1.22,1.22,0,0,1,0,1.34l-.69.12a2.35,2.35,0,0,0-2.07,1.27c-.42,1-.58,3.92-.58,7Z" transform="translate(-83.62 -117.08)"/><path class="cls-2" d="M638.53,120.92c0-.92,0-1.11-.92-1.11h-2.38c-2.8,0-3.61,1.54-4.76,4.34a1.08,1.08,0,0,1-1.42-.34,47,47,0,0,0,1.27-6.53.91.91,0,0,1,.54-.19.88.88,0,0,1,.54.15c.19.65.31.81,3.23.81H648.9c2.53,0,3.11,0,3.46-.84a1,1,0,0,1,.5-.12.82.82,0,0,1,.58.27,27.2,27.2,0,0,0-.58,6.6c-.19.35-1.23.42-1.42.12-.65-2.46-1.19-4.26-4.07-4.26h-2.3c-.92,0-1,.12-1,1.11v16.93c0,3.57.23,3.88,2,4.11l1.54.19a1.22,1.22,0,0,1,0,1.34c-2.5-.08-4.42-.12-6.14-.12s-3.84,0-6.53.12a1.1,1.1,0,0,1,0-1.34l1.73-.19c1.73-.19,2-.54,2-4.11Z" transform="translate(-83.62 -117.08)"/><path class="cls-2" d="M664.41,128c0,1.07,0,1.15,1.07,1.15h2.65c2,0,2.46-.27,2.84-2.11l.19-1c.27-.31,1.23-.31,1.42,0-.08,1.23-.12,2.61-.12,4.07s0,2.84.12,4.07a1.1,1.1,0,0,1-1.42,0l-.19-1c-.38-1.84-.84-2.15-2.84-2.15h-2.65c-1,0-1.07,0-1.07,1.19V137c0,1.77.15,3,.61,3.65s1.23,1,4,1c3.34,0,4.65-.12,6.76-4.45a.93.93,0,0,1,1.42.19,21.76,21.76,0,0,1-1.61,6.14c-2-.08-5.72-.12-8.87-.12h-5c-1.84,0-3.72,0-6.6.12a1.09,1.09,0,0,1,0-1.34l1.8-.27c1.73-.27,2-.5,2-4V123.53c0-3.49-.23-3.72-2-4.07l-1-.19a1,1,0,0,1,.08-1.34c1.8.08,3.69.12,5.53.12h8.14c2.46,0,4.65,0,5.14-.12,0,.62.31,3.38.5,6-.15.42-1,.5-1.42.15a8.88,8.88,0,0,0-1.46-3,5,5,0,0,0-3.76-1.19h-3.07c-1.27,0-1.27.08-1.27,1.5Z" transform="translate(-83.62 -117.08)"/><path class="cls-2" d="M682.72,124.26c0-3.84-.08-4.26-1.69-4.49l-1-.15a.87.87,0,0,1,.08-1.34c2.88-.19,5.87-.35,9.52-.35,3.26,0,6.07.5,7.52,1.38a6.29,6.29,0,0,1,3.38,5.68c0,3.42-2.3,4.87-4.07,5.76-.38.19-.38.42-.19.85,2.53,5.14,4.11,8,6,9.6a4.68,4.68,0,0,0,2.57,1.07.73.73,0,0,1,.15,1,9.23,9.23,0,0,1-3,.35c-3.53,0-5.76-1.27-7.45-4a48.13,48.13,0,0,1-3-5.95,2,2,0,0,0-2-1.34c-1.34,0-1.42.08-1.42.84v4.72c0,3.53.23,3.8,2,4.11l1,.19a1.22,1.22,0,0,1,0,1.34c-2-.08-3.8-.12-5.64-.12s-3.61,0-5.61.12a1.1,1.1,0,0,1,0-1.34l1-.19c1.73-.31,2-.58,2-4.11Zm5.26,4.88c0,1.34.12,1.46,2.38,1.46a3.68,3.68,0,0,0,2.92-1.08,5.58,5.58,0,0,0,1.38-4.15c0-3.46-2-5.68-5-5.68-1.57,0-1.65.12-1.65,2Z" transform="translate(-83.62 -117.08)"/><path class="cls-3" d="M453.06,159.19a6.71,6.71,0,0,1,6.92-6.86,6.39,6.39,0,0,1,6.74,6.66,6.63,6.63,0,0,1-6.74,6.78A6.54,6.54,0,0,1,453.06,159.19Zm11.71.41c0-3.21-1.42-6.66-5.13-6.66-2,0-4.64,1.38-4.64,5.63,0,2.88,1.4,6.6,5.23,6.6C462.55,165.18,464.77,163.43,464.77,159.6Z" transform="translate(-83.62 -117.08)"/><path class="cls-3" d="M469.91,159.89c0-.76,0-.85-.52-1.2l-.17-.12a.27.27,0,0,1,0-.35,10.53,10.53,0,0,0,1.94-1,.23.23,0,0,1,.21.14c0,.45,0,.74,0,.91a.2.2,0,0,0,.21.21,5.33,5.33,0,0,1,2.72-1,2.16,2.16,0,0,1,2.27,2.41v3.34c0,1.4,0,1.59.74,1.69l.43.06a.34.34,0,0,1,0,.49c-.58,0-1.15-.06-1.83-.06s-1.28,0-1.81.06a.34.34,0,0,1,0-.49l.37-.06c.72-.12.74-.29.74-1.69V160.4a1.68,1.68,0,0,0-1.83-1.92,2.12,2.12,0,0,0-1.65.68,1.64,1.64,0,0,0-.29,1.17v3c0,1.4,0,1.57.74,1.69l.35.06a.34.34,0,0,1,0,.49c-.52,0-1.09-.06-1.77-.06s-1.28,0-1.83.06a.34.34,0,0,1,0-.49l.41-.06c.72-.1.74-.29.74-1.69Z" transform="translate(-83.62 -117.08)"/><path class="cls-3" d="M481.25,160.5c-.51,0-.52,0-.52.52,0,2,1.15,3.63,3.22,3.63a2.09,2.09,0,0,0,1.79-1,.26.26,0,0,1,.35.23,3.4,3.4,0,0,1-3,1.81,3.48,3.48,0,0,1-2.82-1.28,4.13,4.13,0,0,1-.82-2.53c0-2.39,1.57-4.39,3.9-4.39a2.54,2.54,0,0,1,2.76,2.31,1.2,1.2,0,0,1-.08.5c-.06.12-.33.14-1.15.14Zm1.2-.58c1.44,0,1.86-.08,2-.19s.12-.12.12-.37c0-.54-.37-1.22-1.5-1.22a2.28,2.28,0,0,0-2.16,1.69s0,.1.14.1Z" transform="translate(-83.62 -117.08)"/><path class="cls-3" d="M495.62,154a8.37,8.37,0,0,1,5.24-1.65,15,15,0,0,1,3.44.47,1.46,1.46,0,0,0,.54.08c0,.45.12,1.67.27,2.86a.41.41,0,0,1-.52,0c-.29-1.32-1.17-2.84-4-2.84-3,0-5.5,1.88-5.5,5.9s2.58,6.33,5.77,6.33a4.14,4.14,0,0,0,4.06-2.78.41.41,0,0,1,.5.08,7.31,7.31,0,0,1-.93,2.66,3.89,3.89,0,0,0-.68.19,11.45,11.45,0,0,1-3.07.45,8.51,8.51,0,0,1-4.84-1.3,6.26,6.26,0,0,1-2.76-5.34A6.45,6.45,0,0,1,495.62,154Z" transform="translate(-83.62 -117.08)"/><path class="cls-3" d="M515.12,161.56a4,4,0,0,1-4.1,4.18,3.84,3.84,0,0,1-4-4,4.08,4.08,0,0,1,4.14-4.2A3.88,3.88,0,0,1,515.12,161.56Zm-4.18-3.44c-1.28,0-2.23,1.22-2.23,3.36,0,1.77.8,3.67,2.51,3.67s2.23-1.79,2.23-3.28C513.45,160.22,512.79,158.13,510.94,158.13Z" transform="translate(-83.62 -117.08)"/><path class="cls-3" d="M528.52,160.48c0-1.32-.58-2-1.81-2a2.09,2.09,0,0,0-1.61.68c-.23.29-.29.49-.29,1.17v3c0,1.4,0,1.59.74,1.69l.41.06a.34.34,0,0,1,0,.49c-.58,0-1.15-.06-1.83-.06s-1.22,0-1.77.06a.34.34,0,0,1,0-.49l.35-.06c.72-.12.74-.29.74-1.69v-2.82c0-1.3-.58-2-1.79-2a2.08,2.08,0,0,0-1.63.7,1.51,1.51,0,0,0-.29,1.11v3c0,1.4,0,1.57.74,1.69l.35.06a.34.34,0,0,1,0,.49c-.52,0-1.09-.06-1.77-.06s-1.28,0-1.88.06a.34.34,0,0,1,0-.49l.47-.06c.72-.1.74-.29.74-1.69v-3.4c0-.76,0-.85-.52-1.2l-.17-.12a.27.27,0,0,1,0-.35,10.53,10.53,0,0,0,1.94-1,.23.23,0,0,1,.21.14c0,.45,0,.74,0,.91a.2.2,0,0,0,.21.21,4.67,4.67,0,0,1,2.58-1,2.22,2.22,0,0,1,2.06,1.15.61.61,0,0,0,.49-.16,4.87,4.87,0,0,1,2.64-1A2.2,2.2,0,0,1,530,160v3.34c0,1.4,0,1.59.74,1.69l.47.06a.34.34,0,0,1,0,.49c-.64,0-1.2-.06-1.88-.06s-1.22,0-1.77.06a.34.34,0,0,1,0-.49l.35-.06c.72-.12.74-.29.74-1.69Z" transform="translate(-83.62 -117.08)"/><path class="cls-3" d="M544.33,160.48c0-1.32-.58-2-1.81-2a2.09,2.09,0,0,0-1.61.68c-.23.29-.29.49-.29,1.17v3c0,1.4,0,1.59.74,1.69l.41.06a.34.34,0,0,1,0,.49c-.58,0-1.15-.06-1.83-.06s-1.22,0-1.77.06a.34.34,0,0,1,0-.49l.35-.06c.72-.12.74-.29.74-1.69v-2.82c0-1.3-.58-2-1.79-2a2.08,2.08,0,0,0-1.63.7,1.51,1.51,0,0,0-.29,1.11v3c0,1.4,0,1.57.74,1.69l.35.06a.34.34,0,0,1,0,.49c-.52,0-1.09-.06-1.77-.06s-1.28,0-1.88.06a.34.34,0,0,1,0-.49l.47-.06c.72-.1.74-.29.74-1.69v-3.4c0-.76,0-.85-.52-1.2l-.17-.12a.27.27,0,0,1,0-.35,10.53,10.53,0,0,0,1.94-1,.23.23,0,0,1,.21.14c0,.45,0,.74,0,.91a.2.2,0,0,0,.21.21,4.67,4.67,0,0,1,2.58-1,2.22,2.22,0,0,1,2.06,1.15.61.61,0,0,0,.49-.16,4.87,4.87,0,0,1,2.64-1,2.2,2.2,0,0,1,2.31,2.41v3.34c0,1.4,0,1.59.74,1.69l.47.06a.34.34,0,0,1,0,.49c-.64,0-1.2-.06-1.88-.06s-1.22,0-1.77.06a.34.34,0,0,1,0-.49l.35-.06c.72-.12.74-.29.74-1.69Z" transform="translate(-83.62 -117.08)"/><path class="cls-3" d="M551,162.61c0,1.34.33,2.23,1.81,2.23a2.54,2.54,0,0,0,1.57-.58,1.35,1.35,0,0,0,.39-1.13V160c0-1.26-.14-1.3-.72-1.53l-.25-.1a.26.26,0,0,1,0-.43,7.76,7.76,0,0,0,2.27-.35c.1,0,.16.06.17.14,0,.37-.06,1-.06,1.69v3.26c0,1.53.06,2.12.6,2.12a3.72,3.72,0,0,0,.76-.1c.12.1.14.49,0,.56a10.12,10.12,0,0,0-2.54.72.27.27,0,0,1-.23-.14V165c0-.17-.06-.27-.17-.27a5.08,5.08,0,0,1-2.68,1c-1.71,0-2.35-.85-2.35-2.43v-3.24c0-1.22,0-1.4-.58-1.65l-.23-.1a.29.29,0,0,1,0-.43,6.88,6.88,0,0,0,2.08-.35c.12,0,.17.06.19.14a14.55,14.55,0,0,0-.06,1.69Z" transform="translate(-83.62 -117.08)"/><path class="cls-3" d="M560.3,159.89c0-.76,0-.85-.52-1.2l-.17-.12a.27.27,0,0,1,0-.35,10.53,10.53,0,0,0,1.94-1,.23.23,0,0,1,.21.14c0,.45,0,.74,0,.91a.2.2,0,0,0,.21.21,5.33,5.33,0,0,1,2.72-1,2.16,2.16,0,0,1,2.27,2.41v3.34c0,1.4,0,1.59.74,1.69l.43.06a.34.34,0,0,1,0,.49c-.58,0-1.15-.06-1.83-.06s-1.28,0-1.81.06a.34.34,0,0,1,0-.49l.37-.06c.72-.12.74-.29.74-1.69V160.4a1.68,1.68,0,0,0-1.83-1.92,2.12,2.12,0,0,0-1.65.68,1.64,1.64,0,0,0-.29,1.17v3c0,1.4,0,1.57.74,1.69l.35.06a.34.34,0,0,1,0,.49c-.52,0-1.09-.06-1.77-.06s-1.28,0-1.83.06a.34.34,0,0,1,0-.49l.41-.06c.72-.1.74-.29.74-1.69Z" transform="translate(-83.62 -117.08)"/><path class="cls-3" d="M571,159.89c0-.76,0-.85-.52-1.2l-.17-.12a.27.27,0,0,1,0-.35,13.28,13.28,0,0,0,2-1c.1,0,.17,0,.19.12,0,.68-.08,1.61-.08,2.41v3.5c0,1.4,0,1.59.74,1.69l.41.06a.34.34,0,0,1,0,.49c-.58,0-1.15-.06-1.83-.06s-1.28,0-1.83.06a.34.34,0,0,1,0-.49l.41-.06c.72-.1.74-.29.74-1.69Zm1.61-5.54a1,1,0,0,1-2,0,1,1,0,0,1,1-1A1,1,0,0,1,572.64,154.36Z" transform="translate(-83.62 -117.08)"/><path class="cls-3" d="M578.13,158.63c-.33,0-.35.06-.35.47v3.63c0,1.13.14,2.16,1.42,2.16a1.48,1.48,0,0,0,.52-.1c.17-.06.43-.27.49-.27s.23.21.19.33a2.69,2.69,0,0,1-2,.89c-1.67,0-2-.93-2-2.1v-4.45c0-.52,0-.56-.41-.56h-.54a.32.32,0,0,1-.06-.41,3.86,3.86,0,0,0,1.24-.6,4.81,4.81,0,0,0,.82-1.15c.1,0,.33,0,.41.1v.87c0,.35,0,.37.35.37h2.16a.62.62,0,0,1,0,.82Z" transform="translate(-83.62 -117.08)"/><path class="cls-3" d="M581.59,169.47a.72.72,0,0,1,.78-.78h.37a.7.7,0,0,0,.64-.35,12.4,12.4,0,0,0,1.13-2.16,3,3,0,0,0,.19-.83,3.69,3.69,0,0,0-.33-1.34l-1.51-4.16c-.33-.91-.47-1.38-1.15-1.52l-.49-.1c-.12-.1-.1-.43.06-.49.62,0,1.2.06,1.85.06s1.07,0,1.69-.06c.16.06.17.39,0,.49l-.49.1c-.27.06-.43.12-.43.25a14.69,14.69,0,0,0,.56,1.83l.62,1.79a10.82,10.82,0,0,0,.56,1.38,9.58,9.58,0,0,0,.72-1.44l.66-1.54a9,9,0,0,0,.68-1.94c0-.14-.12-.27-.47-.33l-.6-.1c-.14-.1-.12-.43,0-.49.62,0,1.2.06,1.71.06s.93,0,1.48-.06a.33.33,0,0,1,0,.49l-.33.06c-.64.12-1,.68-1.65,2.06l-1.09,2.23c-.64,1.3-2.23,4.68-3.19,6.8a1.29,1.29,0,0,1-1.24.91A.78.78,0,0,1,581.59,169.47Z" transform="translate(-83.62 -117.08)"/><path class="cls-3" d="M592.23,165c0,1.53-1.17,2.41-2.53,2.82a.32.32,0,0,1-.12-.47c.6-.19,1.59-.68,1.59-1.69,0-.82-.93-1-1.11-1.13a.58.58,0,0,1-.33-.56.88.88,0,0,1,1-.87A1.71,1.71,0,0,1,592.23,165Z" transform="translate(-83.62 -117.08)"/><path class="cls-3" d="M612.19,162.17c0,.58,0,2.89.06,3.4a.35.35,0,0,1-.37.21c-.23-.33-.8-1-2.49-2.93l-4.51-5.13c-.52-.6-1.85-2.2-2.25-2.62h0a4.94,4.94,0,0,0-.1,1.26v4.23a15.19,15.19,0,0,0,.35,4c.12.21.5.33,1,.37l.6.06a.36.36,0,0,1,0,.49c-.87,0-1.55-.06-2.27-.06s-1.34,0-2,.06a.36.36,0,0,1,0-.49l.52-.06c.45-.06.76-.17.85-.39a18.76,18.76,0,0,0,.25-4V155a1.78,1.78,0,0,0-.43-1.4,2.1,2.1,0,0,0-1.2-.47l-.33,0c-.12-.12-.12-.41,0-.49.82.06,1.85.06,2.19.06a6.39,6.39,0,0,0,.89-.06,26.75,26.75,0,0,0,3.32,4.27l1.88,2.12c1.34,1.5,2.29,2.58,3.21,3.52h0a2,2,0,0,0,.08-.82v-4.16c0-.91,0-3.44-.39-4-.12-.17-.43-.29-1.2-.39l-.33,0c-.14-.12-.12-.43,0-.49.89,0,1.55.06,2.29.06s1.34,0,2-.06a.34.34,0,0,1,0,.49l-.27,0c-.62.1-1,.25-1.09.41a15.68,15.68,0,0,0-.29,4Z" transform="translate(-83.62 -117.08)"/><path class="cls-3" d="M623.16,161.56a4,4,0,0,1-4.1,4.18,3.84,3.84,0,0,1-4-4,4.08,4.08,0,0,1,4.14-4.2A3.88,3.88,0,0,1,623.16,161.56ZM619,158.13c-1.28,0-2.23,1.22-2.23,3.36,0,1.77.8,3.67,2.51,3.67s2.23-1.79,2.23-3.28C621.49,160.22,620.83,158.13,619,158.13Z" transform="translate(-83.62 -117.08)"/><path class="cls-3" d="M632.23,155.56c0-2,0-2.31-1.19-2.45l-.31,0c-.12-.08-.08-.43,0-.49.84,0,1.5.06,2.29.06h3.65c1.24,0,2.39,0,2.62-.06a21.78,21.78,0,0,1,.31,2.58.38.38,0,0,1-.49,0c-.29-.91-.47-1.59-1.48-1.85a9.32,9.32,0,0,0-1.88-.12h-1.4c-.58,0-.58,0-.58.78v3.89c0,.54.06.54.64.54h1.13a7.19,7.19,0,0,0,1.65-.12c.23-.08.37-.19.47-.68l.16-.8a.38.38,0,0,1,.5,0c0,.47-.08,1.22-.08,2s.08,1.44.08,1.87a.38.38,0,0,1-.5,0l-.17-.76a.83.83,0,0,0-.6-.74,6.54,6.54,0,0,0-1.5-.1h-1.13c-.58,0-.64,0-.64.52v2.74c0,1,.06,1.69.37,2s.64.45,2.35.45a5.68,5.68,0,0,0,2.49-.29,4.88,4.88,0,0,0,1.38-1.88.36.36,0,0,1,.49.14,16.92,16.92,0,0,1-.87,2.7c-1.75,0-3.48-.06-5.21-.06h-1.75c-.84,0-1.5,0-2.64.06a.38.38,0,0,1,0-.49L631,165c1.11-.1,1.2-.39,1.2-2.43Z" transform="translate(-83.62 -117.08)"/><path class="cls-3" d="M643.18,159.14a1.73,1.73,0,0,0-1.17-.84l-.31-.06c-.12-.1-.1-.43,0-.49.76,0,1.2.06,1.69.06s.89,0,1.65-.06a.36.36,0,0,1,0,.49l-.29.06c-.52.1-.51.21-.17.68l.93,1.36a2.93,2.93,0,0,0,.25.33c.08-.06.72-1,1.13-1.65s.27-.6-.16-.72l-.23-.06a.34.34,0,0,1,.08-.49c.45,0,1,.06,1.42.06s1,0,1.42-.06a.34.34,0,0,1,0,.49l-.29.06a2.25,2.25,0,0,0-1,.33,17.51,17.51,0,0,0-1.83,2.21c-.23.31-.23.37,0,.72l1.81,2.54c.45.62.76.87,1.28.91l.31,0c.12.12.1.43,0,.49q-1.08-.06-1.92-.06c-.72,0-1.22,0-1.85.06A.33.33,0,0,1,646,165l.56-.06c.56-.06.58-.23.33-.58l-1-1.46a2.85,2.85,0,0,0-.43-.56,3.45,3.45,0,0,0-.35.47l-.82,1.28c-.39.62-.43.78.06.85l.33.06c.12.1.1.43,0,.49-.49,0-1-.06-1.44-.06s-.91,0-1.42.06a.33.33,0,0,1,0-.49l.45-.08a1.64,1.64,0,0,0,1-.58c.41-.43,1.28-1.73,1.73-2.27.17-.21.21-.29.06-.5Z" transform="translate(-83.62 -117.08)"/><path class="cls-3" d="M657.3,157.87a1.1,1.1,0,0,1,.29.78c0,.35-.19.72-.43.72a.34.34,0,0,1-.27-.14,2.65,2.65,0,0,0-1.94-1c-1.36,0-2.68,1.07-2.68,3.13a3.19,3.19,0,0,0,3.13,3.32,2.37,2.37,0,0,0,2.16-1.17.31.31,0,0,1,.35.27,3.54,3.54,0,0,1-3.24,2,3.77,3.77,0,0,1-2.66-1,3.87,3.87,0,0,1-1.13-2.87,4.32,4.32,0,0,1,4.7-4.33A4.84,4.84,0,0,1,657.3,157.87Z" transform="translate(-83.62 -117.08)"/><path class="cls-3" d="M661.61,163.29c0,1.4,0,1.59.74,1.69l.47.06a.34.34,0,0,1,0,.49c-.64,0-1.2-.06-1.88-.06s-1.28,0-1.86.06a.34.34,0,0,1,0-.49l.45-.06c.72-.1.74-.29.74-1.69v-8.78c0-1.15,0-1.26-.6-1.61l-.19-.12a.29.29,0,0,1,0-.39,13.88,13.88,0,0,0,2.1-.82.21.21,0,0,1,.19.12c0,.58-.06,1.55-.06,2.41Z" transform="translate(-83.62 -117.08)"/><path class="cls-3" d="M666.87,162.61c0,1.34.33,2.23,1.81,2.23a2.54,2.54,0,0,0,1.57-.58,1.35,1.35,0,0,0,.39-1.13V160c0-1.26-.14-1.3-.72-1.53l-.25-.1a.26.26,0,0,1,0-.43,7.76,7.76,0,0,0,2.27-.35c.1,0,.16.06.17.14,0,.37-.06,1-.06,1.69v3.26c0,1.53.06,2.12.6,2.12a3.72,3.72,0,0,0,.76-.1c.12.1.14.49,0,.56a10.12,10.12,0,0,0-2.54.72.27.27,0,0,1-.23-.14V165c0-.17-.06-.27-.17-.27a5.08,5.08,0,0,1-2.68,1c-1.71,0-2.35-.85-2.35-2.43v-3.24c0-1.22,0-1.4-.58-1.65l-.23-.1a.29.29,0,0,1,0-.43,6.88,6.88,0,0,0,2.08-.35c.12,0,.17.06.19.14a14.55,14.55,0,0,0-.06,1.69Z" transform="translate(-83.62 -117.08)"/><path class="cls-3" d="M679.57,157.89a4.53,4.53,0,0,1,.31,1.57.34.34,0,0,1-.47.06,1.89,1.89,0,0,0-1.71-1.42,1.15,1.15,0,0,0-1.24,1.19c0,.8.82,1.22,1.5,1.61,1,.58,2,1.24,2,2.62s-1.36,2.21-2.8,2.21a3.23,3.23,0,0,1-2.08-.58,5.79,5.79,0,0,1-.23-2,.33.33,0,0,1,.45,0c.33,1.07,1,2,2.06,2a1.2,1.2,0,0,0,1.3-1.24c0-.89-.78-1.38-1.5-1.79-1.13-.64-1.92-1.32-1.92-2.39,0-1.42,1.17-2.21,2.64-2.21A3.44,3.44,0,0,1,679.57,157.89Z" transform="translate(-83.62 -117.08)"/><path class="cls-3" d="M683,159.89c0-.76,0-.85-.52-1.2l-.17-.12a.27.27,0,0,1,0-.35,13.28,13.28,0,0,0,2-1,.18.18,0,0,1,.19.12c0,.68-.08,1.61-.08,2.41v3.5c0,1.4,0,1.59.74,1.69l.41.06a.34.34,0,0,1,0,.49c-.58,0-1.15-.06-1.83-.06s-1.28,0-1.83.06a.34.34,0,0,1,0-.49l.41-.06c.72-.1.74-.29.74-1.69Zm1.61-5.54a1,1,0,0,1-2,0,1,1,0,0,1,1-1A1,1,0,0,1,684.56,154.36Z" transform="translate(-83.62 -117.08)"/><path class="cls-3" d="M695.32,161.56a4,4,0,0,1-4.1,4.18,3.84,3.84,0,0,1-4-4,4.08,4.08,0,0,1,4.14-4.2A3.88,3.88,0,0,1,695.32,161.56Zm-4.18-3.44c-1.28,0-2.23,1.22-2.23,3.36,0,1.77.8,3.67,2.51,3.67s2.23-1.79,2.23-3.28C693.65,160.22,693,158.13,691.15,158.13Z" transform="translate(-83.62 -117.08)"/><path class="cls-3" d="M698.43,159.89c0-.76,0-.85-.52-1.2l-.17-.12a.27.27,0,0,1,0-.35,10.53,10.53,0,0,0,1.94-1,.23.23,0,0,1,.21.14c0,.45,0,.74,0,.91a.2.2,0,0,0,.21.21,5.33,5.33,0,0,1,2.72-1,2.16,2.16,0,0,1,2.27,2.41v3.34c0,1.4,0,1.59.74,1.69l.43.06a.34.34,0,0,1,0,.49c-.58,0-1.15-.06-1.83-.06s-1.28,0-1.81.06a.34.34,0,0,1,0-.49l.37-.06c.72-.12.74-.29.74-1.69V160.4a1.68,1.68,0,0,0-1.83-1.92,2.12,2.12,0,0,0-1.65.68,1.64,1.64,0,0,0-.29,1.17v3c0,1.4,0,1.57.74,1.69l.35.06a.34.34,0,0,1,0,.49c-.52,0-1.09-.06-1.77-.06s-1.28,0-1.83.06a.34.34,0,0,1,0-.49l.41-.06c.72-.1.74-.29.74-1.69Z" transform="translate(-83.62 -117.08)"/><rect class="cls-4" y="44.3" width="362.5" height="1"/><circle class="cls-5" cx="276.85" cy="77.44" r="2.59"/><circle class="cls-5" cx="284.73" cy="77.44" r="2.59"/><circle class="cls-5" cx="276.85" cy="85.31" r="2.59"/><circle class="cls-5" cx="284.73" cy="85.31" r="2.59"/><circle class="cls-5" cx="292.6" cy="85.31" r="2.59"/><path class="cls-5" d="M370.94,210.27a2.59,2.59,0,1,1-2.59-2.59A2.64,2.64,0,0,1,370.94,210.27Z" transform="translate(-83.62 -117.08)"/><path class="cls-5" d="M378.81,210.27a2.59,2.59,0,1,1-2.59-2.59A2.64,2.64,0,0,1,378.81,210.27Z" transform="translate(-83.62 -117.08)"/><path class="cls-5" d="M386.49,209.87a8.89,8.89,0,0,0,1.89.7,5,5,0,0,0,1.59.3,3.55,3.55,0,0,0,2.29-.8,2.51,2.51,0,0,0,.8-2.09,3.89,3.89,0,0,0-1-1.89,14.36,14.36,0,0,0-2.69-2c-.6-.4-1.1-.7-1.59-1.1s-.9-.7-1.1-.9a4.14,4.14,0,0,1-1.2-2c0-.2-.1-.6-.1-1a3.94,3.94,0,0,1,1.69-3.39,8.14,8.14,0,0,1,4.48-1.2,13.81,13.81,0,0,1,4,.6v2.39a5.77,5.77,0,0,0-3-.7,3.91,3.91,0,0,0-2.29.6,2.19,2.19,0,0,0-.9,1.89,2.24,2.24,0,0,0,.8,1.49,6.27,6.27,0,0,0,1.1.8c.4.3,1,.7,1.69,1.2a17.61,17.61,0,0,1,3,2.49,5,5,0,0,1,.8,1.2,3.07,3.07,0,0,1,.3,1.3,5,5,0,0,1-.9,3.09,5.44,5.44,0,0,1-2.39,1.79,8.63,8.63,0,0,1-3.19.6,7.93,7.93,0,0,1-3.79-.8Z" transform="translate(-83.62 -117.08)"/><path class="cls-5" d="M398.84,205.59a5,5,0,0,1,1.69-3.79,6,6,0,0,1,3.89-1.2,6.47,6.47,0,0,1,4.29,1.3q1.49,1.35,1.49,4.78v.9a4.92,4.92,0,0,1-5.58,5.48,7.28,7.28,0,0,1-3.19-.6,4.1,4.1,0,0,1-1.89-2,6.84,6.84,0,0,1-.7-3.39A7.2,7.2,0,0,1,398.84,205.59Zm3.39,1.2a8.14,8.14,0,0,0,.5,3.19,1.72,1.72,0,0,0,1.79,1h.3a1.85,1.85,0,0,0,1.59-1.2,8.25,8.25,0,0,0,.4-3.09v-1.1c0-.2-.1-.5-.1-.7s-.1-.5-.1-.7a2.39,2.39,0,0,0-.7-1.2,2,2,0,0,0-1.4-.5,1.79,1.79,0,0,0-1.79,1.1,4.93,4.93,0,0,0-.4,1.3,8.06,8.06,0,0,0-.1,1.59C402.13,206.58,402.23,206.68,402.23,206.78Z" transform="translate(-83.62 -117.08)"/><path class="cls-5" d="M420.37,210.47v2.19a8.6,8.6,0,0,1-2.79.4c-2.09,0-3.49-.6-4.29-1.79a7.19,7.19,0,0,1-.9-2,10.19,10.19,0,0,1-.2-3.89l.3-1.49a4.64,4.64,0,0,1,1.59-2.39,5.32,5.32,0,0,1,3.59-1,6.75,6.75,0,0,1,2.59.4v2.29a2.44,2.44,0,0,0-1.79-.6,2.22,2.22,0,0,0-1.89.7,2.56,2.56,0,0,0-.7,1.49,4.39,4.39,0,0,0-.2,1v1.1a7.69,7.69,0,0,0,.2,1.49c.1.5.3.9.4,1.3a2.35,2.35,0,0,0,.8.9,3.18,3.18,0,0,0,1.4.3,2.47,2.47,0,0,0,.9-.1A1.68,1.68,0,0,0,420.37,210.47Z" transform="translate(-83.62 -117.08)"/><path class="cls-5" d="M422.16,197.12a1.27,1.27,0,0,1,.7-1.1,3,3,0,0,1,1.59-.5,2.76,2.76,0,0,1,1.59.5,1.38,1.38,0,0,1,.6,1.1,1.21,1.21,0,0,1-.6,1,2.45,2.45,0,0,1-1.49.5,2.85,2.85,0,0,1-1.69-.4C422.36,197.81,422.16,197.52,422.16,197.12Zm4,3.59v12.16h-3.39V200.7Z" transform="translate(-83.62 -117.08)"/><path class="cls-5" d="M435,212.66a4.2,4.2,0,0,1-2,.4,3.88,3.88,0,0,1-2.29-.7,3.52,3.52,0,0,1-1.49-1.69c-.2-.5-.3-1.1-.5-1.69a13.74,13.74,0,0,1-.2-2.19,16.54,16.54,0,0,1,.2-2.39,4.76,4.76,0,0,1,.6-1.79,3.88,3.88,0,0,1,1.49-1.59,4.54,4.54,0,0,1,2-.5,5.36,5.36,0,0,1,2.19.4,1.88,1.88,0,0,1,1.2,1.1l.1-1.4h3.39v12.26h-3.49v-1.49A3,3,0,0,1,435,212.66Zm-2.49-9a13,13,0,0,0-.3,1.3,12.08,12.08,0,0,0-.1,2,9.69,9.69,0,0,0,.1,1.79,3.36,3.36,0,0,0,.4,1.2,2.17,2.17,0,0,0,.7.9,2,2,0,0,0,1.1.3,2.35,2.35,0,0,0,1.3-.5,1.9,1.9,0,0,0,.7-1.4v-1.49c0-.4.1-.8.1-1v-1.3a6.86,6.86,0,0,0-.2-1.3,1.44,1.44,0,0,0-.7-1.1,2.83,2.83,0,0,0-1.2-.4A1.8,1.8,0,0,0,432.53,203.69Z" transform="translate(-83.62 -117.08)"/><path class="cls-5" d="M446.38,192.93v19.93H443V192.93Z" transform="translate(-83.62 -117.08)"/><path class="cls-5" d="M457.54,194.82h9.67v2.09h-6.08v5.68h5.48v2.09h-5.48v6.18h6.08v2h-9.67Z" transform="translate(-83.62 -117.08)"/><path class="cls-5" d="M473.59,210.27a4.33,4.33,0,0,0-.4.7,5.53,5.53,0,0,0-.6.8l-.8,1.2h-3.49l4.58-6.48-4.58-5.68h4l2.59,4.19c.3-.6.6-1.3,1-2s.8-1.4,1.3-2.19h3.49l-4.09,5.68,5,6.48h-4l-1.3-1.79-.8-1.3c-.3-.5-.6-1-.9-1.4a2.05,2.05,0,0,1-.5.9C474,209.57,473.79,209.87,473.59,210.27Z" transform="translate(-83.62 -117.08)"/><path class="cls-5" d="M490.33,200.51a4.63,4.63,0,0,1,2.29.6,2.9,2.9,0,0,1,1.4,1.69,12.85,12.85,0,0,1,.6,4,11.2,11.2,0,0,1-.6,4,2.47,2.47,0,0,1-1.4,1.59,4.37,4.37,0,0,1-2.29.6,7.9,7.9,0,0,1-1.69-.2,2.64,2.64,0,0,1-1.69-1.4v6.48h-3.39v-17h3.39v1.3a2.92,2.92,0,0,1,1.59-1.3,3.4,3.4,0,0,1,1.49-.2l.3-.1Zm-1.2,2.09a1.88,1.88,0,0,0-1.49.6,3.37,3.37,0,0,0-.6,1.2c0,.4-.1.7-.1,1.2s-.1.8-.1,1.1a9.83,9.83,0,0,0,.4,3.29,1.62,1.62,0,0,0,1.69,1.1,1.72,1.72,0,0,0,1.79-1,8,8,0,0,0,.4-3v-.4a12.44,12.44,0,0,0-.2-2.09,3.37,3.37,0,0,0-.6-1.49A1.49,1.49,0,0,0,489.13,202.6Z" transform="translate(-83.62 -117.08)"/><path class="cls-5" d="M500.69,192.93v19.93h-3.39V192.93Z" transform="translate(-83.62 -117.08)"/><path class="cls-5" d="M503.39,205.59a5,5,0,0,1,1.69-3.79,6,6,0,0,1,3.89-1.2,6.47,6.47,0,0,1,4.29,1.3q1.49,1.35,1.49,4.78v.9a4.92,4.92,0,0,1-5.58,5.48,7.28,7.28,0,0,1-3.19-.6,4.1,4.1,0,0,1-1.89-2,6.84,6.84,0,0,1-.7-3.39Zm3.39,1.2a8.14,8.14,0,0,0,.5,3.19,1.72,1.72,0,0,0,1.79,1h.3a1.85,1.85,0,0,0,1.59-1.2,8.25,8.25,0,0,0,.4-3.09v-1.1c0-.2-.1-.5-.1-.7s-.1-.5-.1-.7a2.39,2.39,0,0,0-.7-1.2,2,2,0,0,0-1.4-.5,1.79,1.79,0,0,0-1.79,1.1,4.93,4.93,0,0,0-.4,1.3,8.05,8.05,0,0,0-.1,1.59Z" transform="translate(-83.62 -117.08)"/><path class="cls-5" d="M517.44,212.86V200.7h3.39l-.1,1.49h.1a4.39,4.39,0,0,1,3.89-1.69v2.29a5.77,5.77,0,0,0-3.09.6,1.94,1.94,0,0,0-.8,1.79v7.67Z" transform="translate(-83.62 -117.08)"/><path class="cls-5" d="M530,207.28c0,2.59.7,3.79,2.19,3.79a2,2,0,0,0,1.49-.6,2.34,2.34,0,0,0,.6-1.69h3.19a3.92,3.92,0,0,1-.8,2.49,4.28,4.28,0,0,1-1.89,1.4c-.4.1-.8.2-1.3.3a6.13,6.13,0,0,1-1.4.1,7.76,7.76,0,0,1-2.79-.5,3.58,3.58,0,0,1-1-.7,3.9,3.9,0,0,1-.8-1,3.37,3.37,0,0,1-.6-1.2,5.88,5.88,0,0,1-.2-1.4v-.4a3.07,3.07,0,0,0-.1-1,6.92,6.92,0,0,1,1.4-4.68,4.91,4.91,0,0,1,4-1.59,5.32,5.32,0,0,1,3.59,1,4.71,4.71,0,0,1,1.59,2.49,14.82,14.82,0,0,1,.4,3.29l-7.57-.1Zm0-1.59h4c0-2-.7-3.09-2-3.09a1.67,1.67,0,0,0-1.4.6A4,4,0,0,0,530,205.69Z" transform="translate(-83.62 -117.08)"/><path class="cls-5" d="M540.16,212.86V200.7h3.39l-.1,1.49h.1a4.39,4.39,0,0,1,3.89-1.69v2.29a5.77,5.77,0,0,0-3.09.6,1.94,1.94,0,0,0-.8,1.79v7.67Z" transform="translate(-83.62 -117.08)"/><path class="cls-6" d="M244.76,210v3.84h-2.25v-10.9h4.25a5.15,5.15,0,0,1,1.73.27,3.72,3.72,0,0,1,1.29.75,3.22,3.22,0,0,1,.8,1.15,3.7,3.7,0,0,1,.28,1.44,3.55,3.55,0,0,1-.28,1.43,3,3,0,0,1-.8,1.09,3.71,3.71,0,0,1-1.29.69,5.65,5.65,0,0,1-1.73.24Zm0-1.82h2a2.55,2.55,0,0,0,.83-.12,1.51,1.51,0,0,0,.57-.33,1.3,1.3,0,0,0,.33-.51,2,2,0,0,0,.1-.65,2.2,2.2,0,0,0-.1-.68,1.61,1.61,0,0,0-.33-.58,1.57,1.57,0,0,0-.57-.4,2.09,2.09,0,0,0-.83-.15h-2Z" transform="translate(-83.62 -117.08)"/><path class="cls-6" d="M261.77,208.64a7,7,0,0,1-.34,2.24,4.85,4.85,0,0,1-.95,1.68,4.13,4.13,0,0,1-1.46,1.06,5,5,0,0,1-3.76,0,4.21,4.21,0,0,1-1.47-1.06,4.88,4.88,0,0,1-1-1.68,6.81,6.81,0,0,1-.34-2.24v-.48a6.89,6.89,0,0,1,.34-2.24,5,5,0,0,1,1-1.69,4.12,4.12,0,0,1,1.47-1.07,4.95,4.95,0,0,1,3.76,0,4.13,4.13,0,0,1,1.47,1.07,5,5,0,0,1,1,1.69,6.9,6.9,0,0,1,.34,2.24Zm-2.28-.49a4.59,4.59,0,0,0-.61-2.61,2.17,2.17,0,0,0-3.5,0,4.59,4.59,0,0,0-.61,2.61v.49a6.35,6.35,0,0,0,.16,1.51,3.38,3.38,0,0,0,.46,1.1,2,2,0,0,0,.75.67,2.17,2.17,0,0,0,1,.23,2,2,0,0,0,1.74-.9,4.67,4.67,0,0,0,.61-2.61Z" transform="translate(-83.62 -117.08)"/><path class="cls-6" d="M272.31,210.7l1.47-7.76H276l-2.42,10.9h-2.26l-1.77-7.29-1.77,7.29h-2.26l-2.42-10.9h2.24l1.48,7.74,1.8-7.74h1.9Z" transform="translate(-83.62 -117.08)"/><path class="cls-6" d="M284.2,209.12h-4.31V212H285v1.8h-7.31v-10.9h7.29v1.82h-5v2.6h4.31Z" transform="translate(-83.62 -117.08)"/><path class="cls-6" d="M290.72,209.86h-1.79v4h-2.25v-10.9h4.05a6.17,6.17,0,0,1,1.69.21,3.54,3.54,0,0,1,1.27.63,2.76,2.76,0,0,1,.79,1,3.43,3.43,0,0,1,.28,1.42,3.94,3.94,0,0,1-.13,1.07,2.8,2.8,0,0,1-1,1.49,4,4,0,0,1-.81.48l2.36,4.46v.1h-2.41ZM288.93,208h1.81a2.35,2.35,0,0,0,.77-.12,1.49,1.49,0,0,0,.55-.33,1.38,1.38,0,0,0,.33-.51,1.86,1.86,0,0,0,.11-.66,1.65,1.65,0,0,0-.44-1.21,1.82,1.82,0,0,0-1.34-.44h-1.8Z" transform="translate(-83.62 -117.08)"/><path class="cls-6" d="M303.44,209.12h-4.31V212h5.06v1.8h-7.31v-10.9h7.29v1.82h-5v2.6h4.31Z" transform="translate(-83.62 -117.08)"/><path class="cls-6" d="M305.92,213.85v-10.9h3.35a5.25,5.25,0,0,1,2,.38,4.55,4.55,0,0,1,1.57,1.06,4.86,4.86,0,0,1,1,1.64,5.9,5.9,0,0,1,.37,2.13v.49a5.93,5.93,0,0,1-.36,2.12,4.76,4.76,0,0,1-1,1.64,4.56,4.56,0,0,1-1.58,1.06,5.33,5.33,0,0,1-2,.37Zm2.25-9.08V212h1.09a2.43,2.43,0,0,0,2-.88,4,4,0,0,0,.7-2.51v-.51a4,4,0,0,0-.69-2.52,2.43,2.43,0,0,0-2-.86Z" transform="translate(-83.62 -117.08)"/><path class="cls-6" d="M320.54,213.85v-10.9h3.82a7.3,7.3,0,0,1,1.7.18,3.63,3.63,0,0,1,1.27.55,2.44,2.44,0,0,1,.79.93,3,3,0,0,1,.27,1.33,2.73,2.73,0,0,1-.09.72,2.32,2.32,0,0,1-.28.64,2.36,2.36,0,0,1-.48.54,2.49,2.49,0,0,1-.7.4,2.41,2.41,0,0,1,.82.36,2.25,2.25,0,0,1,.88,1.27,3,3,0,0,1,.1.78,2.87,2.87,0,0,1-1,2.4,4.59,4.59,0,0,1-2.91.81Zm2.25-6.33h1.66a2,2,0,0,0,1.28-.36,1.22,1.22,0,0,0,.42-1,1.25,1.25,0,0,0-.43-1.07,2.27,2.27,0,0,0-1.36-.33h-1.57Zm0,1.59V212h1.92a2.3,2.3,0,0,0,.75-.11,1.48,1.48,0,0,0,.52-.3,1.18,1.18,0,0,0,.31-.45,1.54,1.54,0,0,0,.1-.57,2.07,2.07,0,0,0-.09-.63,1.21,1.21,0,0,0-.28-.48,1.23,1.23,0,0,0-.5-.3,2.28,2.28,0,0,0-.73-.1Z" transform="translate(-83.62 -117.08)"/><path class="cls-6" d="M334.08,207.86l2.27-4.91h2.46l-3.58,6.95v4h-2.28v-4l-3.58-6.95h2.46Z" transform="translate(-83.62 -117.08)"/></svg>